<ttFont>
<head>
    <!-- Most of this table will be recalculated by the compiler -->
    <tableVersion value="1.0"/>
    <fontRevision value="5.0"/>
    <checkSumAdjustment value="0x1bccbd64"/>
    <magicNumber value="0x5f0f3cf5"/>
    <flags value="00000000 00001011"/>
    <unitsPerEm value="2048"/>
    <created value="Sun May 15 08:57:39 2005"/>
    <modified value="Thu Apr 14 12:32:01 2011"/>
    <xMin value="-117"/>
    <yMin value="-969"/>
    <xMax value="6814"/>
    <yMax value="2304"/>
    <macStyle value="00000000 00000000"/>
    <lowestRecPPEM value="8"/>
    <fontDirectionHint value="2"/>
    <indexToLocFormat value="1"/>
    <glyphDataFormat value="0"/>
  </head>
    <TTGlyph name=".notdef" xMin="142" yMin="226" xMax="842" yMax="1588">
      <contour>
        <pt x="142" y="226" on="1"/>
        <pt x="142" y="1588" on="1"/>
        <pt x="842" y="1588" on="1"/>
        <pt x="842" y="226" on="1"/>
      </contour>
      <contour>
        <pt x="284" y="368" on="1"/>
        <pt x="700" y="368" on="1"/>
        <pt x="700" y="1447" on="1"/>
        <pt x="284" y="1447" on="1"/>
      </contour>
    </TTGlyph>
    <TTGlyph name=".null" xMin="142" yMin="226" xMax="842" yMax="1588">
      <contour>
        <pt x="142" y="226" on="1"/>
        <pt x="142" y="1588" on="1"/>
        <pt x="842" y="1588" on="1"/>
        <pt x="842" y="226" on="1"/>
      </contour>
      <contour>
        <pt x="284" y="368" on="1"/>
        <pt x="700" y="368" on="1"/>
        <pt x="700" y="1447" on="1"/>
        <pt x="284" y="1447" on="1"/>
      </contour>
    </TTGlyph>
    <TTGlyph name="afii57381" xMin="142" yMin="226" xMax="842" yMax="1588">
      <contour>
        <pt x="142" y="226" on="1"/>
        <pt x="142" y="1588" on="1"/>
        <pt x="842" y="1588" on="1"/>
        <pt x="842" y="226" on="1"/>
      </contour>
      <contour>
        <pt x="284" y="368" on="1"/>
        <pt x="700" y="368" on="1"/>
        <pt x="700" y="1447" on="1"/>
        <pt x="284" y="1447" on="1"/>
      </contour>
    </TTGlyph>
    <TTGlyph name="afii57388" xMin="142" yMin="226" xMax="842" yMax="1588">
      <contour>
        <pt x="142" y="226" on="1"/>
        <pt x="142" y="1588" on="1"/>
        <pt x="842" y="1588" on="1"/>
        <pt x="842" y="226" on="1"/>
      </contour>
      <contour>
        <pt x="284" y="368" on="1"/>
        <pt x="700" y="368" on="1"/>
        <pt x="700" y="1447" on="1"/>
        <pt x="284" y="1447" on="1"/>
      </contour>
    </TTGlyph>
    <TTGlyph name="afii57396" xMin="142" yMin="226" xMax="842" yMax="1588">
      <contour>
        <pt x="142" y="226" on="1"/>
        <pt x="142" y="1588" on="1"/>
        <pt x="842" y="1588" on="1"/>
        <pt x="842" y="226" on="1"/>
      </contour>
      <contour>
        <pt x="284" y="368" on="1"/>
        <pt x="700" y="368" on="1"/>
        <pt x="700" y="1447" on="1"/>
        <pt x="284" y="1447" on="1"/>
      </contour>
    </TTGlyph>
    <TTGlyph name="afii57397" xMin="142" yMin="226" xMax="842" yMax="1588">
      <contour>
        <pt x="142" y="226" on="1"/>
        <pt x="142" y="1588" on="1"/>
        <pt x="842" y="1588" on="1"/>
        <pt x="842" y="226" on="1"/>
      </contour>
      <contour>
        <pt x="284" y="368" on="1"/>
        <pt x="700" y="368" on="1"/>
        <pt x="700" y="1447" on="1"/>
        <pt x="284" y="1447" on="1"/>
      </contour>
    </TTGlyph>
    <TTGlyph name="afii57398" xMin="142" yMin="226" xMax="842" yMax="1588">
      <contour>
        <pt x="142" y="226" on="1"/>
        <pt x="142" y="1588" on="1"/>
        <pt x="842" y="1588" on="1"/>
        <pt x="842" y="226" on="1"/>
      </contour>
      <contour>
        <pt x="284" y="368" on="1"/>
        <pt x="700" y="368" on="1"/>
        <pt x="700" y="1447" on="1"/>
        <pt x="284" y="1447" on="1"/>
      </contour>
    </TTGlyph>
    <TTGlyph name="afii57403" xMin="142" yMin="226" xMax="842" yMax="1588">
      <contour>
        <pt x="142" y="226" on="1"/>
        <pt x="142" y="1588" on="1"/>
        <pt x="842" y="1588" on="1"/>
        <pt x="842" y="226" on="1"/>
      </contour>
      <contour>
        <pt x="284" y="368" on="1"/>
        <pt x="700" y="368" on="1"/>
        <pt x="700" y="1447" on="1"/>
        <pt x="284" y="1447" on="1"/>
      </contour>
    </TTGlyph>
    <TTGlyph name="afii57407" xMin="142" yMin="226" xMax="842" yMax="1588">
      <contour>
        <pt x="142" y="226" on="1"/>
        <pt x="142" y="1588" on="1"/>
        <pt x="842" y="1588" on="1"/>
        <pt x="842" y="226" on="1"/>
      </contour>
      <contour>
        <pt x="284" y="368" on="1"/>
        <pt x="700" y="368" on="1"/>
        <pt x="700" y="1447" on="1"/>
        <pt x="284" y="1447" on="1"/>
      </contour>
    </TTGlyph>
    <TTGlyph name="afii57440" xMin="142" yMin="226" xMax="842" yMax="1588">
      <contour>
        <pt x="142" y="226" on="1"/>
        <pt x="142" y="1588" on="1"/>
        <pt x="842" y="1588" on="1"/>
        <pt x="842" y="226" on="1"/>
      </contour>
      <contour>
        <pt x="284" y="368" on="1"/>
        <pt x="700" y="368" on="1"/>
        <pt x="700" y="1447" on="1"/>
        <pt x="284" y="1447" on="1"/>
      </contour>
    </TTGlyph>
    <TTGlyph name="afii57451" xMin="142" yMin="226" xMax="842" yMax="1588">
      <contour>
        <pt x="142" y="226" on="1"/>
        <pt x="142" y="1588" on="1"/>
        <pt x="842" y="1588" on="1"/>
        <pt x="842" y="226" on="1"/>
      </contour>
      <contour>
        <pt x="284" y="368" on="1"/>
        <pt x="700" y="368" on="1"/>
        <pt x="700" y="1447" on="1"/>
        <pt x="284" y="1447" on="1"/>
      </contour>
    </TTGlyph>
    <TTGlyph name="afii57452" xMin="142" yMin="226" xMax="842" yMax="1588">
      <contour>
        <pt x="142" y="226" on="1"/>
        <pt x="142" y="1588" on="1"/>
        <pt x="842" y="1588" on="1"/>
        <pt x="842" y="226" on="1"/>
      </contour>
      <contour>
        <pt x="284" y="368" on="1"/>
        <pt x="700" y="368" on="1"/>
        <pt x="700" y="1447" on="1"/>
        <pt x="284" y="1447" on="1"/>
      </contour>
    </TTGlyph>
    <TTGlyph name="afii57453" xMin="142" yMin="226" xMax="842" yMax="1588">
      <contour>
        <pt x="142" y="226" on="1"/>
        <pt x="142" y="1588" on="1"/>
        <pt x="842" y="1588" on="1"/>
        <pt x="842" y="226" on="1"/>
      </contour>
      <contour>
        <pt x="284" y="368" on="1"/>
        <pt x="700" y="368" on="1"/>
        <pt x="700" y="1447" on="1"/>
        <pt x="284" y="1447" on="1"/>
      </contour>
    </TTGlyph>
    <TTGlyph name="afii57454" xMin="142" yMin="226" xMax="842" yMax="1588">
      <contour>
        <pt x="142" y="226" on="1"/>
        <pt x="142" y="1588" on="1"/>
        <pt x="842" y="1588" on="1"/>
        <pt x="842" y="226" on="1"/>
      </contour>
      <contour>
        <pt x="284" y="368" on="1"/>
        <pt x="700" y="368" on="1"/>
        <pt x="700" y="1447" on="1"/>
        <pt x="284" y="1447" on="1"/>
      </contour>
    </TTGlyph>
    <TTGlyph name="afii57455" xMin="142" yMin="226" xMax="842" yMax="1588">
      <contour>
        <pt x="142" y="226" on="1"/>
        <pt x="142" y="1588" on="1"/>
        <pt x="842" y="1588" on="1"/>
        <pt x="842" y="226" on="1"/>
      </contour>
      <contour>
        <pt x="284" y="368" on="1"/>
        <pt x="700" y="368" on="1"/>
        <pt x="700" y="1447" on="1"/>
        <pt x="284" y="1447" on="1"/>
      </contour>
    </TTGlyph>
    <TTGlyph name="afii57456" xMin="142" yMin="226" xMax="842" yMax="1588">
      <contour>
        <pt x="142" y="226" on="1"/>
        <pt x="142" y="1588" on="1"/>
        <pt x="842" y="1588" on="1"/>
        <pt x="842" y="226" on="1"/>
      </contour>
      <contour>
        <pt x="284" y="368" on="1"/>
        <pt x="700" y="368" on="1"/>
        <pt x="700" y="1447" on="1"/>
        <pt x="284" y="1447" on="1"/>
      </contour>
    </TTGlyph>
    <TTGlyph name="afii57457" xMin="142" yMin="226" xMax="842" yMax="1588">
      <contour>
        <pt x="142" y="226" on="1"/>
        <pt x="142" y="1588" on="1"/>
        <pt x="842" y="1588" on="1"/>
        <pt x="842" y="226" on="1"/>
      </contour>
      <contour>
        <pt x="284" y="368" on="1"/>
        <pt x="700" y="368" on="1"/>
        <pt x="700" y="1447" on="1"/>
        <pt x="284" y="1447" on="1"/>
      </contour>
    </TTGlyph>
    <TTGlyph name="afii57458" xMin="142" yMin="226" xMax="842" yMax="1588">
      <contour>
        <pt x="142" y="226" on="1"/>
        <pt x="142" y="1588" on="1"/>
        <pt x="842" y="1588" on="1"/>
        <pt x="842" y="226" on="1"/>
      </contour>
      <contour>
        <pt x="284" y="368" on="1"/>
        <pt x="700" y="368" on="1"/>
        <pt x="700" y="1447" on="1"/>
        <pt x="284" y="1447" on="1"/>
      </contour>
    </TTGlyph>
    <TTGlyph name="afii57505" xMin="142" yMin="226" xMax="842" yMax="1588">
      <contour>
        <pt x="142" y="226" on="1"/>
        <pt x="142" y="1588" on="1"/>
        <pt x="842" y="1588" on="1"/>
        <pt x="842" y="226" on="1"/>
      </contour>
      <contour>
        <pt x="284" y="368" on="1"/>
        <pt x="700" y="368" on="1"/>
        <pt x="700" y="1447" on="1"/>
        <pt x="284" y="1447" on="1"/>
      </contour>
    </TTGlyph>
    <TTGlyph name="afii57506" xMin="142" yMin="226" xMax="842" yMax="1588">
      <contour>
        <pt x="142" y="226" on="1"/>
        <pt x="142" y="1588" on="1"/>
        <pt x="842" y="1588" on="1"/>
        <pt x="842" y="226" on="1"/>
      </contour>
      <contour>
        <pt x="284" y="368" on="1"/>
        <pt x="700" y="368" on="1"/>
        <pt x="700" y="1447" on="1"/>
        <pt x="284" y="1447" on="1"/>
      </contour>
    </TTGlyph>
    <TTGlyph name="afii57507" xMin="142" yMin="226" xMax="842" yMax="1588">
      <contour>
        <pt x="142" y="226" on="1"/>
        <pt x="142" y="1588" on="1"/>
        <pt x="842" y="1588" on="1"/>
        <pt x="842" y="226" on="1"/>
      </contour>
      <contour>
        <pt x="284" y="368" on="1"/>
        <pt x="700" y="368" on="1"/>
        <pt x="700" y="1447" on="1"/>
        <pt x="284" y="1447" on="1"/>
      </contour>
    </TTGlyph>
    <TTGlyph name="afii57508" xMin="142" yMin="226" xMax="842" yMax="1588">
      <contour>
        <pt x="142" y="226" on="1"/>
        <pt x="142" y="1588" on="1"/>
        <pt x="842" y="1588" on="1"/>
        <pt x="842" y="226" on="1"/>
      </contour>
      <contour>
        <pt x="284" y="368" on="1"/>
        <pt x="700" y="368" on="1"/>
        <pt x="700" y="1447" on="1"/>
        <pt x="284" y="1447" on="1"/>
      </contour>
    </TTGlyph>
    <TTGlyph name="afii57509" xMin="142" yMin="226" xMax="842" yMax="1588">
      <contour>
        <pt x="142" y="226" on="1"/>
        <pt x="142" y="1588" on="1"/>
        <pt x="842" y="1588" on="1"/>
        <pt x="842" y="226" on="1"/>
      </contour>
      <contour>
        <pt x="284" y="368" on="1"/>
        <pt x="700" y="368" on="1"/>
        <pt x="700" y="1447" on="1"/>
        <pt x="284" y="1447" on="1"/>
      </contour>
    </TTGlyph>
    <TTGlyph name="afii57511" xMin="142" yMin="226" xMax="842" yMax="1588">
      <contour>
        <pt x="142" y="226" on="1"/>
        <pt x="142" y="1588" on="1"/>
        <pt x="842" y="1588" on="1"/>
        <pt x="842" y="226" on="1"/>
      </contour>
      <contour>
        <pt x="284" y="368" on="1"/>
        <pt x="700" y="368" on="1"/>
        <pt x="700" y="1447" on="1"/>
        <pt x="284" y="1447" on="1"/>
      </contour>
    </TTGlyph>
    <TTGlyph name="afii57512" xMin="142" yMin="226" xMax="842" yMax="1588">
      <contour>
        <pt x="142" y="226" on="1"/>
        <pt x="142" y="1588" on="1"/>
        <pt x="842" y="1588" on="1"/>
        <pt x="842" y="226" on="1"/>
      </contour>
      <contour>
        <pt x="284" y="368" on="1"/>
        <pt x="700" y="368" on="1"/>
        <pt x="700" y="1447" on="1"/>
        <pt x="284" y="1447" on="1"/>
      </contour>
    </TTGlyph>
    <TTGlyph name="afii57513" xMin="142" yMin="226" xMax="842" yMax="1588">
      <contour>
        <pt x="142" y="226" on="1"/>
        <pt x="142" y="1588" on="1"/>
        <pt x="842" y="1588" on="1"/>
        <pt x="842" y="226" on="1"/>
      </contour>
      <contour>
        <pt x="284" y="368" on="1"/>
        <pt x="700" y="368" on="1"/>
        <pt x="700" y="1447" on="1"/>
        <pt x="284" y="1447" on="1"/>
      </contour>
    </TTGlyph>
    <TTGlyph name="afii57514" xMin="142" yMin="226" xMax="842" yMax="1588">
      <contour>
        <pt x="142" y="226" on="1"/>
        <pt x="142" y="1588" on="1"/>
        <pt x="842" y="1588" on="1"/>
        <pt x="842" y="226" on="1"/>
      </contour>
      <contour>
        <pt x="284" y="368" on="1"/>
        <pt x="700" y="368" on="1"/>
        <pt x="700" y="1447" on="1"/>
        <pt x="284" y="1447" on="1"/>
      </contour>
    </TTGlyph>
    <TTGlyph name="afii57519" xMin="142" yMin="226" xMax="842" yMax="1588">
      <contour>
        <pt x="142" y="226" on="1"/>
        <pt x="142" y="1588" on="1"/>
        <pt x="842" y="1588" on="1"/>
        <pt x="842" y="226" on="1"/>
      </contour>
      <contour>
        <pt x="284" y="368" on="1"/>
        <pt x="700" y="368" on="1"/>
        <pt x="700" y="1447" on="1"/>
        <pt x="284" y="1447" on="1"/>
      </contour>
    </TTGlyph>
    <TTGlyph name="afii57534" xMin="142" yMin="226" xMax="842" yMax="1588">
      <contour>
        <pt x="142" y="226" on="1"/>
        <pt x="142" y="1588" on="1"/>
        <pt x="842" y="1588" on="1"/>
        <pt x="842" y="226" on="1"/>
      </contour>
      <contour>
        <pt x="284" y="368" on="1"/>
        <pt x="700" y="368" on="1"/>
        <pt x="700" y="1447" on="1"/>
        <pt x="284" y="1447" on="1"/>
      </contour>
    </TTGlyph>
    <TTGlyph name="afii63167" xMin="142" yMin="226" xMax="842" yMax="1588">
      <contour>
        <pt x="142" y="226" on="1"/>
        <pt x="142" y="1588" on="1"/>
        <pt x="842" y="1588" on="1"/>
        <pt x="842" y="226" on="1"/>
      </contour>
      <contour>
        <pt x="284" y="368" on="1"/>
        <pt x="700" y="368" on="1"/>
        <pt x="700" y="1447" on="1"/>
        <pt x="284" y="1447" on="1"/>
      </contour>
    </TTGlyph>
    <TTGlyph name="alefmaksurainitial" xMin="142" yMin="226" xMax="842" yMax="1588">
      <contour>
        <pt x="142" y="226" on="1"/>
        <pt x="142" y="1588" on="1"/>
        <pt x="842" y="1588" on="1"/>
        <pt x="842" y="226" on="1"/>
      </contour>
      <contour>
        <pt x="284" y="368" on="1"/>
        <pt x="700" y="368" on="1"/>
        <pt x="700" y="1447" on="1"/>
        <pt x="284" y="1447" on="1"/>
      </contour>
    </TTGlyph>
    <TTGlyph name="alefwaslafinalarabic" xMin="142" yMin="226" xMax="842" yMax="1588">
      <contour>
        <pt x="142" y="226" on="1"/>
        <pt x="142" y="1588" on="1"/>
        <pt x="842" y="1588" on="1"/>
        <pt x="842" y="226" on="1"/>
      </contour>
      <contour>
        <pt x="284" y="368" on="1"/>
        <pt x="700" y="368" on="1"/>
        <pt x="700" y="1447" on="1"/>
        <pt x="284" y="1447" on="1"/>
      </contour>
    </TTGlyph>
    <TTGlyph name="ampersand" xMin="142" yMin="226" xMax="842" yMax="1588">
      <contour>
        <pt x="142" y="226" on="1"/>
        <pt x="142" y="1588" on="1"/>
        <pt x="842" y="1588" on="1"/>
        <pt x="842" y="226" on="1"/>
      </contour>
      <contour>
        <pt x="284" y="368" on="1"/>
        <pt x="700" y="368" on="1"/>
        <pt x="700" y="1447" on="1"/>
        <pt x="284" y="1447" on="1"/>
      </contour>
    </TTGlyph>
    <TTGlyph name="asterisk" xMin="142" yMin="226" xMax="842" yMax="1588">
      <contour>
        <pt x="142" y="226" on="1"/>
        <pt x="142" y="1588" on="1"/>
        <pt x="842" y="1588" on="1"/>
        <pt x="842" y="226" on="1"/>
      </contour>
      <contour>
        <pt x="284" y="368" on="1"/>
        <pt x="700" y="368" on="1"/>
        <pt x="700" y="1447" on="1"/>
        <pt x="284" y="1447" on="1"/>
      </contour>
    </TTGlyph>
    <TTGlyph name="behmeemisolatedarabic" xMin="142" yMin="226" xMax="842" yMax="1588">
      <contour>
        <pt x="142" y="226" on="1"/>
        <pt x="142" y="1588" on="1"/>
        <pt x="842" y="1588" on="1"/>
        <pt x="842" y="226" on="1"/>
      </contour>
      <contour>
        <pt x="284" y="368" on="1"/>
        <pt x="700" y="368" on="1"/>
        <pt x="700" y="1447" on="1"/>
        <pt x="284" y="1447" on="1"/>
      </contour>
    </TTGlyph>
    <TTGlyph name="behnoonfinalarabic" xMin="142" yMin="226" xMax="842" yMax="1588">
      <contour>
        <pt x="142" y="226" on="1"/>
        <pt x="142" y="1588" on="1"/>
        <pt x="842" y="1588" on="1"/>
        <pt x="842" y="226" on="1"/>
      </contour>
      <contour>
        <pt x="284" y="368" on="1"/>
        <pt x="700" y="368" on="1"/>
        <pt x="700" y="1447" on="1"/>
        <pt x="284" y="1447" on="1"/>
      </contour>
    </TTGlyph>
    <TTGlyph name="colon" xMin="142" yMin="226" xMax="842" yMax="1588">
      <contour>
        <pt x="142" y="226" on="1"/>
        <pt x="142" y="1588" on="1"/>
        <pt x="842" y="1588" on="1"/>
        <pt x="842" y="226" on="1"/>
      </contour>
      <contour>
        <pt x="284" y="368" on="1"/>
        <pt x="700" y="368" on="1"/>
        <pt x="700" y="1447" on="1"/>
        <pt x="284" y="1447" on="1"/>
      </contour>
    </TTGlyph>
    <TTGlyph name="dagger" xMin="142" yMin="226" xMax="842" yMax="1588">
      <contour>
        <pt x="142" y="226" on="1"/>
        <pt x="142" y="1588" on="1"/>
        <pt x="842" y="1588" on="1"/>
        <pt x="842" y="226" on="1"/>
      </contour>
      <contour>
        <pt x="284" y="368" on="1"/>
        <pt x="700" y="368" on="1"/>
        <pt x="700" y="1447" on="1"/>
        <pt x="284" y="1447" on="1"/>
      </contour>
    </TTGlyph>
    <TTGlyph name="dalringfinal" xMin="142" yMin="226" xMax="842" yMax="1588">
      <contour>
        <pt x="142" y="226" on="1"/>
        <pt x="142" y="1588" on="1"/>
        <pt x="842" y="1588" on="1"/>
        <pt x="842" y="226" on="1"/>
      </contour>
      <contour>
        <pt x="284" y="368" on="1"/>
        <pt x="700" y="368" on="1"/>
        <pt x="700" y="1447" on="1"/>
        <pt x="284" y="1447" on="1"/>
      </contour>
    </TTGlyph>
    <TTGlyph name="ddalfinalarabic" xMin="142" yMin="226" xMax="842" yMax="1588">
      <contour>
        <pt x="142" y="226" on="1"/>
        <pt x="142" y="1588" on="1"/>
        <pt x="842" y="1588" on="1"/>
        <pt x="842" y="226" on="1"/>
      </contour>
      <contour>
        <pt x="284" y="368" on="1"/>
        <pt x="700" y="368" on="1"/>
        <pt x="700" y="1447" on="1"/>
        <pt x="284" y="1447" on="1"/>
      </contour>
    </TTGlyph>
    <TTGlyph name="divide" xMin="142" yMin="226" xMax="842" yMax="1588">
      <contour>
        <pt x="142" y="226" on="1"/>
        <pt x="142" y="1588" on="1"/>
        <pt x="842" y="1588" on="1"/>
        <pt x="842" y="226" on="1"/>
      </contour>
      <contour>
        <pt x="284" y="368" on="1"/>
        <pt x="700" y="368" on="1"/>
        <pt x="700" y="1447" on="1"/>
        <pt x="284" y="1447" on="1"/>
      </contour>
    </TTGlyph>
    <TTGlyph name="dollar" xMin="142" yMin="226" xMax="842" yMax="1588">
      <contour>
        <pt x="142" y="226" on="1"/>
        <pt x="142" y="1588" on="1"/>
        <pt x="842" y="1588" on="1"/>
        <pt x="842" y="226" on="1"/>
      </contour>
      <contour>
        <pt x="284" y="368" on="1"/>
        <pt x="700" y="368" on="1"/>
        <pt x="700" y="1447" on="1"/>
        <pt x="284" y="1447" on="1"/>
      </contour>
    </TTGlyph>
    <TTGlyph name="dotlessyehfinalarabic" xMin="142" yMin="226" xMax="842" yMax="1588">
      <contour>
        <pt x="142" y="226" on="1"/>
        <pt x="142" y="1588" on="1"/>
        <pt x="842" y="1588" on="1"/>
        <pt x="842" y="226" on="1"/>
      </contour>
      <contour>
        <pt x="284" y="368" on="1"/>
        <pt x="700" y="368" on="1"/>
        <pt x="700" y="1447" on="1"/>
        <pt x="284" y="1447" on="1"/>
      </contour>
    </TTGlyph>
    <TTGlyph name="dotlessyehinitialarabic" xMin="142" yMin="226" xMax="842" yMax="1588">
      <contour>
        <pt x="142" y="226" on="1"/>
        <pt x="142" y="1588" on="1"/>
        <pt x="842" y="1588" on="1"/>
        <pt x="842" y="226" on="1"/>
      </contour>
      <contour>
        <pt x="284" y="368" on="1"/>
        <pt x="700" y="368" on="1"/>
        <pt x="700" y="1447" on="1"/>
        <pt x="284" y="1447" on="1"/>
      </contour>
    </TTGlyph>
    <TTGlyph name="dotlessyehmedialarabic" xMin="142" yMin="226" xMax="842" yMax="1588">
      <contour>
        <pt x="142" y="226" on="1"/>
        <pt x="142" y="1588" on="1"/>
        <pt x="842" y="1588" on="1"/>
        <pt x="842" y="226" on="1"/>
      </contour>
      <contour>
        <pt x="284" y="368" on="1"/>
        <pt x="700" y="368" on="1"/>
        <pt x="700" y="1447" on="1"/>
        <pt x="284" y="1447" on="1"/>
      </contour>
    </TTGlyph>
    <TTGlyph name="elefmaksuramedial" xMin="142" yMin="226" xMax="842" yMax="1588">
      <contour>
        <pt x="142" y="226" on="1"/>
        <pt x="142" y="1588" on="1"/>
        <pt x="842" y="1588" on="1"/>
        <pt x="842" y="226" on="1"/>
      </contour>
      <contour>
        <pt x="284" y="368" on="1"/>
        <pt x="700" y="368" on="1"/>
        <pt x="700" y="1447" on="1"/>
        <pt x="284" y="1447" on="1"/>
      </contour>
    </TTGlyph>
    <TTGlyph name="ellipsis" xMin="142" yMin="226" xMax="842" yMax="1588">
      <contour>
        <pt x="142" y="226" on="1"/>
        <pt x="142" y="1588" on="1"/>
        <pt x="842" y="1588" on="1"/>
        <pt x="842" y="226" on="1"/>
      </contour>
      <contour>
        <pt x="284" y="368" on="1"/>
        <pt x="700" y="368" on="1"/>
        <pt x="700" y="1447" on="1"/>
        <pt x="284" y="1447" on="1"/>
      </contour>
    </TTGlyph>
    <TTGlyph name="emdash" xMin="81" yMin="-5" xMax="2129" yMax="1471">
      <contour>
        <pt x="1927" y="1446" on="1"/>
        <pt x="1927" y="1400" on="0"/>
        <pt x="1871" y="1383" on="1"/>
        <pt x="1517" y="1284" on="0"/>
        <pt x="808" y="1082" on="1"/>
        <pt x="732" y="1082" on="1"/>
        <pt x="706" y="1095" on="0"/>
        <pt x="706" y="1112" on="1"/>
        <pt x="706" y="1167" on="0"/>
        <pt x="1164" y="1296" on="1"/>
        <pt x="1482" y="1384" on="0"/>
        <pt x="1804" y="1471" on="1"/>
        <pt x="1901" y="1471" on="1"/>
        <pt x="1927" y="1470" on="0"/>
      </contour>
      <contour>
        <pt x="2129" y="215" on="1"/>
        <pt x="2129" y="176" on="0"/>
        <pt x="2034" y="66" on="1"/>
        <pt x="1765" y="66" on="1"/>
        <pt x="1697" y="66" on="0"/>
        <pt x="1385" y="138" on="1"/>
        <pt x="1350" y="103" on="0"/>
        <pt x="1235" y="39" on="1"/>
        <pt x="1107" y="-5" on="0"/>
        <pt x="793" y="-5" on="1"/>
        <pt x="586" y="-5" on="0"/>
        <pt x="489" y="20" on="1"/>
        <pt x="372" y="52" on="0"/>
        <pt x="311" y="142" on="1"/>
        <pt x="283" y="179" on="0"/>
        <pt x="250" y="378" on="1"/>
        <pt x="211" y="548" on="0"/>
        <pt x="161" y="881" on="1"/>
        <pt x="159" y="912" on="0"/>
        <pt x="81" y="1092" on="0"/>
        <pt x="81" y="1103" on="1"/>
        <pt x="81" y="1149" on="0"/>
        <pt x="174" y="1215" on="1"/>
        <pt x="255" y="1215" on="1"/>
        <pt x="291" y="1176" on="0"/>
        <pt x="339" y="1098" on="1"/>
        <pt x="374" y="986" on="0"/>
        <pt x="439" y="533" on="0"/>
        <pt x="474" y="421" on="1"/>
        <pt x="487" y="364" on="0"/>
        <pt x="530" y="247" on="1"/>
        <pt x="576" y="159" on="0"/>
        <pt x="903" y="159" on="1"/>
        <pt x="1101" y="159" on="0"/>
        <pt x="1177" y="181" on="1"/>
        <pt x="1183" y="183" on="0"/>
        <pt x="1456" y="356" on="1"/>
        <pt x="1697" y="507" on="0"/>
        <pt x="1851" y="507" on="1"/>
        <pt x="1964" y="507" on="0"/>
        <pt x="2057" y="370" on="1"/>
        <pt x="2129" y="264" on="0"/>
      </contour>
      <contour>
        <pt x="1814" y="251" on="1"/>
        <pt x="1801" y="287" on="0"/>
        <pt x="1767" y="333" on="1"/>
        <pt x="1691" y="333" on="1"/>
        <pt x="1628" y="318" on="0"/>
        <pt x="1619" y="284" on="1"/>
        <pt x="1628" y="283" on="0"/>
        <pt x="1676" y="264" on="1"/>
        <pt x="1708" y="251" on="0"/>
        <pt x="1743" y="251" on="1"/>
      </contour>
    </TTGlyph>
    <TTGlyph name="endash" xMin="81" yMin="-5" xMax="1105" yMax="1471">
      <contour>
        <pt x="1004" y="1446" on="1"/>
        <pt x="1004" y="1400" on="0"/>
        <pt x="976" y="1383" on="1"/>
        <pt x="799" y="1284" on="0"/>
        <pt x="444" y="1082" on="1"/>
        <pt x="406" y="1082" on="1"/>
        <pt x="393" y="1095" on="0"/>
        <pt x="393" y="1112" on="1"/>
        <pt x="393" y="1167" on="0"/>
        <pt x="622" y="1296" on="1"/>
        <pt x="782" y="1384" on="0"/>
        <pt x="942" y="1471" on="1"/>
        <pt x="991" y="1471" on="1"/>
        <pt x="1004" y="1470" on="0"/>
      </contour>
      <contour>
        <pt x="1105" y="215" on="1"/>
        <pt x="1105" y="176" on="0"/>
        <pt x="1057" y="66" on="1"/>
        <pt x="923" y="66" on="1"/>
        <pt x="889" y="66" on="0"/>
        <pt x="733" y="138" on="1"/>
        <pt x="716" y="103" on="0"/>
        <pt x="658" y="39" on="1"/>
        <pt x="594" y="-5" on="0"/>
        <pt x="437" y="-5" on="1"/>
        <pt x="334" y="-5" on="0"/>
        <pt x="285" y="20" on="1"/>
        <pt x="226" y="52" on="0"/>
        <pt x="196" y="142" on="1"/>
        <pt x="182" y="179" on="0"/>
        <pt x="166" y="378" on="1"/>
        <pt x="146" y="548" on="0"/>
        <pt x="121" y="881" on="1"/>
        <pt x="120" y="912" on="0"/>
        <pt x="81" y="1092" on="0"/>
        <pt x="81" y="1103" on="1"/>
        <pt x="81" y="1149" on="0"/>
        <pt x="128" y="1215" on="1"/>
        <pt x="168" y="1215" on="1"/>
        <pt x="186" y="1176" on="0"/>
        <pt x="210" y="1098" on="1"/>
        <pt x="227" y="986" on="0"/>
        <pt x="260" y="533" on="0"/>
        <pt x="277" y="421" on="1"/>
        <pt x="284" y="364" on="0"/>
        <pt x="306" y="247" on="1"/>
        <pt x="328" y="159" on="0"/>
        <pt x="492" y="159" on="1"/>
        <pt x="591" y="159" on="0"/>
        <pt x="629" y="181" on="1"/>
        <pt x="632" y="183" on="0"/>
        <pt x="769" y="356" on="1"/>
        <pt x="889" y="507" on="0"/>
        <pt x="966" y="507" on="1"/>
        <pt x="1023" y="507" on="0"/>
        <pt x="1069" y="370" on="1"/>
        <pt x="1105" y="264" on="0"/>
      </contour>
      <contour>
        <pt x="948" y="251" on="1"/>
        <pt x="941" y="287" on="0"/>
        <pt x="924" y="333" on="1"/>
        <pt x="886" y="333" on="1"/>
        <pt x="854" y="318" on="0"/>
        <pt x="850" y="284" on="1"/>
        <pt x="854" y="283" on="0"/>
        <pt x="878" y="264" on="1"/>
        <pt x="895" y="251" on="0"/>
        <pt x="912" y="251" on="1"/>
      </contour>
    </TTGlyph>
    <TTGlyph name="equal" xMin="142" yMin="226" xMax="842" yMax="1588">
      <contour>
        <pt x="142" y="226" on="1"/>
        <pt x="142" y="1588" on="1"/>
        <pt x="842" y="1588" on="1"/>
        <pt x="842" y="226" on="1"/>
      </contour>
      <contour>
        <pt x="284" y="368" on="1"/>
        <pt x="700" y="368" on="1"/>
        <pt x="700" y="1447" on="1"/>
        <pt x="284" y="1447" on="1"/>
      </contour>
    </TTGlyph>
    <TTGlyph name="exclam" xMin="142" yMin="226" xMax="842" yMax="1588">
      <contour>
        <pt x="142" y="226" on="1"/>
        <pt x="142" y="1588" on="1"/>
        <pt x="842" y="1588" on="1"/>
        <pt x="842" y="226" on="1"/>
      </contour>
      <contour>
        <pt x="284" y="368" on="1"/>
        <pt x="700" y="368" on="1"/>
        <pt x="700" y="1447" on="1"/>
        <pt x="284" y="1447" on="1"/>
      </contour>
    </TTGlyph>
    <TTGlyph name="figuredash" xMin="81" yMin="-5" xMax="1025" yMax="1471">
      <contour>
        <pt x="932" y="1446" on="1"/>
        <pt x="932" y="1400" on="0"/>
        <pt x="906" y="1383" on="1"/>
        <pt x="743" y="1284" on="0"/>
        <pt x="416" y="1082" on="1"/>
        <pt x="381" y="1082" on="1"/>
        <pt x="369" y="1095" on="0"/>
        <pt x="369" y="1112" on="1"/>
        <pt x="369" y="1167" on="0"/>
        <pt x="580" y="1296" on="1"/>
        <pt x="727" y="1384" on="0"/>
        <pt x="875" y="1471" on="1"/>
        <pt x="920" y="1471" on="1"/>
        <pt x="932" y="1470" on="0"/>
      </contour>
      <contour>
        <pt x="1025" y="215" on="1"/>
        <pt x="1025" y="176" on="0"/>
        <pt x="981" y="66" on="1"/>
        <pt x="857" y="66" on="1"/>
        <pt x="826" y="66" on="0"/>
        <pt x="682" y="138" on="1"/>
        <pt x="666" y="103" on="0"/>
        <pt x="613" y="39" on="1"/>
        <pt x="554" y="-5" on="0"/>
        <pt x="409" y="-5" on="1"/>
        <pt x="314" y="-5" on="0"/>
        <pt x="269" y="20" on="1"/>
        <pt x="215" y="52" on="0"/>
        <pt x="187" y="142" on="1"/>
        <pt x="174" y="179" on="0"/>
        <pt x="159" y="378" on="1"/>
        <pt x="141" y="548" on="0"/>
        <pt x="118" y="881" on="1"/>
        <pt x="117" y="912" on="0"/>
        <pt x="81" y="1092" on="0"/>
        <pt x="81" y="1103" on="1"/>
        <pt x="81" y="1149" on="0"/>
        <pt x="124" y="1215" on="1"/>
        <pt x="161" y="1215" on="1"/>
        <pt x="178" y="1176" on="0"/>
        <pt x="200" y="1098" on="1"/>
        <pt x="216" y="986" on="0"/>
        <pt x="246" y="533" on="0"/>
        <pt x="262" y="421" on="1"/>
        <pt x="268" y="364" on="0"/>
        <pt x="288" y="247" on="1"/>
        <pt x="309" y="159" on="0"/>
        <pt x="460" y="159" on="1"/>
        <pt x="551" y="159" on="0"/>
        <pt x="586" y="181" on="1"/>
        <pt x="589" y="183" on="0"/>
        <pt x="715" y="356" on="1"/>
        <pt x="826" y="507" on="0"/>
        <pt x="897" y="507" on="1"/>
        <pt x="949" y="507" on="0"/>
        <pt x="992" y="370" on="1"/>
        <pt x="1025" y="264" on="0"/>
      </contour>
      <contour>
        <pt x="880" y="251" on="1"/>
        <pt x="874" y="287" on="0"/>
        <pt x="858" y="333" on="1"/>
        <pt x="823" y="333" on="1"/>
        <pt x="794" y="318" on="0"/>
        <pt x="790" y="284" on="1"/>
        <pt x="794" y="283" on="0"/>
        <pt x="816" y="264" on="1"/>
        <pt x="831" y="251" on="0"/>
        <pt x="847" y="251" on="1"/>
      </contour>
    </TTGlyph>
    <TTGlyph name="gaffinalarabic" xMin="142" yMin="226" xMax="842" yMax="1588">
      <contour>
        <pt x="142" y="226" on="1"/>
        <pt x="142" y="1588" on="1"/>
        <pt x="842" y="1588" on="1"/>
        <pt x="842" y="226" on="1"/>
      </contour>
      <contour>
        <pt x="284" y="368" on="1"/>
        <pt x="700" y="368" on="1"/>
        <pt x="700" y="1447" on="1"/>
        <pt x="284" y="1447" on="1"/>
      </contour>
    </TTGlyph>
    <TTGlyph name="gafinitialarabic" xMin="142" yMin="226" xMax="842" yMax="1588">
      <contour>
        <pt x="142" y="226" on="1"/>
        <pt x="142" y="1588" on="1"/>
        <pt x="842" y="1588" on="1"/>
        <pt x="842" y="226" on="1"/>
      </contour>
      <contour>
        <pt x="284" y="368" on="1"/>
        <pt x="700" y="368" on="1"/>
        <pt x="700" y="1447" on="1"/>
        <pt x="284" y="1447" on="1"/>
      </contour>
    </TTGlyph>
    <TTGlyph name="gafmedialarabic" xMin="142" yMin="226" xMax="842" yMax="1588">
      <contour>
        <pt x="142" y="226" on="1"/>
        <pt x="142" y="1588" on="1"/>
        <pt x="842" y="1588" on="1"/>
        <pt x="842" y="226" on="1"/>
      </contour>
      <contour>
        <pt x="284" y="368" on="1"/>
        <pt x="700" y="368" on="1"/>
        <pt x="700" y="1447" on="1"/>
        <pt x="284" y="1447" on="1"/>
      </contour>
    </TTGlyph>
    <TTGlyph name="glyph41" xMin="142" yMin="226" xMax="842" yMax="1588">
      <contour>
        <pt x="142" y="226" on="1"/>
        <pt x="142" y="1588" on="1"/>
        <pt x="842" y="1588" on="1"/>
        <pt x="842" y="226" on="1"/>
      </contour>
      <contour>
        <pt x="284" y="368" on="1"/>
        <pt x="700" y="368" on="1"/>
        <pt x="700" y="1447" on="1"/>
        <pt x="284" y="1447" on="1"/>
      </contour>
    </TTGlyph>
    <TTGlyph name="glyph42" xMin="142" yMin="226" xMax="842" yMax="1588">
      <contour>
        <pt x="142" y="226" on="1"/>
        <pt x="142" y="1588" on="1"/>
        <pt x="842" y="1588" on="1"/>
        <pt x="842" y="226" on="1"/>
      </contour>
      <contour>
        <pt x="284" y="368" on="1"/>
        <pt x="700" y="368" on="1"/>
        <pt x="700" y="1447" on="1"/>
        <pt x="284" y="1447" on="1"/>
      </contour>
    </TTGlyph>
    <TTGlyph name="glyph43" xMin="142" yMin="226" xMax="842" yMax="1588">
      <contour>
        <pt x="142" y="226" on="1"/>
        <pt x="142" y="1588" on="1"/>
        <pt x="842" y="1588" on="1"/>
        <pt x="842" y="226" on="1"/>
      </contour>
      <contour>
        <pt x="284" y="368" on="1"/>
        <pt x="700" y="368" on="1"/>
        <pt x="700" y="1447" on="1"/>
        <pt x="284" y="1447" on="1"/>
      </contour>
    </TTGlyph>
    <TTGlyph name="glyph44" xMin="142" yMin="226" xMax="842" yMax="1588">
      <contour>
        <pt x="142" y="226" on="1"/>
        <pt x="142" y="1588" on="1"/>
        <pt x="842" y="1588" on="1"/>
        <pt x="842" y="226" on="1"/>
      </contour>
      <contour>
        <pt x="284" y="368" on="1"/>
        <pt x="700" y="368" on="1"/>
        <pt x="700" y="1447" on="1"/>
        <pt x="284" y="1447" on="1"/>
      </contour>
    </TTGlyph>
    <TTGlyph name="glyph45" xMin="142" yMin="226" xMax="842" yMax="1588">
      <contour>
        <pt x="142" y="226" on="1"/>
        <pt x="142" y="1588" on="1"/>
        <pt x="842" y="1588" on="1"/>
        <pt x="842" y="226" on="1"/>
      </contour>
      <contour>
        <pt x="284" y="368" on="1"/>
        <pt x="700" y="368" on="1"/>
        <pt x="700" y="1447" on="1"/>
        <pt x="284" y="1447" on="1"/>
      </contour>
    </TTGlyph>
    <TTGlyph name="glyph46" xMin="142" yMin="226" xMax="842" yMax="1588">
      <contour>
        <pt x="142" y="226" on="1"/>
        <pt x="142" y="1588" on="1"/>
        <pt x="842" y="1588" on="1"/>
        <pt x="842" y="226" on="1"/>
      </contour>
      <contour>
        <pt x="284" y="368" on="1"/>
        <pt x="700" y="368" on="1"/>
        <pt x="700" y="1447" on="1"/>
        <pt x="284" y="1447" on="1"/>
      </contour>
    </TTGlyph>
    <TTGlyph name="glyph47" xMin="142" yMin="226" xMax="842" yMax="1588">
      <contour>
        <pt x="142" y="226" on="1"/>
        <pt x="142" y="1588" on="1"/>
        <pt x="842" y="1588" on="1"/>
        <pt x="842" y="226" on="1"/>
      </contour>
      <contour>
        <pt x="284" y="368" on="1"/>
        <pt x="700" y="368" on="1"/>
        <pt x="700" y="1447" on="1"/>
        <pt x="284" y="1447" on="1"/>
      </contour>
    </TTGlyph>
    <TTGlyph name="glyph48" xMin="142" yMin="226" xMax="842" yMax="1588">
      <contour>
        <pt x="142" y="226" on="1"/>
        <pt x="142" y="1588" on="1"/>
        <pt x="842" y="1588" on="1"/>
        <pt x="842" y="226" on="1"/>
      </contour>
      <contour>
        <pt x="284" y="368" on="1"/>
        <pt x="700" y="368" on="1"/>
        <pt x="700" y="1447" on="1"/>
        <pt x="284" y="1447" on="1"/>
      </contour>
    </TTGlyph>
    <TTGlyph name="glyph50" xMin="142" yMin="226" xMax="842" yMax="1588">
      <contour>
        <pt x="142" y="226" on="1"/>
        <pt x="142" y="1588" on="1"/>
        <pt x="842" y="1588" on="1"/>
        <pt x="842" y="226" on="1"/>
      </contour>
      <contour>
        <pt x="284" y="368" on="1"/>
        <pt x="700" y="368" on="1"/>
        <pt x="700" y="1447" on="1"/>
        <pt x="284" y="1447" on="1"/>
      </contour>
    </TTGlyph>
    <TTGlyph name="glyph51" xMin="142" yMin="226" xMax="842" yMax="1588">
      <contour>
        <pt x="142" y="226" on="1"/>
        <pt x="142" y="1588" on="1"/>
        <pt x="842" y="1588" on="1"/>
        <pt x="842" y="226" on="1"/>
      </contour>
      <contour>
        <pt x="284" y="368" on="1"/>
        <pt x="700" y="368" on="1"/>
        <pt x="700" y="1447" on="1"/>
        <pt x="284" y="1447" on="1"/>
      </contour>
    </TTGlyph>
    <TTGlyph name="greater" xMin="142" yMin="226" xMax="842" yMax="1588">
      <contour>
        <pt x="142" y="226" on="1"/>
        <pt x="142" y="1588" on="1"/>
        <pt x="842" y="1588" on="1"/>
        <pt x="842" y="226" on="1"/>
      </contour>
      <contour>
        <pt x="284" y="368" on="1"/>
        <pt x="700" y="368" on="1"/>
        <pt x="700" y="1447" on="1"/>
        <pt x="284" y="1447" on="1"/>
      </contour>
    </TTGlyph>
    <TTGlyph name="hahhamzabovefinal" xMin="142" yMin="226" xMax="842" yMax="1588">
      <contour>
        <pt x="142" y="226" on="1"/>
        <pt x="142" y="1588" on="1"/>
        <pt x="842" y="1588" on="1"/>
        <pt x="842" y="226" on="1"/>
      </contour>
      <contour>
        <pt x="284" y="368" on="1"/>
        <pt x="700" y="368" on="1"/>
        <pt x="700" y="1447" on="1"/>
        <pt x="284" y="1447" on="1"/>
      </contour>
    </TTGlyph>
    <TTGlyph name="hahhamzaboveinitial" xMin="142" yMin="226" xMax="842" yMax="1588">
      <contour>
        <pt x="142" y="226" on="1"/>
        <pt x="142" y="1588" on="1"/>
        <pt x="842" y="1588" on="1"/>
        <pt x="842" y="226" on="1"/>
      </contour>
      <contour>
        <pt x="284" y="368" on="1"/>
        <pt x="700" y="368" on="1"/>
        <pt x="700" y="1447" on="1"/>
        <pt x="284" y="1447" on="1"/>
      </contour>
    </TTGlyph>
    <TTGlyph name="hahhamzabovemedial" xMin="142" yMin="226" xMax="842" yMax="1588">
      <contour>
        <pt x="142" y="226" on="1"/>
        <pt x="142" y="1588" on="1"/>
        <pt x="842" y="1588" on="1"/>
        <pt x="842" y="226" on="1"/>
      </contour>
      <contour>
        <pt x="284" y="368" on="1"/>
        <pt x="700" y="368" on="1"/>
        <pt x="700" y="1447" on="1"/>
        <pt x="284" y="1447" on="1"/>
      </contour>
    </TTGlyph>
    <TTGlyph name="hahthreedotsabovefinal" xMin="142" yMin="226" xMax="842" yMax="1588">
      <contour>
        <pt x="142" y="226" on="1"/>
        <pt x="142" y="1588" on="1"/>
        <pt x="842" y="1588" on="1"/>
        <pt x="842" y="226" on="1"/>
      </contour>
      <contour>
        <pt x="284" y="368" on="1"/>
        <pt x="700" y="368" on="1"/>
        <pt x="700" y="1447" on="1"/>
        <pt x="284" y="1447" on="1"/>
      </contour>
    </TTGlyph>
    <TTGlyph name="hahthreedotsaboveinitial" xMin="142" yMin="226" xMax="842" yMax="1588">
      <contour>
        <pt x="142" y="226" on="1"/>
        <pt x="142" y="1588" on="1"/>
        <pt x="842" y="1588" on="1"/>
        <pt x="842" y="226" on="1"/>
      </contour>
      <contour>
        <pt x="284" y="368" on="1"/>
        <pt x="700" y="368" on="1"/>
        <pt x="700" y="1447" on="1"/>
        <pt x="284" y="1447" on="1"/>
      </contour>
    </TTGlyph>
    <TTGlyph name="hahthreedotsabovemedial" xMin="142" yMin="226" xMax="842" yMax="1588">
      <contour>
        <pt x="142" y="226" on="1"/>
        <pt x="142" y="1588" on="1"/>
        <pt x="842" y="1588" on="1"/>
        <pt x="842" y="226" on="1"/>
      </contour>
      <contour>
        <pt x="284" y="368" on="1"/>
        <pt x="700" y="368" on="1"/>
        <pt x="700" y="1447" on="1"/>
        <pt x="284" y="1447" on="1"/>
      </contour>
    </TTGlyph>
    <TTGlyph name="hehdoachashmeefinalarabic" xMin="142" yMin="226" xMax="842" yMax="1588">
      <contour>
        <pt x="142" y="226" on="1"/>
        <pt x="142" y="1588" on="1"/>
        <pt x="842" y="1588" on="1"/>
        <pt x="842" y="226" on="1"/>
      </contour>
      <contour>
        <pt x="284" y="368" on="1"/>
        <pt x="700" y="368" on="1"/>
        <pt x="700" y="1447" on="1"/>
        <pt x="284" y="1447" on="1"/>
      </contour>
    </TTGlyph>
    <TTGlyph name="hehdoachashmeeinitialarabic" xMin="142" yMin="226" xMax="842" yMax="1588">
      <contour>
        <pt x="142" y="226" on="1"/>
        <pt x="142" y="1588" on="1"/>
        <pt x="842" y="1588" on="1"/>
        <pt x="842" y="226" on="1"/>
      </contour>
      <contour>
        <pt x="284" y="368" on="1"/>
        <pt x="700" y="368" on="1"/>
        <pt x="700" y="1447" on="1"/>
        <pt x="284" y="1447" on="1"/>
      </contour>
    </TTGlyph>
    <TTGlyph name="hehdoachashmeemedialarabic" xMin="142" yMin="226" xMax="842" yMax="1588">
      <contour>
        <pt x="142" y="226" on="1"/>
        <pt x="142" y="1588" on="1"/>
        <pt x="842" y="1588" on="1"/>
        <pt x="842" y="226" on="1"/>
      </contour>
      <contour>
        <pt x="284" y="368" on="1"/>
        <pt x="700" y="368" on="1"/>
        <pt x="700" y="1447" on="1"/>
        <pt x="284" y="1447" on="1"/>
      </contour>
    </TTGlyph>
    <TTGlyph name="hehfinalaltonearabic" xMin="142" yMin="226" xMax="842" yMax="1588">
      <contour>
        <pt x="142" y="226" on="1"/>
        <pt x="142" y="1588" on="1"/>
        <pt x="842" y="1588" on="1"/>
        <pt x="842" y="226" on="1"/>
      </contour>
      <contour>
        <pt x="284" y="368" on="1"/>
        <pt x="700" y="368" on="1"/>
        <pt x="700" y="1447" on="1"/>
        <pt x="284" y="1447" on="1"/>
      </contour>
    </TTGlyph>
    <TTGlyph name="hehhamzaabovefinalarabic" xMin="142" yMin="226" xMax="842" yMax="1588">
      <contour>
        <pt x="142" y="226" on="1"/>
        <pt x="142" y="1588" on="1"/>
        <pt x="842" y="1588" on="1"/>
        <pt x="842" y="226" on="1"/>
      </contour>
      <contour>
        <pt x="284" y="368" on="1"/>
        <pt x="700" y="368" on="1"/>
        <pt x="700" y="1447" on="1"/>
        <pt x="284" y="1447" on="1"/>
      </contour>
    </TTGlyph>
    <TTGlyph name="hehinitialaltonearabic" xMin="142" yMin="226" xMax="842" yMax="1588">
      <contour>
        <pt x="142" y="226" on="1"/>
        <pt x="142" y="1588" on="1"/>
        <pt x="842" y="1588" on="1"/>
        <pt x="842" y="226" on="1"/>
      </contour>
      <contour>
        <pt x="284" y="368" on="1"/>
        <pt x="700" y="368" on="1"/>
        <pt x="700" y="1447" on="1"/>
        <pt x="284" y="1447" on="1"/>
      </contour>
    </TTGlyph>
    <TTGlyph name="hehmedialaltonearabic" xMin="142" yMin="226" xMax="842" yMax="1588">
      <contour>
        <pt x="142" y="226" on="1"/>
        <pt x="142" y="1588" on="1"/>
        <pt x="842" y="1588" on="1"/>
        <pt x="842" y="226" on="1"/>
      </contour>
      <contour>
        <pt x="284" y="368" on="1"/>
        <pt x="700" y="368" on="1"/>
        <pt x="700" y="1447" on="1"/>
        <pt x="284" y="1447" on="1"/>
      </contour>
    </TTGlyph>
    <TTGlyph name="hyphen" xMin="81" yMin="-5" xMax="1025" yMax="1471">
      <contour>
        <pt x="932" y="1446" on="1"/>
        <pt x="932" y="1400" on="0"/>
        <pt x="906" y="1383" on="1"/>
        <pt x="743" y="1284" on="0"/>
        <pt x="416" y="1082" on="1"/>
        <pt x="381" y="1082" on="1"/>
        <pt x="369" y="1095" on="0"/>
        <pt x="369" y="1112" on="1"/>
        <pt x="369" y="1167" on="0"/>
        <pt x="580" y="1296" on="1"/>
        <pt x="727" y="1384" on="0"/>
        <pt x="875" y="1471" on="1"/>
        <pt x="920" y="1471" on="1"/>
        <pt x="932" y="1470" on="0"/>
      </contour>
      <contour>
        <pt x="1025" y="215" on="1"/>
        <pt x="1025" y="176" on="0"/>
        <pt x="981" y="66" on="1"/>
        <pt x="857" y="66" on="1"/>
        <pt x="826" y="66" on="0"/>
        <pt x="682" y="138" on="1"/>
        <pt x="666" y="103" on="0"/>
        <pt x="613" y="39" on="1"/>
        <pt x="554" y="-5" on="0"/>
        <pt x="409" y="-5" on="1"/>
        <pt x="314" y="-5" on="0"/>
        <pt x="269" y="20" on="1"/>
        <pt x="215" y="52" on="0"/>
        <pt x="187" y="142" on="1"/>
        <pt x="174" y="179" on="0"/>
        <pt x="159" y="378" on="1"/>
        <pt x="141" y="548" on="0"/>
        <pt x="118" y="881" on="1"/>
        <pt x="117" y="912" on="0"/>
        <pt x="81" y="1092" on="0"/>
        <pt x="81" y="1103" on="1"/>
        <pt x="81" y="1149" on="0"/>
        <pt x="124" y="1215" on="1"/>
        <pt x="161" y="1215" on="1"/>
        <pt x="178" y="1176" on="0"/>
        <pt x="200" y="1098" on="1"/>
        <pt x="216" y="986" on="0"/>
        <pt x="246" y="533" on="0"/>
        <pt x="262" y="421" on="1"/>
        <pt x="268" y="364" on="0"/>
        <pt x="288" y="247" on="1"/>
        <pt x="309" y="159" on="0"/>
        <pt x="460" y="159" on="1"/>
        <pt x="551" y="159" on="0"/>
        <pt x="586" y="181" on="1"/>
        <pt x="589" y="183" on="0"/>
        <pt x="715" y="356" on="1"/>
        <pt x="826" y="507" on="0"/>
        <pt x="897" y="507" on="1"/>
        <pt x="949" y="507" on="0"/>
        <pt x="992" y="370" on="1"/>
        <pt x="1025" y="264" on="0"/>
      </contour>
      <contour>
        <pt x="880" y="251" on="1"/>
        <pt x="874" y="287" on="0"/>
        <pt x="858" y="333" on="1"/>
        <pt x="823" y="333" on="1"/>
        <pt x="794" y="318" on="0"/>
        <pt x="790" y="284" on="1"/>
        <pt x="794" y="283" on="0"/>
        <pt x="816" y="264" on="1"/>
        <pt x="831" y="251" on="0"/>
        <pt x="847" y="251" on="1"/>
      </contour>
    </TTGlyph>
    <TTGlyph name="irghizufinal" xMin="142" yMin="226" xMax="842" yMax="1588">
      <contour>
        <pt x="142" y="226" on="1"/>
        <pt x="142" y="1588" on="1"/>
        <pt x="842" y="1588" on="1"/>
        <pt x="842" y="226" on="1"/>
      </contour>
      <contour>
        <pt x="284" y="368" on="1"/>
        <pt x="700" y="368" on="1"/>
        <pt x="700" y="1447" on="1"/>
        <pt x="284" y="1447" on="1"/>
      </contour>
    </TTGlyph>
    <TTGlyph name="jehfinalarabic" xMin="142" yMin="226" xMax="842" yMax="1588">
      <contour>
        <pt x="142" y="226" on="1"/>
        <pt x="142" y="1588" on="1"/>
        <pt x="842" y="1588" on="1"/>
        <pt x="842" y="226" on="1"/>
      </contour>
      <contour>
        <pt x="284" y="368" on="1"/>
        <pt x="700" y="368" on="1"/>
        <pt x="700" y="1447" on="1"/>
        <pt x="284" y="1447" on="1"/>
      </contour>
    </TTGlyph>
    <TTGlyph name="kafringfinal" xMin="142" yMin="226" xMax="842" yMax="1588">
      <contour>
        <pt x="142" y="226" on="1"/>
        <pt x="142" y="1588" on="1"/>
        <pt x="842" y="1588" on="1"/>
        <pt x="842" y="226" on="1"/>
      </contour>
      <contour>
        <pt x="284" y="368" on="1"/>
        <pt x="700" y="368" on="1"/>
        <pt x="700" y="1447" on="1"/>
        <pt x="284" y="1447" on="1"/>
      </contour>
    </TTGlyph>
    <TTGlyph name="kafringinitial" xMin="142" yMin="226" xMax="842" yMax="1588">
      <contour>
        <pt x="142" y="226" on="1"/>
        <pt x="142" y="1588" on="1"/>
        <pt x="842" y="1588" on="1"/>
        <pt x="842" y="226" on="1"/>
      </contour>
      <contour>
        <pt x="284" y="368" on="1"/>
        <pt x="700" y="368" on="1"/>
        <pt x="700" y="1447" on="1"/>
        <pt x="284" y="1447" on="1"/>
      </contour>
    </TTGlyph>
    <TTGlyph name="kafringmedial" xMin="142" yMin="226" xMax="842" yMax="1588">
      <contour>
        <pt x="142" y="226" on="1"/>
        <pt x="142" y="1588" on="1"/>
        <pt x="842" y="1588" on="1"/>
        <pt x="842" y="226" on="1"/>
      </contour>
      <contour>
        <pt x="284" y="368" on="1"/>
        <pt x="700" y="368" on="1"/>
        <pt x="700" y="1447" on="1"/>
        <pt x="284" y="1447" on="1"/>
      </contour>
    </TTGlyph>
    <TTGlyph name="kashidaautoarabic" xMin="142" yMin="226" xMax="842" yMax="1588">
      <contour>
        <pt x="142" y="226" on="1"/>
        <pt x="142" y="1588" on="1"/>
        <pt x="842" y="1588" on="1"/>
        <pt x="842" y="226" on="1"/>
      </contour>
      <contour>
        <pt x="284" y="368" on="1"/>
        <pt x="700" y="368" on="1"/>
        <pt x="700" y="1447" on="1"/>
        <pt x="284" y="1447" on="1"/>
      </contour>
    </TTGlyph>
    <TTGlyph name="kashidaautonosidebearingarabic" xMin="142" yMin="226" xMax="842" yMax="1588">
      <contour>
        <pt x="142" y="226" on="1"/>
        <pt x="142" y="1588" on="1"/>
        <pt x="842" y="1588" on="1"/>
        <pt x="842" y="226" on="1"/>
      </contour>
      <contour>
        <pt x="284" y="368" on="1"/>
        <pt x="700" y="368" on="1"/>
        <pt x="700" y="1447" on="1"/>
        <pt x="284" y="1447" on="1"/>
      </contour>
    </TTGlyph>
    <TTGlyph name="kehehfinalarabic" xMin="142" yMin="226" xMax="842" yMax="1588">
      <contour>
        <pt x="142" y="226" on="1"/>
        <pt x="142" y="1588" on="1"/>
        <pt x="842" y="1588" on="1"/>
        <pt x="842" y="226" on="1"/>
      </contour>
      <contour>
        <pt x="284" y="368" on="1"/>
        <pt x="700" y="368" on="1"/>
        <pt x="700" y="1447" on="1"/>
        <pt x="284" y="1447" on="1"/>
      </contour>
    </TTGlyph>
    <TTGlyph name="kehehinitialarabic" xMin="142" yMin="226" xMax="842" yMax="1588">
      <contour>
        <pt x="142" y="226" on="1"/>
        <pt x="142" y="1588" on="1"/>
        <pt x="842" y="1588" on="1"/>
        <pt x="842" y="226" on="1"/>
      </contour>
      <contour>
        <pt x="284" y="368" on="1"/>
        <pt x="700" y="368" on="1"/>
        <pt x="700" y="1447" on="1"/>
        <pt x="284" y="1447" on="1"/>
      </contour>
    </TTGlyph>
    <TTGlyph name="kehehmedialarabic" xMin="142" yMin="226" xMax="842" yMax="1588">
      <contour>
        <pt x="142" y="226" on="1"/>
        <pt x="142" y="1588" on="1"/>
        <pt x="842" y="1588" on="1"/>
        <pt x="842" y="226" on="1"/>
      </contour>
      <contour>
        <pt x="284" y="368" on="1"/>
        <pt x="700" y="368" on="1"/>
        <pt x="700" y="1447" on="1"/>
        <pt x="284" y="1447" on="1"/>
      </contour>
    </TTGlyph>
    <TTGlyph name="kirghizyifinal" xMin="142" yMin="226" xMax="842" yMax="1588">
      <contour>
        <pt x="142" y="226" on="1"/>
        <pt x="142" y="1588" on="1"/>
        <pt x="842" y="1588" on="1"/>
        <pt x="842" y="226" on="1"/>
      </contour>
      <contour>
        <pt x="284" y="368" on="1"/>
        <pt x="700" y="368" on="1"/>
        <pt x="700" y="1447" on="1"/>
        <pt x="284" y="1447" on="1"/>
      </contour>
    </TTGlyph>
    <TTGlyph name="lammeemjeeminitialarabic" xMin="142" yMin="226" xMax="842" yMax="1588">
      <contour>
        <pt x="142" y="226" on="1"/>
        <pt x="142" y="1588" on="1"/>
        <pt x="842" y="1588" on="1"/>
        <pt x="842" y="226" on="1"/>
      </contour>
      <contour>
        <pt x="284" y="368" on="1"/>
        <pt x="700" y="368" on="1"/>
        <pt x="700" y="1447" on="1"/>
        <pt x="284" y="1447" on="1"/>
      </contour>
    </TTGlyph>
    <TTGlyph name="lammeemkhahinitialarabic" xMin="142" yMin="226" xMax="842" yMax="1588">
      <contour>
        <pt x="142" y="226" on="1"/>
        <pt x="142" y="1588" on="1"/>
        <pt x="842" y="1588" on="1"/>
        <pt x="842" y="226" on="1"/>
      </contour>
      <contour>
        <pt x="284" y="368" on="1"/>
        <pt x="700" y="368" on="1"/>
        <pt x="700" y="1447" on="1"/>
        <pt x="284" y="1447" on="1"/>
      </contour>
    </TTGlyph>
    <TTGlyph name="lamthreedotsabovefinal" xMin="142" yMin="226" xMax="842" yMax="1588">
      <contour>
        <pt x="142" y="226" on="1"/>
        <pt x="142" y="1588" on="1"/>
        <pt x="842" y="1588" on="1"/>
        <pt x="842" y="226" on="1"/>
      </contour>
      <contour>
        <pt x="284" y="368" on="1"/>
        <pt x="700" y="368" on="1"/>
        <pt x="700" y="1447" on="1"/>
        <pt x="284" y="1447" on="1"/>
      </contour>
    </TTGlyph>
    <TTGlyph name="lamthreedotsaboveinitial" xMin="142" yMin="226" xMax="842" yMax="1588">
      <contour>
        <pt x="142" y="226" on="1"/>
        <pt x="142" y="1588" on="1"/>
        <pt x="842" y="1588" on="1"/>
        <pt x="842" y="226" on="1"/>
      </contour>
      <contour>
        <pt x="284" y="368" on="1"/>
        <pt x="700" y="368" on="1"/>
        <pt x="700" y="1447" on="1"/>
        <pt x="284" y="1447" on="1"/>
      </contour>
    </TTGlyph>
    <TTGlyph name="lamthreedotsabovemedial" xMin="142" yMin="226" xMax="842" yMax="1588">
      <contour>
        <pt x="142" y="226" on="1"/>
        <pt x="142" y="1588" on="1"/>
        <pt x="842" y="1588" on="1"/>
        <pt x="842" y="226" on="1"/>
      </contour>
      <contour>
        <pt x="284" y="368" on="1"/>
        <pt x="700" y="368" on="1"/>
        <pt x="700" y="1447" on="1"/>
        <pt x="284" y="1447" on="1"/>
      </contour>
    </TTGlyph>
    <TTGlyph name="less" xMin="142" yMin="226" xMax="842" yMax="1588">
      <contour>
        <pt x="142" y="226" on="1"/>
        <pt x="142" y="1588" on="1"/>
        <pt x="842" y="1588" on="1"/>
        <pt x="842" y="226" on="1"/>
      </contour>
      <contour>
        <pt x="284" y="368" on="1"/>
        <pt x="700" y="368" on="1"/>
        <pt x="700" y="1447" on="1"/>
        <pt x="284" y="1447" on="1"/>
      </contour>
    </TTGlyph>
    <TTGlyph name="meemmeemisolatedarabic" xMin="142" yMin="226" xMax="842" yMax="1588">
      <contour>
        <pt x="142" y="226" on="1"/>
        <pt x="142" y="1588" on="1"/>
        <pt x="842" y="1588" on="1"/>
        <pt x="842" y="226" on="1"/>
      </contour>
      <contour>
        <pt x="284" y="368" on="1"/>
        <pt x="700" y="368" on="1"/>
        <pt x="700" y="1447" on="1"/>
        <pt x="284" y="1447" on="1"/>
      </contour>
    </TTGlyph>
    <TTGlyph name="multiply" xMin="142" yMin="226" xMax="842" yMax="1588">
      <contour>
        <pt x="142" y="226" on="1"/>
        <pt x="142" y="1588" on="1"/>
        <pt x="842" y="1588" on="1"/>
        <pt x="842" y="226" on="1"/>
      </contour>
      <contour>
        <pt x="284" y="368" on="1"/>
        <pt x="700" y="368" on="1"/>
        <pt x="700" y="1447" on="1"/>
        <pt x="284" y="1447" on="1"/>
      </contour>
    </TTGlyph>
    <TTGlyph name="noonghunnafinalarabic" xMin="142" yMin="226" xMax="842" yMax="1588">
      <contour>
        <pt x="142" y="226" on="1"/>
        <pt x="142" y="1588" on="1"/>
        <pt x="842" y="1588" on="1"/>
        <pt x="842" y="226" on="1"/>
      </contour>
      <contour>
        <pt x="284" y="368" on="1"/>
        <pt x="700" y="368" on="1"/>
        <pt x="700" y="1447" on="1"/>
        <pt x="284" y="1447" on="1"/>
      </contour>
    </TTGlyph>
    <TTGlyph name="noonjeemisolatedarabic" xMin="142" yMin="226" xMax="842" yMax="1588">
      <contour>
        <pt x="142" y="226" on="1"/>
        <pt x="142" y="1588" on="1"/>
        <pt x="842" y="1588" on="1"/>
        <pt x="842" y="226" on="1"/>
      </contour>
      <contour>
        <pt x="284" y="368" on="1"/>
        <pt x="700" y="368" on="1"/>
        <pt x="700" y="1447" on="1"/>
        <pt x="284" y="1447" on="1"/>
      </contour>
    </TTGlyph>
    <TTGlyph name="noonmeemisolatedarabic" xMin="142" yMin="226" xMax="842" yMax="1588">
      <contour>
        <pt x="142" y="226" on="1"/>
        <pt x="142" y="1588" on="1"/>
        <pt x="842" y="1588" on="1"/>
        <pt x="842" y="226" on="1"/>
      </contour>
      <contour>
        <pt x="284" y="368" on="1"/>
        <pt x="700" y="368" on="1"/>
        <pt x="700" y="1447" on="1"/>
        <pt x="284" y="1447" on="1"/>
      </contour>
    </TTGlyph>
    <TTGlyph name="noonringfinal" xMin="142" yMin="226" xMax="842" yMax="1588">
      <contour>
        <pt x="142" y="226" on="1"/>
        <pt x="142" y="1588" on="1"/>
        <pt x="842" y="1588" on="1"/>
        <pt x="842" y="226" on="1"/>
      </contour>
      <contour>
        <pt x="284" y="368" on="1"/>
        <pt x="700" y="368" on="1"/>
        <pt x="700" y="1447" on="1"/>
        <pt x="284" y="1447" on="1"/>
      </contour>
    </TTGlyph>
    <TTGlyph name="noonringinitial" xMin="142" yMin="226" xMax="842" yMax="1588">
      <contour>
        <pt x="142" y="226" on="1"/>
        <pt x="142" y="1588" on="1"/>
        <pt x="842" y="1588" on="1"/>
        <pt x="842" y="226" on="1"/>
      </contour>
      <contour>
        <pt x="284" y="368" on="1"/>
        <pt x="700" y="368" on="1"/>
        <pt x="700" y="1447" on="1"/>
        <pt x="284" y="1447" on="1"/>
      </contour>
    </TTGlyph>
    <TTGlyph name="noonringmedial" xMin="142" yMin="226" xMax="842" yMax="1588">
      <contour>
        <pt x="142" y="226" on="1"/>
        <pt x="142" y="1588" on="1"/>
        <pt x="842" y="1588" on="1"/>
        <pt x="842" y="226" on="1"/>
      </contour>
      <contour>
        <pt x="284" y="368" on="1"/>
        <pt x="700" y="368" on="1"/>
        <pt x="700" y="1447" on="1"/>
        <pt x="284" y="1447" on="1"/>
      </contour>
    </TTGlyph>
    <TTGlyph name="numbersign" xMin="142" yMin="226" xMax="842" yMax="1588">
      <contour>
        <pt x="142" y="226" on="1"/>
        <pt x="142" y="1588" on="1"/>
        <pt x="842" y="1588" on="1"/>
        <pt x="842" y="226" on="1"/>
      </contour>
      <contour>
        <pt x="284" y="368" on="1"/>
        <pt x="700" y="368" on="1"/>
        <pt x="700" y="1447" on="1"/>
        <pt x="284" y="1447" on="1"/>
      </contour>
    </TTGlyph>
    <TTGlyph name="parenleft" xMin="142" yMin="226" xMax="842" yMax="1588">
      <contour>
        <pt x="142" y="226" on="1"/>
        <pt x="142" y="1588" on="1"/>
        <pt x="842" y="1588" on="1"/>
        <pt x="842" y="226" on="1"/>
      </contour>
      <contour>
        <pt x="284" y="368" on="1"/>
        <pt x="700" y="368" on="1"/>
        <pt x="700" y="1447" on="1"/>
        <pt x="284" y="1447" on="1"/>
      </contour>
    </TTGlyph>
    <TTGlyph name="parenright" xMin="142" yMin="226" xMax="842" yMax="1588">
      <contour>
        <pt x="142" y="226" on="1"/>
        <pt x="142" y="1588" on="1"/>
        <pt x="842" y="1588" on="1"/>
        <pt x="842" y="226" on="1"/>
      </contour>
      <contour>
        <pt x="284" y="368" on="1"/>
        <pt x="700" y="368" on="1"/>
        <pt x="700" y="1447" on="1"/>
        <pt x="284" y="1447" on="1"/>
      </contour>
    </TTGlyph>
    <TTGlyph name="pashtoefinal" xMin="142" yMin="226" xMax="842" yMax="1588">
      <contour>
        <pt x="142" y="226" on="1"/>
        <pt x="142" y="1588" on="1"/>
        <pt x="842" y="1588" on="1"/>
        <pt x="842" y="226" on="1"/>
      </contour>
      <contour>
        <pt x="284" y="368" on="1"/>
        <pt x="700" y="368" on="1"/>
        <pt x="700" y="1447" on="1"/>
        <pt x="284" y="1447" on="1"/>
      </contour>
    </TTGlyph>
    <TTGlyph name="pashtoeinitial" xMin="142" yMin="226" xMax="842" yMax="1588">
      <contour>
        <pt x="142" y="226" on="1"/>
        <pt x="142" y="1588" on="1"/>
        <pt x="842" y="1588" on="1"/>
        <pt x="842" y="226" on="1"/>
      </contour>
      <contour>
        <pt x="284" y="368" on="1"/>
        <pt x="700" y="368" on="1"/>
        <pt x="700" y="1447" on="1"/>
        <pt x="284" y="1447" on="1"/>
      </contour>
    </TTGlyph>
    <TTGlyph name="pashtoemedial" xMin="142" yMin="226" xMax="842" yMax="1588">
      <contour>
        <pt x="142" y="226" on="1"/>
        <pt x="142" y="1588" on="1"/>
        <pt x="842" y="1588" on="1"/>
        <pt x="842" y="226" on="1"/>
      </contour>
      <contour>
        <pt x="284" y="368" on="1"/>
        <pt x="700" y="368" on="1"/>
        <pt x="700" y="1447" on="1"/>
        <pt x="284" y="1447" on="1"/>
      </contour>
    </TTGlyph>
    <TTGlyph name="pehfinalarabic" xMin="142" yMin="226" xMax="842" yMax="1588">
      <contour>
        <pt x="142" y="226" on="1"/>
        <pt x="142" y="1588" on="1"/>
        <pt x="842" y="1588" on="1"/>
        <pt x="842" y="226" on="1"/>
      </contour>
      <contour>
        <pt x="284" y="368" on="1"/>
        <pt x="700" y="368" on="1"/>
        <pt x="700" y="1447" on="1"/>
        <pt x="284" y="1447" on="1"/>
      </contour>
    </TTGlyph>
    <TTGlyph name="pehinitialarabic" xMin="142" yMin="226" xMax="842" yMax="1588">
      <contour>
        <pt x="142" y="226" on="1"/>
        <pt x="142" y="1588" on="1"/>
        <pt x="842" y="1588" on="1"/>
        <pt x="842" y="226" on="1"/>
      </contour>
      <contour>
        <pt x="284" y="368" on="1"/>
        <pt x="700" y="368" on="1"/>
        <pt x="700" y="1447" on="1"/>
        <pt x="284" y="1447" on="1"/>
      </contour>
    </TTGlyph>
    <TTGlyph name="pehmedialarabic" xMin="142" yMin="226" xMax="842" yMax="1588">
      <contour>
        <pt x="142" y="226" on="1"/>
        <pt x="142" y="1588" on="1"/>
        <pt x="842" y="1588" on="1"/>
        <pt x="842" y="226" on="1"/>
      </contour>
      <contour>
        <pt x="284" y="368" on="1"/>
        <pt x="700" y="368" on="1"/>
        <pt x="700" y="1447" on="1"/>
        <pt x="284" y="1447" on="1"/>
      </contour>
    </TTGlyph>
    <TTGlyph name="percent" xMin="142" yMin="226" xMax="842" yMax="1588">
      <contour>
        <pt x="142" y="226" on="1"/>
        <pt x="142" y="1588" on="1"/>
        <pt x="842" y="1588" on="1"/>
        <pt x="842" y="226" on="1"/>
      </contour>
      <contour>
        <pt x="284" y="368" on="1"/>
        <pt x="700" y="368" on="1"/>
        <pt x="700" y="1447" on="1"/>
        <pt x="284" y="1447" on="1"/>
      </contour>
    </TTGlyph>
    <TTGlyph name="period" xMin="142" yMin="226" xMax="842" yMax="1588">
      <contour>
        <pt x="142" y="226" on="1"/>
        <pt x="142" y="1588" on="1"/>
        <pt x="842" y="1588" on="1"/>
        <pt x="842" y="226" on="1"/>
      </contour>
      <contour>
        <pt x="284" y="368" on="1"/>
        <pt x="700" y="368" on="1"/>
        <pt x="700" y="1447" on="1"/>
        <pt x="284" y="1447" on="1"/>
      </contour>
    </TTGlyph>
    <TTGlyph name="plus" xMin="142" yMin="226" xMax="842" yMax="1588">
      <contour>
        <pt x="142" y="226" on="1"/>
        <pt x="142" y="1588" on="1"/>
        <pt x="842" y="1588" on="1"/>
        <pt x="842" y="226" on="1"/>
      </contour>
      <contour>
        <pt x="284" y="368" on="1"/>
        <pt x="700" y="368" on="1"/>
        <pt x="700" y="1447" on="1"/>
        <pt x="284" y="1447" on="1"/>
      </contour>
    </TTGlyph>
    <TTGlyph name="quotedbl" xMin="142" yMin="226" xMax="842" yMax="1588">
      <contour>
        <pt x="142" y="226" on="1"/>
        <pt x="142" y="1588" on="1"/>
        <pt x="842" y="1588" on="1"/>
        <pt x="842" y="226" on="1"/>
      </contour>
      <contour>
        <pt x="284" y="368" on="1"/>
        <pt x="700" y="368" on="1"/>
        <pt x="700" y="1447" on="1"/>
        <pt x="284" y="1447" on="1"/>
      </contour>
    </TTGlyph>
    <TTGlyph name="quotesingle" xMin="142" yMin="226" xMax="842" yMax="1588">
      <contour>
        <pt x="142" y="226" on="1"/>
        <pt x="142" y="1588" on="1"/>
        <pt x="842" y="1588" on="1"/>
        <pt x="842" y="226" on="1"/>
      </contour>
      <contour>
        <pt x="284" y="368" on="1"/>
        <pt x="700" y="368" on="1"/>
        <pt x="700" y="1447" on="1"/>
        <pt x="284" y="1447" on="1"/>
      </contour>
    </TTGlyph>
    <TTGlyph name="rehdotbelowdotabovefinal" xMin="142" yMin="226" xMax="842" yMax="1588">
      <contour>
        <pt x="142" y="226" on="1"/>
        <pt x="142" y="1588" on="1"/>
        <pt x="842" y="1588" on="1"/>
        <pt x="842" y="226" on="1"/>
      </contour>
      <contour>
        <pt x="284" y="368" on="1"/>
        <pt x="700" y="368" on="1"/>
        <pt x="700" y="1447" on="1"/>
        <pt x="284" y="1447" on="1"/>
      </contour>
    </TTGlyph>
    <TTGlyph name="rehringfinal" xMin="142" yMin="226" xMax="842" yMax="1588">
      <contour>
        <pt x="142" y="226" on="1"/>
        <pt x="142" y="1588" on="1"/>
        <pt x="842" y="1588" on="1"/>
        <pt x="842" y="226" on="1"/>
      </contour>
      <contour>
        <pt x="284" y="368" on="1"/>
        <pt x="700" y="368" on="1"/>
        <pt x="700" y="1447" on="1"/>
        <pt x="284" y="1447" on="1"/>
      </contour>
    </TTGlyph>
    <TTGlyph name="rrehfinalarabic" xMin="142" yMin="226" xMax="842" yMax="1588">
      <contour>
        <pt x="142" y="226" on="1"/>
        <pt x="142" y="1588" on="1"/>
        <pt x="842" y="1588" on="1"/>
        <pt x="842" y="226" on="1"/>
      </contour>
      <contour>
        <pt x="284" y="368" on="1"/>
        <pt x="700" y="368" on="1"/>
        <pt x="700" y="1447" on="1"/>
        <pt x="284" y="1447" on="1"/>
      </contour>
    </TTGlyph>
    <TTGlyph name="seendotbelowdotabovefinal" xMin="142" yMin="226" xMax="842" yMax="1588">
      <contour>
        <pt x="142" y="226" on="1"/>
        <pt x="142" y="1588" on="1"/>
        <pt x="842" y="1588" on="1"/>
        <pt x="842" y="226" on="1"/>
      </contour>
      <contour>
        <pt x="284" y="368" on="1"/>
        <pt x="700" y="368" on="1"/>
        <pt x="700" y="1447" on="1"/>
        <pt x="284" y="1447" on="1"/>
      </contour>
    </TTGlyph>
    <TTGlyph name="seendotbelowdotaboveinitial" xMin="142" yMin="226" xMax="842" yMax="1588">
      <contour>
        <pt x="142" y="226" on="1"/>
        <pt x="142" y="1588" on="1"/>
        <pt x="842" y="1588" on="1"/>
        <pt x="842" y="226" on="1"/>
      </contour>
      <contour>
        <pt x="284" y="368" on="1"/>
        <pt x="700" y="368" on="1"/>
        <pt x="700" y="1447" on="1"/>
        <pt x="284" y="1447" on="1"/>
      </contour>
    </TTGlyph>
    <TTGlyph name="seendotbelowdotabovemedial" xMin="142" yMin="226" xMax="842" yMax="1588">
      <contour>
        <pt x="142" y="226" on="1"/>
        <pt x="142" y="1588" on="1"/>
        <pt x="842" y="1588" on="1"/>
        <pt x="842" y="226" on="1"/>
      </contour>
      <contour>
        <pt x="284" y="368" on="1"/>
        <pt x="700" y="368" on="1"/>
        <pt x="700" y="1447" on="1"/>
        <pt x="284" y="1447" on="1"/>
      </contour>
    </TTGlyph>
    <TTGlyph name="shaddadammaarabic" xMin="142" yMin="226" xMax="842" yMax="1588">
      <contour>
        <pt x="142" y="226" on="1"/>
        <pt x="142" y="1588" on="1"/>
        <pt x="842" y="1588" on="1"/>
        <pt x="842" y="226" on="1"/>
      </contour>
      <contour>
        <pt x="284" y="368" on="1"/>
        <pt x="700" y="368" on="1"/>
        <pt x="700" y="1447" on="1"/>
        <pt x="284" y="1447" on="1"/>
      </contour>
    </TTGlyph>
    <TTGlyph name="shaddadammatanarabic" xMin="142" yMin="226" xMax="842" yMax="1588">
      <contour>
        <pt x="142" y="226" on="1"/>
        <pt x="142" y="1588" on="1"/>
        <pt x="842" y="1588" on="1"/>
        <pt x="842" y="226" on="1"/>
      </contour>
      <contour>
        <pt x="284" y="368" on="1"/>
        <pt x="700" y="368" on="1"/>
        <pt x="700" y="1447" on="1"/>
        <pt x="284" y="1447" on="1"/>
      </contour>
    </TTGlyph>
    <TTGlyph name="shaddafathaarabic" xMin="142" yMin="226" xMax="842" yMax="1588">
      <contour>
        <pt x="142" y="226" on="1"/>
        <pt x="142" y="1588" on="1"/>
        <pt x="842" y="1588" on="1"/>
        <pt x="842" y="226" on="1"/>
      </contour>
      <contour>
        <pt x="284" y="368" on="1"/>
        <pt x="700" y="368" on="1"/>
        <pt x="700" y="1447" on="1"/>
        <pt x="284" y="1447" on="1"/>
      </contour>
    </TTGlyph>
    <TTGlyph name="shaddakasraarabic" xMin="142" yMin="226" xMax="842" yMax="1588">
      <contour>
        <pt x="142" y="226" on="1"/>
        <pt x="142" y="1588" on="1"/>
        <pt x="842" y="1588" on="1"/>
        <pt x="842" y="226" on="1"/>
      </contour>
      <contour>
        <pt x="284" y="368" on="1"/>
        <pt x="700" y="368" on="1"/>
        <pt x="700" y="1447" on="1"/>
        <pt x="284" y="1447" on="1"/>
      </contour>
    </TTGlyph>
    <TTGlyph name="shaddakasratanarabic" xMin="142" yMin="226" xMax="842" yMax="1588">
      <contour>
        <pt x="142" y="226" on="1"/>
        <pt x="142" y="1588" on="1"/>
        <pt x="842" y="1588" on="1"/>
        <pt x="842" y="226" on="1"/>
      </contour>
      <contour>
        <pt x="284" y="368" on="1"/>
        <pt x="700" y="368" on="1"/>
        <pt x="700" y="1447" on="1"/>
        <pt x="284" y="1447" on="1"/>
      </contour>
    </TTGlyph>
    <TTGlyph name="slash" xMin="142" yMin="226" xMax="842" yMax="1588">
      <contour>
        <pt x="142" y="226" on="1"/>
        <pt x="142" y="1588" on="1"/>
        <pt x="842" y="1588" on="1"/>
        <pt x="842" y="226" on="1"/>
      </contour>
      <contour>
        <pt x="284" y="368" on="1"/>
        <pt x="700" y="368" on="1"/>
        <pt x="700" y="1447" on="1"/>
        <pt x="284" y="1447" on="1"/>
      </contour>
    </TTGlyph>
    <TTGlyph name="space" xMin="142" yMin="226" xMax="842" yMax="1588">
      <contour>
        <pt x="142" y="226" on="1"/>
        <pt x="142" y="1588" on="1"/>
        <pt x="842" y="1588" on="1"/>
        <pt x="842" y="226" on="1"/>
      </contour>
      <contour>
        <pt x="284" y="368" on="1"/>
        <pt x="700" y="368" on="1"/>
        <pt x="700" y="1447" on="1"/>
        <pt x="284" y="1447" on="1"/>
      </contour>
    </TTGlyph>
    <TTGlyph name="tchehfinalarabic" xMin="142" yMin="226" xMax="842" yMax="1588">
      <contour>
        <pt x="142" y="226" on="1"/>
        <pt x="142" y="1588" on="1"/>
        <pt x="842" y="1588" on="1"/>
        <pt x="842" y="226" on="1"/>
      </contour>
      <contour>
        <pt x="284" y="368" on="1"/>
        <pt x="700" y="368" on="1"/>
        <pt x="700" y="1447" on="1"/>
        <pt x="284" y="1447" on="1"/>
      </contour>
    </TTGlyph>
    <TTGlyph name="tchehinitialarabic" xMin="142" yMin="226" xMax="842" yMax="1588">
      <contour>
        <pt x="142" y="226" on="1"/>
        <pt x="142" y="1588" on="1"/>
        <pt x="842" y="1588" on="1"/>
        <pt x="842" y="226" on="1"/>
      </contour>
      <contour>
        <pt x="284" y="368" on="1"/>
        <pt x="700" y="368" on="1"/>
        <pt x="700" y="1447" on="1"/>
        <pt x="284" y="1447" on="1"/>
      </contour>
    </TTGlyph>
    <TTGlyph name="tchehmedialarabic" xMin="142" yMin="226" xMax="842" yMax="1588">
      <contour>
        <pt x="142" y="226" on="1"/>
        <pt x="142" y="1588" on="1"/>
        <pt x="842" y="1588" on="1"/>
        <pt x="842" y="226" on="1"/>
      </contour>
      <contour>
        <pt x="284" y="368" on="1"/>
        <pt x="700" y="368" on="1"/>
        <pt x="700" y="1447" on="1"/>
        <pt x="284" y="1447" on="1"/>
      </contour>
    </TTGlyph>
    <TTGlyph name="tehhahisolatedarabic" xMin="142" yMin="226" xMax="842" yMax="1588">
      <contour>
        <pt x="142" y="226" on="1"/>
        <pt x="142" y="1588" on="1"/>
        <pt x="842" y="1588" on="1"/>
        <pt x="842" y="226" on="1"/>
      </contour>
      <contour>
        <pt x="284" y="368" on="1"/>
        <pt x="700" y="368" on="1"/>
        <pt x="700" y="1447" on="1"/>
        <pt x="284" y="1447" on="1"/>
      </contour>
    </TTGlyph>
    <TTGlyph name="tehjeemisolatedarabic" xMin="142" yMin="226" xMax="842" yMax="1588">
      <contour>
        <pt x="142" y="226" on="1"/>
        <pt x="142" y="1588" on="1"/>
        <pt x="842" y="1588" on="1"/>
        <pt x="842" y="226" on="1"/>
      </contour>
      <contour>
        <pt x="284" y="368" on="1"/>
        <pt x="700" y="368" on="1"/>
        <pt x="700" y="1447" on="1"/>
        <pt x="284" y="1447" on="1"/>
      </contour>
    </TTGlyph>
    <TTGlyph name="tehmeemisolatedarabic" xMin="142" yMin="226" xMax="842" yMax="1588">
      <contour>
        <pt x="142" y="226" on="1"/>
        <pt x="142" y="1588" on="1"/>
        <pt x="842" y="1588" on="1"/>
        <pt x="842" y="226" on="1"/>
      </contour>
      <contour>
        <pt x="284" y="368" on="1"/>
        <pt x="700" y="368" on="1"/>
        <pt x="700" y="1447" on="1"/>
        <pt x="284" y="1447" on="1"/>
      </contour>
    </TTGlyph>
    <TTGlyph name="tehnoonfinalarabic" xMin="142" yMin="226" xMax="842" yMax="1588">
      <contour>
        <pt x="142" y="226" on="1"/>
        <pt x="142" y="1588" on="1"/>
        <pt x="842" y="1588" on="1"/>
        <pt x="842" y="226" on="1"/>
      </contour>
      <contour>
        <pt x="284" y="368" on="1"/>
        <pt x="700" y="368" on="1"/>
        <pt x="700" y="1447" on="1"/>
        <pt x="284" y="1447" on="1"/>
      </contour>
    </TTGlyph>
    <TTGlyph name="tehringfinal" xMin="142" yMin="226" xMax="842" yMax="1588">
      <contour>
        <pt x="142" y="226" on="1"/>
        <pt x="142" y="1588" on="1"/>
        <pt x="842" y="1588" on="1"/>
        <pt x="842" y="226" on="1"/>
      </contour>
      <contour>
        <pt x="284" y="368" on="1"/>
        <pt x="700" y="368" on="1"/>
        <pt x="700" y="1447" on="1"/>
        <pt x="284" y="1447" on="1"/>
      </contour>
    </TTGlyph>
    <TTGlyph name="tehringinitial" xMin="142" yMin="226" xMax="842" yMax="1588">
      <contour>
        <pt x="142" y="226" on="1"/>
        <pt x="142" y="1588" on="1"/>
        <pt x="842" y="1588" on="1"/>
        <pt x="842" y="226" on="1"/>
      </contour>
      <contour>
        <pt x="284" y="368" on="1"/>
        <pt x="700" y="368" on="1"/>
        <pt x="700" y="1447" on="1"/>
        <pt x="284" y="1447" on="1"/>
      </contour>
    </TTGlyph>
    <TTGlyph name="tehringmedial" xMin="142" yMin="226" xMax="842" yMax="1588">
      <contour>
        <pt x="142" y="226" on="1"/>
        <pt x="142" y="1588" on="1"/>
        <pt x="842" y="1588" on="1"/>
        <pt x="842" y="226" on="1"/>
      </contour>
      <contour>
        <pt x="284" y="368" on="1"/>
        <pt x="700" y="368" on="1"/>
        <pt x="700" y="1447" on="1"/>
        <pt x="284" y="1447" on="1"/>
      </contour>
    </TTGlyph>
    <TTGlyph name="ttehfinalarabic" xMin="142" yMin="226" xMax="842" yMax="1588">
      <contour>
        <pt x="142" y="226" on="1"/>
        <pt x="142" y="1588" on="1"/>
        <pt x="842" y="1588" on="1"/>
        <pt x="842" y="226" on="1"/>
      </contour>
      <contour>
        <pt x="284" y="368" on="1"/>
        <pt x="700" y="368" on="1"/>
        <pt x="700" y="1447" on="1"/>
        <pt x="284" y="1447" on="1"/>
      </contour>
    </TTGlyph>
    <TTGlyph name="ttehinitialarabic" xMin="142" yMin="226" xMax="842" yMax="1588">
      <contour>
        <pt x="142" y="226" on="1"/>
        <pt x="142" y="1588" on="1"/>
        <pt x="842" y="1588" on="1"/>
        <pt x="842" y="226" on="1"/>
      </contour>
      <contour>
        <pt x="284" y="368" on="1"/>
        <pt x="700" y="368" on="1"/>
        <pt x="700" y="1447" on="1"/>
        <pt x="284" y="1447" on="1"/>
      </contour>
    </TTGlyph>
    <TTGlyph name="ttehmedialarabic" xMin="142" yMin="226" xMax="842" yMax="1588">
      <contour>
        <pt x="142" y="226" on="1"/>
        <pt x="142" y="1588" on="1"/>
        <pt x="842" y="1588" on="1"/>
        <pt x="842" y="226" on="1"/>
      </contour>
      <contour>
        <pt x="284" y="368" on="1"/>
        <pt x="700" y="368" on="1"/>
        <pt x="700" y="1447" on="1"/>
        <pt x="284" y="1447" on="1"/>
      </contour>
    </TTGlyph>
    <TTGlyph name="uni000D" xMin="142" yMin="226" xMax="842" yMax="1588">
      <contour>
        <pt x="142" y="226" on="1"/>
        <pt x="142" y="1588" on="1"/>
        <pt x="842" y="1588" on="1"/>
        <pt x="842" y="226" on="1"/>
      </contour>
      <contour>
        <pt x="284" y="368" on="1"/>
        <pt x="700" y="368" on="1"/>
        <pt x="700" y="1447" on="1"/>
        <pt x="284" y="1447" on="1"/>
      </contour>
    </TTGlyph>
    <TTGlyph name="uni00A0" xMin="142" yMin="226" xMax="842" yMax="1588">
      <contour>
        <pt x="142" y="226" on="1"/>
        <pt x="142" y="1588" on="1"/>
        <pt x="842" y="1588" on="1"/>
        <pt x="842" y="226" on="1"/>
      </contour>
      <contour>
        <pt x="284" y="368" on="1"/>
        <pt x="700" y="368" on="1"/>
        <pt x="700" y="1447" on="1"/>
        <pt x="284" y="1447" on="1"/>
      </contour>
    </TTGlyph>
    <TTGlyph name="uni00AD" xMin="142" yMin="226" xMax="842" yMax="1588">
      <contour>
        <pt x="142" y="226" on="1"/>
        <pt x="142" y="1588" on="1"/>
        <pt x="842" y="1588" on="1"/>
        <pt x="842" y="226" on="1"/>
      </contour>
      <contour>
        <pt x="284" y="368" on="1"/>
        <pt x="700" y="368" on="1"/>
        <pt x="700" y="1447" on="1"/>
        <pt x="284" y="1447" on="1"/>
      </contour>
    </TTGlyph>
    <TTGlyph name="uni0653" xMin="142" yMin="226" xMax="842" yMax="1588">
      <contour>
        <pt x="142" y="226" on="1"/>
        <pt x="142" y="1588" on="1"/>
        <pt x="842" y="1588" on="1"/>
        <pt x="842" y="226" on="1"/>
      </contour>
      <contour>
        <pt x="284" y="368" on="1"/>
        <pt x="700" y="368" on="1"/>
        <pt x="700" y="1447" on="1"/>
        <pt x="284" y="1447" on="1"/>
      </contour>
    </TTGlyph>
    <TTGlyph name="uni0654" xMin="142" yMin="226" xMax="842" yMax="1588">
      <contour>
        <pt x="142" y="226" on="1"/>
        <pt x="142" y="1588" on="1"/>
        <pt x="842" y="1588" on="1"/>
        <pt x="842" y="226" on="1"/>
      </contour>
      <contour>
        <pt x="284" y="368" on="1"/>
        <pt x="700" y="368" on="1"/>
        <pt x="700" y="1447" on="1"/>
        <pt x="284" y="1447" on="1"/>
      </contour>
    </TTGlyph>
    <TTGlyph name="uni0655" xMin="142" yMin="226" xMax="842" yMax="1588">
      <contour>
        <pt x="142" y="226" on="1"/>
        <pt x="142" y="1588" on="1"/>
        <pt x="842" y="1588" on="1"/>
        <pt x="842" y="226" on="1"/>
      </contour>
      <contour>
        <pt x="284" y="368" on="1"/>
        <pt x="700" y="368" on="1"/>
        <pt x="700" y="1447" on="1"/>
        <pt x="284" y="1447" on="1"/>
      </contour>
    </TTGlyph>
    <TTGlyph name="uni066B" xMin="142" yMin="226" xMax="842" yMax="1588">
      <contour>
        <pt x="142" y="226" on="1"/>
        <pt x="142" y="1588" on="1"/>
        <pt x="842" y="1588" on="1"/>
        <pt x="842" y="226" on="1"/>
      </contour>
      <contour>
        <pt x="284" y="368" on="1"/>
        <pt x="700" y="368" on="1"/>
        <pt x="700" y="1447" on="1"/>
        <pt x="284" y="1447" on="1"/>
      </contour>
    </TTGlyph>
    <TTGlyph name="uni066C" xMin="142" yMin="226" xMax="842" yMax="1588">
      <contour>
        <pt x="142" y="226" on="1"/>
        <pt x="142" y="1588" on="1"/>
        <pt x="842" y="1588" on="1"/>
        <pt x="842" y="226" on="1"/>
      </contour>
      <contour>
        <pt x="284" y="368" on="1"/>
        <pt x="700" y="368" on="1"/>
        <pt x="700" y="1447" on="1"/>
        <pt x="284" y="1447" on="1"/>
      </contour>
    </TTGlyph>
    <TTGlyph name="uni0671" xMin="142" yMin="226" xMax="842" yMax="1588">
      <contour>
        <pt x="142" y="226" on="1"/>
        <pt x="142" y="1588" on="1"/>
        <pt x="842" y="1588" on="1"/>
        <pt x="842" y="226" on="1"/>
      </contour>
      <contour>
        <pt x="284" y="368" on="1"/>
        <pt x="700" y="368" on="1"/>
        <pt x="700" y="1447" on="1"/>
        <pt x="284" y="1447" on="1"/>
      </contour>
    </TTGlyph>
    <TTGlyph name="uni067C" xMin="142" yMin="226" xMax="842" yMax="1588">
      <contour>
        <pt x="142" y="226" on="1"/>
        <pt x="142" y="1588" on="1"/>
        <pt x="842" y="1588" on="1"/>
        <pt x="842" y="226" on="1"/>
      </contour>
      <contour>
        <pt x="284" y="368" on="1"/>
        <pt x="700" y="368" on="1"/>
        <pt x="700" y="1447" on="1"/>
        <pt x="284" y="1447" on="1"/>
      </contour>
    </TTGlyph>
    <TTGlyph name="uni0681" xMin="142" yMin="226" xMax="842" yMax="1588">
      <contour>
        <pt x="142" y="226" on="1"/>
        <pt x="142" y="1588" on="1"/>
        <pt x="842" y="1588" on="1"/>
        <pt x="842" y="226" on="1"/>
      </contour>
      <contour>
        <pt x="284" y="368" on="1"/>
        <pt x="700" y="368" on="1"/>
        <pt x="700" y="1447" on="1"/>
        <pt x="284" y="1447" on="1"/>
      </contour>
    </TTGlyph>
    <TTGlyph name="uni0685" xMin="142" yMin="226" xMax="842" yMax="1588">
      <contour>
        <pt x="142" y="226" on="1"/>
        <pt x="142" y="1588" on="1"/>
        <pt x="842" y="1588" on="1"/>
        <pt x="842" y="226" on="1"/>
      </contour>
      <contour>
        <pt x="284" y="368" on="1"/>
        <pt x="700" y="368" on="1"/>
        <pt x="700" y="1447" on="1"/>
        <pt x="284" y="1447" on="1"/>
      </contour>
    </TTGlyph>
    <TTGlyph name="uni0689" xMin="142" yMin="226" xMax="842" yMax="1588">
      <contour>
        <pt x="142" y="226" on="1"/>
        <pt x="142" y="1588" on="1"/>
        <pt x="842" y="1588" on="1"/>
        <pt x="842" y="226" on="1"/>
      </contour>
      <contour>
        <pt x="284" y="368" on="1"/>
        <pt x="700" y="368" on="1"/>
        <pt x="700" y="1447" on="1"/>
        <pt x="284" y="1447" on="1"/>
      </contour>
    </TTGlyph>
    <TTGlyph name="uni0693" xMin="142" yMin="226" xMax="842" yMax="1588">
      <contour>
        <pt x="142" y="226" on="1"/>
        <pt x="142" y="1588" on="1"/>
        <pt x="842" y="1588" on="1"/>
        <pt x="842" y="226" on="1"/>
      </contour>
      <contour>
        <pt x="284" y="368" on="1"/>
        <pt x="700" y="368" on="1"/>
        <pt x="700" y="1447" on="1"/>
        <pt x="284" y="1447" on="1"/>
      </contour>
    </TTGlyph>
    <TTGlyph name="uni0696" xMin="142" yMin="226" xMax="842" yMax="1588">
      <contour>
        <pt x="142" y="226" on="1"/>
        <pt x="142" y="1588" on="1"/>
        <pt x="842" y="1588" on="1"/>
        <pt x="842" y="226" on="1"/>
      </contour>
      <contour>
        <pt x="284" y="368" on="1"/>
        <pt x="700" y="368" on="1"/>
        <pt x="700" y="1447" on="1"/>
        <pt x="284" y="1447" on="1"/>
      </contour>
    </TTGlyph>
    <TTGlyph name="uni069A" xMin="142" yMin="226" xMax="842" yMax="1588">
      <contour>
        <pt x="142" y="226" on="1"/>
        <pt x="142" y="1588" on="1"/>
        <pt x="842" y="1588" on="1"/>
        <pt x="842" y="226" on="1"/>
      </contour>
      <contour>
        <pt x="284" y="368" on="1"/>
        <pt x="700" y="368" on="1"/>
        <pt x="700" y="1447" on="1"/>
        <pt x="284" y="1447" on="1"/>
      </contour>
    </TTGlyph>
    <TTGlyph name="uni06A9" xMin="142" yMin="226" xMax="842" yMax="1588">
      <contour>
        <pt x="142" y="226" on="1"/>
        <pt x="142" y="1588" on="1"/>
        <pt x="842" y="1588" on="1"/>
        <pt x="842" y="226" on="1"/>
      </contour>
      <contour>
        <pt x="284" y="368" on="1"/>
        <pt x="700" y="368" on="1"/>
        <pt x="700" y="1447" on="1"/>
        <pt x="284" y="1447" on="1"/>
      </contour>
    </TTGlyph>
    <TTGlyph name="uni06AB" xMin="142" yMin="226" xMax="842" yMax="1588">
      <contour>
        <pt x="142" y="226" on="1"/>
        <pt x="142" y="1588" on="1"/>
        <pt x="842" y="1588" on="1"/>
        <pt x="842" y="226" on="1"/>
      </contour>
      <contour>
        <pt x="284" y="368" on="1"/>
        <pt x="700" y="368" on="1"/>
        <pt x="700" y="1447" on="1"/>
        <pt x="284" y="1447" on="1"/>
      </contour>
    </TTGlyph>
    <TTGlyph name="uni06B7" xMin="142" yMin="226" xMax="842" yMax="1588">
      <contour>
        <pt x="142" y="226" on="1"/>
        <pt x="142" y="1588" on="1"/>
        <pt x="842" y="1588" on="1"/>
        <pt x="842" y="226" on="1"/>
      </contour>
      <contour>
        <pt x="284" y="368" on="1"/>
        <pt x="700" y="368" on="1"/>
        <pt x="700" y="1447" on="1"/>
        <pt x="284" y="1447" on="1"/>
      </contour>
    </TTGlyph>
    <TTGlyph name="uni06BC" xMin="142" yMin="226" xMax="842" yMax="1588">
      <contour>
        <pt x="142" y="226" on="1"/>
        <pt x="142" y="1588" on="1"/>
        <pt x="842" y="1588" on="1"/>
        <pt x="842" y="226" on="1"/>
      </contour>
      <contour>
        <pt x="284" y="368" on="1"/>
        <pt x="700" y="368" on="1"/>
        <pt x="700" y="1447" on="1"/>
        <pt x="284" y="1447" on="1"/>
      </contour>
    </TTGlyph>
    <TTGlyph name="uni06BE" xMin="142" yMin="226" xMax="842" yMax="1588">
      <contour>
        <pt x="142" y="226" on="1"/>
        <pt x="142" y="1588" on="1"/>
        <pt x="842" y="1588" on="1"/>
        <pt x="842" y="226" on="1"/>
      </contour>
      <contour>
        <pt x="284" y="368" on="1"/>
        <pt x="700" y="368" on="1"/>
        <pt x="700" y="1447" on="1"/>
        <pt x="284" y="1447" on="1"/>
      </contour>
    </TTGlyph>
    <TTGlyph name="uni06C2" xMin="142" yMin="226" xMax="842" yMax="1588">
      <contour>
        <pt x="142" y="226" on="1"/>
        <pt x="142" y="1588" on="1"/>
        <pt x="842" y="1588" on="1"/>
        <pt x="842" y="226" on="1"/>
      </contour>
      <contour>
        <pt x="284" y="368" on="1"/>
        <pt x="700" y="368" on="1"/>
        <pt x="700" y="1447" on="1"/>
        <pt x="284" y="1447" on="1"/>
      </contour>
    </TTGlyph>
    <TTGlyph name="uni06C7" xMin="142" yMin="226" xMax="842" yMax="1588">
      <contour>
        <pt x="142" y="226" on="1"/>
        <pt x="142" y="1588" on="1"/>
        <pt x="842" y="1588" on="1"/>
        <pt x="842" y="226" on="1"/>
      </contour>
      <contour>
        <pt x="284" y="368" on="1"/>
        <pt x="700" y="368" on="1"/>
        <pt x="700" y="1447" on="1"/>
        <pt x="284" y="1447" on="1"/>
      </contour>
    </TTGlyph>
    <TTGlyph name="uni06C9" xMin="142" yMin="226" xMax="842" yMax="1588">
      <contour>
        <pt x="142" y="226" on="1"/>
        <pt x="142" y="1588" on="1"/>
        <pt x="842" y="1588" on="1"/>
        <pt x="842" y="226" on="1"/>
      </contour>
      <contour>
        <pt x="284" y="368" on="1"/>
        <pt x="700" y="368" on="1"/>
        <pt x="700" y="1447" on="1"/>
        <pt x="284" y="1447" on="1"/>
      </contour>
    </TTGlyph>
    <TTGlyph name="uni06CC" xMin="142" yMin="226" xMax="842" yMax="1588">
      <contour>
        <pt x="142" y="226" on="1"/>
        <pt x="142" y="1588" on="1"/>
        <pt x="842" y="1588" on="1"/>
        <pt x="842" y="226" on="1"/>
      </contour>
      <contour>
        <pt x="284" y="368" on="1"/>
        <pt x="700" y="368" on="1"/>
        <pt x="700" y="1447" on="1"/>
        <pt x="284" y="1447" on="1"/>
      </contour>
    </TTGlyph>
    <TTGlyph name="uni06CD" xMin="142" yMin="226" xMax="842" yMax="1588">
      <contour>
        <pt x="142" y="226" on="1"/>
        <pt x="142" y="1588" on="1"/>
        <pt x="842" y="1588" on="1"/>
        <pt x="842" y="226" on="1"/>
      </contour>
      <contour>
        <pt x="284" y="368" on="1"/>
        <pt x="700" y="368" on="1"/>
        <pt x="700" y="1447" on="1"/>
        <pt x="284" y="1447" on="1"/>
      </contour>
    </TTGlyph>
    <TTGlyph name="uni06D0" xMin="142" yMin="226" xMax="842" yMax="1588">
      <contour>
        <pt x="142" y="226" on="1"/>
        <pt x="142" y="1588" on="1"/>
        <pt x="842" y="1588" on="1"/>
        <pt x="842" y="226" on="1"/>
      </contour>
      <contour>
        <pt x="284" y="368" on="1"/>
        <pt x="700" y="368" on="1"/>
        <pt x="700" y="1447" on="1"/>
        <pt x="284" y="1447" on="1"/>
      </contour>
    </TTGlyph>
    <TTGlyph name="uni06D1" xMin="142" yMin="226" xMax="842" yMax="1588">
      <contour>
        <pt x="142" y="226" on="1"/>
        <pt x="142" y="1588" on="1"/>
        <pt x="842" y="1588" on="1"/>
        <pt x="842" y="226" on="1"/>
      </contour>
      <contour>
        <pt x="284" y="368" on="1"/>
        <pt x="700" y="368" on="1"/>
        <pt x="700" y="1447" on="1"/>
        <pt x="284" y="1447" on="1"/>
      </contour>
    </TTGlyph>
    <TTGlyph name="uni06D3" xMin="142" yMin="226" xMax="842" yMax="1588">
      <contour>
        <pt x="142" y="226" on="1"/>
        <pt x="142" y="1588" on="1"/>
        <pt x="842" y="1588" on="1"/>
        <pt x="842" y="226" on="1"/>
      </contour>
      <contour>
        <pt x="284" y="368" on="1"/>
        <pt x="700" y="368" on="1"/>
        <pt x="700" y="1447" on="1"/>
        <pt x="284" y="1447" on="1"/>
      </contour>
    </TTGlyph>
    <TTGlyph name="uni06D4" xMin="142" yMin="226" xMax="842" yMax="1588">
      <contour>
        <pt x="142" y="226" on="1"/>
        <pt x="142" y="1588" on="1"/>
        <pt x="842" y="1588" on="1"/>
        <pt x="842" y="226" on="1"/>
      </contour>
      <contour>
        <pt x="284" y="368" on="1"/>
        <pt x="700" y="368" on="1"/>
        <pt x="700" y="1447" on="1"/>
        <pt x="284" y="1447" on="1"/>
      </contour>
    </TTGlyph>
    <TTGlyph name="uni06F0" xMin="142" yMin="226" xMax="842" yMax="1588">
      <contour>
        <pt x="142" y="226" on="1"/>
        <pt x="142" y="1588" on="1"/>
        <pt x="842" y="1588" on="1"/>
        <pt x="842" y="226" on="1"/>
      </contour>
      <contour>
        <pt x="284" y="368" on="1"/>
        <pt x="700" y="368" on="1"/>
        <pt x="700" y="1447" on="1"/>
        <pt x="284" y="1447" on="1"/>
      </contour>
    </TTGlyph>
    <TTGlyph name="uni06F1" xMin="142" yMin="226" xMax="842" yMax="1588">
      <contour>
        <pt x="142" y="226" on="1"/>
        <pt x="142" y="1588" on="1"/>
        <pt x="842" y="1588" on="1"/>
        <pt x="842" y="226" on="1"/>
      </contour>
      <contour>
        <pt x="284" y="368" on="1"/>
        <pt x="700" y="368" on="1"/>
        <pt x="700" y="1447" on="1"/>
        <pt x="284" y="1447" on="1"/>
      </contour>
    </TTGlyph>
    <TTGlyph name="uni06F2" xMin="142" yMin="226" xMax="842" yMax="1588">
      <contour>
        <pt x="142" y="226" on="1"/>
        <pt x="142" y="1588" on="1"/>
        <pt x="842" y="1588" on="1"/>
        <pt x="842" y="226" on="1"/>
      </contour>
      <contour>
        <pt x="284" y="368" on="1"/>
        <pt x="700" y="368" on="1"/>
        <pt x="700" y="1447" on="1"/>
        <pt x="284" y="1447" on="1"/>
      </contour>
    </TTGlyph>
    <TTGlyph name="uni06F3" xMin="142" yMin="226" xMax="842" yMax="1588">
      <contour>
        <pt x="142" y="226" on="1"/>
        <pt x="142" y="1588" on="1"/>
        <pt x="842" y="1588" on="1"/>
        <pt x="842" y="226" on="1"/>
      </contour>
      <contour>
        <pt x="284" y="368" on="1"/>
        <pt x="700" y="368" on="1"/>
        <pt x="700" y="1447" on="1"/>
        <pt x="284" y="1447" on="1"/>
      </contour>
    </TTGlyph>
    <TTGlyph name="uni06F4" xMin="142" yMin="226" xMax="842" yMax="1588">
      <contour>
        <pt x="142" y="226" on="1"/>
        <pt x="142" y="1588" on="1"/>
        <pt x="842" y="1588" on="1"/>
        <pt x="842" y="226" on="1"/>
      </contour>
      <contour>
        <pt x="284" y="368" on="1"/>
        <pt x="700" y="368" on="1"/>
        <pt x="700" y="1447" on="1"/>
        <pt x="284" y="1447" on="1"/>
      </contour>
    </TTGlyph>
    <TTGlyph name="uni06F5" xMin="142" yMin="226" xMax="842" yMax="1588">
      <contour>
        <pt x="142" y="226" on="1"/>
        <pt x="142" y="1588" on="1"/>
        <pt x="842" y="1588" on="1"/>
        <pt x="842" y="226" on="1"/>
      </contour>
      <contour>
        <pt x="284" y="368" on="1"/>
        <pt x="700" y="368" on="1"/>
        <pt x="700" y="1447" on="1"/>
        <pt x="284" y="1447" on="1"/>
      </contour>
    </TTGlyph>
    <TTGlyph name="uni06F6" xMin="142" yMin="226" xMax="842" yMax="1588">
      <contour>
        <pt x="142" y="226" on="1"/>
        <pt x="142" y="1588" on="1"/>
        <pt x="842" y="1588" on="1"/>
        <pt x="842" y="226" on="1"/>
      </contour>
      <contour>
        <pt x="284" y="368" on="1"/>
        <pt x="700" y="368" on="1"/>
        <pt x="700" y="1447" on="1"/>
        <pt x="284" y="1447" on="1"/>
      </contour>
    </TTGlyph>
    <TTGlyph name="uni06F7" xMin="142" yMin="226" xMax="842" yMax="1588">
      <contour>
        <pt x="142" y="226" on="1"/>
        <pt x="142" y="1588" on="1"/>
        <pt x="842" y="1588" on="1"/>
        <pt x="842" y="226" on="1"/>
      </contour>
      <contour>
        <pt x="284" y="368" on="1"/>
        <pt x="700" y="368" on="1"/>
        <pt x="700" y="1447" on="1"/>
        <pt x="284" y="1447" on="1"/>
      </contour>
    </TTGlyph>
    <TTGlyph name="uni06F8" xMin="142" yMin="226" xMax="842" yMax="1588">
      <contour>
        <pt x="142" y="226" on="1"/>
        <pt x="142" y="1588" on="1"/>
        <pt x="842" y="1588" on="1"/>
        <pt x="842" y="226" on="1"/>
      </contour>
      <contour>
        <pt x="284" y="368" on="1"/>
        <pt x="700" y="368" on="1"/>
        <pt x="700" y="1447" on="1"/>
        <pt x="284" y="1447" on="1"/>
      </contour>
    </TTGlyph>
    <TTGlyph name="uni06F9" xMin="142" yMin="226" xMax="842" yMax="1588">
      <contour>
        <pt x="142" y="226" on="1"/>
        <pt x="142" y="1588" on="1"/>
        <pt x="842" y="1588" on="1"/>
        <pt x="842" y="226" on="1"/>
      </contour>
      <contour>
        <pt x="284" y="368" on="1"/>
        <pt x="700" y="368" on="1"/>
        <pt x="700" y="1447" on="1"/>
        <pt x="284" y="1447" on="1"/>
      </contour>
    </TTGlyph>
    <TTGlyph name="uni2010" xMin="81" yMin="-5" xMax="1025" yMax="1471">
      <contour>
        <pt x="932" y="1446" on="1"/>
        <pt x="932" y="1400" on="0"/>
        <pt x="906" y="1383" on="1"/>
        <pt x="743" y="1284" on="0"/>
        <pt x="416" y="1082" on="1"/>
        <pt x="381" y="1082" on="1"/>
        <pt x="369" y="1095" on="0"/>
        <pt x="369" y="1112" on="1"/>
        <pt x="369" y="1167" on="0"/>
        <pt x="580" y="1296" on="1"/>
        <pt x="727" y="1384" on="0"/>
        <pt x="875" y="1471" on="1"/>
        <pt x="920" y="1471" on="1"/>
        <pt x="932" y="1470" on="0"/>
      </contour>
      <contour>
        <pt x="1025" y="215" on="1"/>
        <pt x="1025" y="176" on="0"/>
        <pt x="981" y="66" on="1"/>
        <pt x="857" y="66" on="1"/>
        <pt x="826" y="66" on="0"/>
        <pt x="682" y="138" on="1"/>
        <pt x="666" y="103" on="0"/>
        <pt x="613" y="39" on="1"/>
        <pt x="554" y="-5" on="0"/>
        <pt x="409" y="-5" on="1"/>
        <pt x="314" y="-5" on="0"/>
        <pt x="269" y="20" on="1"/>
        <pt x="215" y="52" on="0"/>
        <pt x="187" y="142" on="1"/>
        <pt x="174" y="179" on="0"/>
        <pt x="159" y="378" on="1"/>
        <pt x="141" y="548" on="0"/>
        <pt x="118" y="881" on="1"/>
        <pt x="117" y="912" on="0"/>
        <pt x="81" y="1092" on="0"/>
        <pt x="81" y="1103" on="1"/>
        <pt x="81" y="1149" on="0"/>
        <pt x="124" y="1215" on="1"/>
        <pt x="161" y="1215" on="1"/>
        <pt x="178" y="1176" on="0"/>
        <pt x="200" y="1098" on="1"/>
        <pt x="216" y="986" on="0"/>
        <pt x="246" y="533" on="0"/>
        <pt x="262" y="421" on="1"/>
        <pt x="268" y="364" on="0"/>
        <pt x="288" y="247" on="1"/>
        <pt x="309" y="159" on="0"/>
        <pt x="460" y="159" on="1"/>
        <pt x="551" y="159" on="0"/>
        <pt x="586" y="181" on="1"/>
        <pt x="589" y="183" on="0"/>
        <pt x="715" y="356" on="1"/>
        <pt x="826" y="507" on="0"/>
        <pt x="897" y="507" on="1"/>
        <pt x="949" y="507" on="0"/>
        <pt x="992" y="370" on="1"/>
        <pt x="1025" y="264" on="0"/>
      </contour>
      <contour>
        <pt x="880" y="251" on="1"/>
        <pt x="874" y="287" on="0"/>
        <pt x="858" y="333" on="1"/>
        <pt x="823" y="333" on="1"/>
        <pt x="794" y="318" on="0"/>
        <pt x="790" y="284" on="1"/>
        <pt x="794" y="283" on="0"/>
        <pt x="816" y="264" on="1"/>
        <pt x="831" y="251" on="0"/>
        <pt x="847" y="251" on="1"/>
      </contour>
    </TTGlyph>
    <TTGlyph name="uni2011" xMin="81" yMin="-5" xMax="1025" yMax="1471">
      <contour>
        <pt x="932" y="1446" on="1"/>
        <pt x="932" y="1400" on="0"/>
        <pt x="906" y="1383" on="1"/>
        <pt x="743" y="1284" on="0"/>
        <pt x="416" y="1082" on="1"/>
        <pt x="381" y="1082" on="1"/>
        <pt x="369" y="1095" on="0"/>
        <pt x="369" y="1112" on="1"/>
        <pt x="369" y="1167" on="0"/>
        <pt x="580" y="1296" on="1"/>
        <pt x="727" y="1384" on="0"/>
        <pt x="875" y="1471" on="1"/>
        <pt x="920" y="1471" on="1"/>
        <pt x="932" y="1470" on="0"/>
      </contour>
      <contour>
        <pt x="1025" y="215" on="1"/>
        <pt x="1025" y="176" on="0"/>
        <pt x="981" y="66" on="1"/>
        <pt x="857" y="66" on="1"/>
        <pt x="826" y="66" on="0"/>
        <pt x="682" y="138" on="1"/>
        <pt x="666" y="103" on="0"/>
        <pt x="613" y="39" on="1"/>
        <pt x="554" y="-5" on="0"/>
        <pt x="409" y="-5" on="1"/>
        <pt x="314" y="-5" on="0"/>
        <pt x="269" y="20" on="1"/>
        <pt x="215" y="52" on="0"/>
        <pt x="187" y="142" on="1"/>
        <pt x="174" y="179" on="0"/>
        <pt x="159" y="378" on="1"/>
        <pt x="141" y="548" on="0"/>
        <pt x="118" y="881" on="1"/>
        <pt x="117" y="912" on="0"/>
        <pt x="81" y="1092" on="0"/>
        <pt x="81" y="1103" on="1"/>
        <pt x="81" y="1149" on="0"/>
        <pt x="124" y="1215" on="1"/>
        <pt x="161" y="1215" on="1"/>
        <pt x="178" y="1176" on="0"/>
        <pt x="200" y="1098" on="1"/>
        <pt x="216" y="986" on="0"/>
        <pt x="246" y="533" on="0"/>
        <pt x="262" y="421" on="1"/>
        <pt x="268" y="364" on="0"/>
        <pt x="288" y="247" on="1"/>
        <pt x="309" y="159" on="0"/>
        <pt x="460" y="159" on="1"/>
        <pt x="551" y="159" on="0"/>
        <pt x="586" y="181" on="1"/>
        <pt x="589" y="183" on="0"/>
        <pt x="715" y="356" on="1"/>
        <pt x="826" y="507" on="0"/>
        <pt x="897" y="507" on="1"/>
        <pt x="949" y="507" on="0"/>
        <pt x="992" y="370" on="1"/>
        <pt x="1025" y="264" on="0"/>
      </contour>
      <contour>
        <pt x="880" y="251" on="1"/>
        <pt x="874" y="287" on="0"/>
        <pt x="858" y="333" on="1"/>
        <pt x="823" y="333" on="1"/>
        <pt x="794" y="318" on="0"/>
        <pt x="790" y="284" on="1"/>
        <pt x="794" y="283" on="0"/>
        <pt x="816" y="264" on="1"/>
        <pt x="831" y="251" on="0"/>
        <pt x="847" y="251" on="1"/>
      </contour>
    </TTGlyph>
    <TTGlyph name="uniE000" xMin="0" yMin="0" xMax="1595" yMax="1595">
      <contour>
        <pt x="0" y="1595" on="1"/>
        <pt x="1595" y="1595" on="1"/>
        <pt x="1595" y="0" on="1"/>
        <pt x="0" y="0" on="1"/>
      </contour>
    </TTGlyph>
    <TTGlyph name="uniFB51" xMin="341" yMin="-515" xMax="2618" yMax="1649">
      <contour>
        <pt x="2618" y="1249" on="1"/>
        <pt x="2618" y="1205" on="0"/>
        <pt x="2446" y="1117" on="1"/>
        <pt x="2305" y="1044" on="0"/>
        <pt x="2164" y="973" on="1"/>
        <pt x="2128" y="973" on="1"/>
        <pt x="2115" y="986" on="0"/>
        <pt x="2115" y="1004" on="1"/>
        <pt x="2115" y="1021" on="0"/>
        <pt x="2152" y="1083" on="0"/>
        <pt x="2170" y="1091" on="1"/>
        <pt x="2211" y="1111" on="0"/>
        <pt x="2398" y="1208" on="1"/>
        <pt x="2539" y="1280" on="0"/>
        <pt x="2553" y="1280" on="1"/>
        <pt x="2605" y="1280" on="1"/>
        <pt x="2618" y="1266" on="0"/>
      </contour>
      <contour>
        <pt x="1244" y="1614" on="1"/>
        <pt x="1244" y="1568" on="0"/>
        <pt x="1145" y="1507" on="1"/>
        <pt x="1086" y="1475" on="0"/>
        <pt x="1026" y="1442" on="1"/>
        <pt x="1015" y="1434" on="0"/>
        <pt x="725" y="1260" on="1"/>
        <pt x="700" y="1285" on="0"/>
        <pt x="700" y="1301" on="1"/>
        <pt x="700" y="1375" on="0"/>
        <pt x="1196" y="1649" on="1"/>
        <pt x="1231" y="1649" on="1"/>
        <pt x="1244" y="1636" on="0"/>
      </contour>
      <contour>
        <pt x="2577" y="239" on="1"/>
        <pt x="2577" y="52" on="0"/>
        <pt x="2452" y="-122" on="1"/>
        <pt x="2310" y="-320" on="0"/>
        <pt x="2110" y="-320" on="1"/>
        <pt x="2068" y="-320" on="0"/>
        <pt x="1819" y="-267" on="1"/>
        <pt x="1819" y="-250" on="0"/>
        <pt x="1821" y="-240" on="1"/>
        <pt x="1852" y="-207" on="0"/>
        <pt x="1890" y="-207" on="1"/>
        <pt x="1903" y="-207" on="0"/>
        <pt x="1970" y="-217" on="0"/>
        <pt x="1983" y="-217" on="1"/>
        <pt x="2135" y="-217" on="0"/>
        <pt x="2264" y="-126" on="1"/>
        <pt x="2409" y="-22" on="0"/>
        <pt x="2486" y="176" on="1"/>
        <pt x="2470" y="193" on="1"/>
        <pt x="2417" y="111" on="0"/>
        <pt x="2341" y="111" on="1"/>
        <pt x="2279" y="111" on="0"/>
        <pt x="2234" y="177" on="1"/>
        <pt x="2198" y="230" on="0"/>
        <pt x="2198" y="270" on="1"/>
        <pt x="2198" y="275" on="0"/>
        <pt x="2215" y="302" on="1"/>
        <pt x="2233" y="465" on="0"/>
        <pt x="2313" y="516" on="1"/>
        <pt x="2337" y="532" on="0"/>
        <pt x="2373" y="532" on="1"/>
        <pt x="2446" y="532" on="0"/>
        <pt x="2516" y="408" on="1"/>
        <pt x="2577" y="301" on="0"/>
      </contour>
      <contour>
        <pt x="1634" y="274" on="1"/>
        <pt x="1634" y="197" on="0"/>
        <pt x="1629" y="179" on="1"/>
        <pt x="1621" y="147" on="0"/>
        <pt x="1580" y="81" on="1"/>
        <pt x="1543" y="81" on="1"/>
        <pt x="1543" y="191" on="0"/>
        <pt x="1527" y="402" on="1"/>
        <pt x="1517" y="422" on="0"/>
        <pt x="1503" y="464" on="1"/>
        <pt x="1459" y="838" on="0"/>
        <pt x="1459" y="936" on="1"/>
        <pt x="1459" y="1063" on="0"/>
        <pt x="1513" y="1115" on="1"/>
        <pt x="1550" y="1115" on="1"/>
      </contour>
      <contour>
        <pt x="1018" y="947" on="1"/>
        <pt x="1018" y="908" on="0"/>
        <pt x="977" y="871" on="1"/>
        <pt x="942" y="839" on="0"/>
        <pt x="926" y="839" on="1"/>
        <pt x="904" y="839" on="0"/>
        <pt x="813" y="895" on="0"/>
        <pt x="813" y="911" on="1"/>
        <pt x="813" y="931" on="0"/>
        <pt x="839" y="979" on="1"/>
        <pt x="870" y="1034" on="0"/>
        <pt x="900" y="1034" on="1"/>
        <pt x="935" y="1034" on="0"/>
        <pt x="975" y="1008" on="1"/>
        <pt x="1018" y="978" on="0"/>
      </contour>
      <contour>
        <pt x="1715" y="-181" on="1"/>
        <pt x="1715" y="-208" on="0"/>
        <pt x="1643" y="-234" on="1"/>
        <pt x="1595" y="-248" on="0"/>
        <pt x="1548" y="-262" on="1"/>
        <pt x="1496" y="-279" on="0"/>
        <pt x="1414" y="-319" on="1"/>
        <pt x="1379" y="-319" on="1"/>
        <pt x="1373" y="-308" on="0"/>
        <pt x="1380" y="-284" on="1"/>
        <pt x="1387" y="-251" on="0"/>
        <pt x="1387" y="-243" on="1"/>
        <pt x="1387" y="-233" on="0"/>
        <pt x="1336" y="-176" on="0"/>
        <pt x="1336" y="-161" on="1"/>
        <pt x="1336" y="-117" on="0"/>
        <pt x="1464" y="8" on="0"/>
        <pt x="1505" y="8" on="1"/>
        <pt x="1530" y="8" on="0"/>
        <pt x="1565" y="-14" on="1"/>
        <pt x="1603" y="-39" on="0"/>
        <pt x="1603" y="-63" on="1"/>
        <pt x="1603" y="-92" on="0"/>
        <pt x="1531" y="-140" on="1"/>
        <pt x="1562" y="-156" on="0"/>
        <pt x="1593" y="-156" on="1"/>
        <pt x="1642" y="-156" on="0"/>
        <pt x="1715" y="-147" on="1"/>
      </contour>
      <contour>
        <pt x="1285" y="265" on="1"/>
        <pt x="1285" y="219" on="0"/>
        <pt x="1265" y="155" on="1"/>
        <pt x="1244" y="86" on="0"/>
        <pt x="1221" y="73" on="1"/>
        <pt x="1219" y="72" on="0"/>
        <pt x="1096" y="35" on="1"/>
        <pt x="938" y="-12" on="0"/>
        <pt x="823" y="-12" on="1"/>
        <pt x="783" y="-12" on="0"/>
        <pt x="731" y="20" on="1"/>
        <pt x="731" y="116" on="0"/>
        <pt x="742" y="161" on="1"/>
        <pt x="760" y="166" on="0"/>
        <pt x="797" y="160" on="1"/>
        <pt x="844" y="152" on="0"/>
        <pt x="849" y="152" on="1"/>
        <pt x="908" y="152" on="0"/>
        <pt x="1030" y="178" on="1"/>
        <pt x="1170" y="208" on="0"/>
        <pt x="1192" y="239" on="1"/>
        <pt x="1131" y="374" on="0"/>
        <pt x="905" y="503" on="1"/>
        <pt x="908" y="509" on="0"/>
        <pt x="917" y="588" on="1"/>
        <pt x="923" y="634" on="0"/>
        <pt x="967" y="634" on="1"/>
        <pt x="1081" y="634" on="0"/>
        <pt x="1191" y="477" on="1"/>
        <pt x="1285" y="342" on="0"/>
      </contour>
      <contour>
        <pt x="1829" y="-320" on="1"/>
        <pt x="1829" y="-381" on="0"/>
        <pt x="1403" y="-515" on="1"/>
        <pt x="1388" y="-503" on="0"/>
        <pt x="1378" y="-503" on="1"/>
        <pt x="1378" y="-470" on="1"/>
        <pt x="1377" y="-425" on="0"/>
        <pt x="1548" y="-366" on="1"/>
        <pt x="1591" y="-351" on="0"/>
        <pt x="1804" y="-289" on="1"/>
        <pt x="1812" y="-294" on="0"/>
        <pt x="1829" y="-304" on="0"/>
      </contour>
      <contour>
        <pt x="536" y="239" on="1"/>
        <pt x="536" y="213" on="0"/>
        <pt x="510" y="149" on="1"/>
        <pt x="480" y="76" on="0"/>
        <pt x="456" y="70" on="1"/>
        <pt x="341" y="972" on="1"/>
        <pt x="350" y="1015" on="0"/>
        <pt x="394" y="1126" on="1"/>
        <pt x="421" y="1126" on="0"/>
        <pt x="429" y="1112" on="1"/>
        <pt x="445" y="944" on="0"/>
        <pt x="477" y="671" on="1"/>
        <pt x="536" y="264" on="0"/>
      </contour>
      <contour>
        <pt x="2402" y="286" on="1"/>
        <pt x="2402" y="333" on="1"/>
        <pt x="2370" y="366" on="0"/>
        <pt x="2344" y="366" on="1"/>
        <pt x="2313" y="313" on="0"/>
        <pt x="2334" y="286" on="1"/>
      </contour>
      <contour>
        <pt x="1501" y="-113" on="1"/>
        <pt x="1461" y="-101" on="1"/>
        <pt x="1461" y="-116" on="1"/>
        <pt x="1495" y="-128" on="1"/>
      </contour>
    </TTGlyph>
    <TTGlyph name="uniFB52" xMin="417" yMin="-585" xMax="2817" yMax="1610">
      <contour>
        <pt x="2490" y="1030" on="1"/>
        <pt x="2490" y="993" on="0"/>
        <pt x="2445" y="955" on="1"/>
        <pt x="2407" y="922" on="0"/>
        <pt x="2381" y="922" on="1"/>
        <pt x="2366" y="922" on="0"/>
        <pt x="2286" y="974" on="0"/>
        <pt x="2274" y="974" on="1"/>
        <pt x="2267" y="974" on="0"/>
        <pt x="2188" y="891" on="0"/>
        <pt x="2171" y="891" on="1"/>
        <pt x="2153" y="891" on="0"/>
        <pt x="2092" y="928" on="1"/>
        <pt x="2028" y="967" on="0"/>
        <pt x="2028" y="989" on="1"/>
        <pt x="2028" y="1024" on="0"/>
        <pt x="2071" y="1063" on="1"/>
        <pt x="2111" y="1097" on="0"/>
        <pt x="2135" y="1097" on="1"/>
        <pt x="2147" y="1097" on="0"/>
        <pt x="2232" y="1045" on="0"/>
        <pt x="2243" y="1045" on="1"/>
        <pt x="2256" y="1045" on="0"/>
        <pt x="2323" y="1127" on="0"/>
        <pt x="2345" y="1127" on="1"/>
        <pt x="2368" y="1127" on="0"/>
        <pt x="2426" y="1092" on="1"/>
        <pt x="2490" y="1053" on="0"/>
      </contour>
      <contour>
        <pt x="1268" y="1579" on="1"/>
        <pt x="1268" y="1539" on="0"/>
        <pt x="1242" y="1519" on="1"/>
        <pt x="1205" y="1490" on="0"/>
        <pt x="978" y="1371" on="1"/>
        <pt x="912" y="1333" on="0"/>
        <pt x="778" y="1262" on="1"/>
        <pt x="778" y="1265" on="0"/>
        <pt x="765" y="1277" on="0"/>
        <pt x="765" y="1292" on="1"/>
        <pt x="765" y="1304" on="0"/>
        <pt x="779" y="1343" on="0"/>
        <pt x="779" y="1351" on="1"/>
        <pt x="861" y="1405" on="0"/>
        <pt x="1221" y="1610" on="1"/>
        <pt x="1255" y="1610" on="1"/>
        <pt x="1268" y="1596" on="0"/>
      </contour>
      <contour>
        <pt x="2817" y="-313" on="1"/>
        <pt x="2817" y="-362" on="0"/>
        <pt x="2622" y="-457" on="1"/>
        <pt x="2467" y="-533" on="0"/>
        <pt x="2309" y="-585" on="1"/>
        <pt x="2284" y="-560" on="1"/>
        <pt x="2291" y="-539" on="0"/>
        <pt x="2297" y="-517" on="1"/>
        <pt x="2307" y="-487" on="0"/>
        <pt x="2328" y="-477" on="1"/>
        <pt x="2710" y="-288" on="0"/>
        <pt x="2753" y="-289" on="1"/>
        <pt x="2805" y="-289" on="1"/>
        <pt x="2817" y="-289" on="0"/>
      </contour>
      <contour>
        <pt x="2622" y="281" on="1"/>
        <pt x="2622" y="141" on="0"/>
        <pt x="2586" y="103" on="1"/>
        <pt x="2487" y="0" on="0"/>
        <pt x="2223" y="0" on="1"/>
        <pt x="2072" y="0" on="0"/>
        <pt x="1992" y="102" on="1"/>
        <pt x="1944" y="44" on="0"/>
        <pt x="1823" y="8" on="1"/>
        <pt x="1723" y="-21" on="0"/>
        <pt x="1643" y="-21" on="1"/>
        <pt x="1348" y="-21" on="0"/>
        <pt x="1276" y="84" on="1"/>
        <pt x="1270" y="88" on="0"/>
        <pt x="1253" y="102" on="1"/>
        <pt x="1250" y="98" on="0"/>
        <pt x="1240" y="85" on="1"/>
        <pt x="1246" y="55" on="0"/>
        <pt x="1246" y="16" on="1"/>
        <pt x="1246" y="-115" on="0"/>
        <pt x="1192" y="-213" on="1"/>
        <pt x="1162" y="-267" on="0"/>
        <pt x="938" y="-370" on="0"/>
        <pt x="853" y="-370" on="1"/>
        <pt x="843" y="-370" on="0"/>
        <pt x="767" y="-380" on="0"/>
        <pt x="750" y="-380" on="1"/>
        <pt x="614" y="-380" on="0"/>
        <pt x="522" y="-313" on="1"/>
        <pt x="417" y="-237" on="0"/>
        <pt x="417" y="-98" on="1"/>
        <pt x="417" y="-24" on="0"/>
        <pt x="467" y="71" on="1"/>
        <pt x="521" y="175" on="0"/>
        <pt x="587" y="204" on="1"/>
        <pt x="611" y="179" on="1"/>
        <pt x="605" y="159" on="0"/>
        <pt x="564" y="67" on="1"/>
        <pt x="529" y="-9" on="0"/>
        <pt x="529" y="-27" on="1"/>
        <pt x="529" y="-129" on="0"/>
        <pt x="633" y="-180" on="1"/>
        <pt x="708" y="-216" on="0"/>
        <pt x="801" y="-216" on="1"/>
        <pt x="882" y="-216" on="0"/>
        <pt x="1005" y="-183" on="1"/>
        <pt x="1085" y="-161" on="0"/>
        <pt x="1132" y="-105" on="1"/>
        <pt x="1145" y="-90" on="0"/>
        <pt x="1145" y="-21" on="1"/>
        <pt x="1032" y="927" on="1"/>
        <pt x="1032" y="939" on="0"/>
        <pt x="1058" y="991" on="1"/>
        <pt x="1085" y="1049" on="0"/>
        <pt x="1100" y="1056" on="1"/>
        <pt x="1107" y="1049" on="0"/>
        <pt x="1121" y="1032" on="1"/>
        <pt x="1158" y="819" on="0"/>
        <pt x="1194" y="606" on="1"/>
        <pt x="1239" y="378" on="0"/>
        <pt x="1318" y="275" on="1"/>
        <pt x="1421" y="143" on="0"/>
        <pt x="1628" y="143" on="1"/>
        <pt x="1808" y="143" on="0"/>
        <pt x="1887" y="186" on="1"/>
        <pt x="1920" y="204" on="0"/>
        <pt x="1953" y="270" on="1"/>
        <pt x="1980" y="327" on="0"/>
        <pt x="2013" y="327" on="1"/>
        <pt x="2046" y="312" on="0"/>
        <pt x="2047" y="282" on="1"/>
        <pt x="2049" y="224" on="0"/>
        <pt x="2050" y="223" on="1"/>
        <pt x="2102" y="181" on="0"/>
        <pt x="2141" y="170" on="1"/>
        <pt x="2169" y="163" on="0"/>
        <pt x="2243" y="163" on="1"/>
        <pt x="2308" y="163" on="0"/>
        <pt x="2401" y="177" on="1"/>
        <pt x="2519" y="195" on="0"/>
        <pt x="2540" y="221" on="1"/>
        <pt x="2529" y="277" on="0"/>
        <pt x="2483" y="338" on="1"/>
        <pt x="2360" y="245" on="0"/>
        <pt x="2351" y="245" on="1"/>
        <pt x="2284" y="245" on="0"/>
        <pt x="2235" y="289" on="1"/>
        <pt x="2182" y="336" on="0"/>
        <pt x="2182" y="410" on="1"/>
        <pt x="2182" y="483" on="0"/>
        <pt x="2226" y="569" on="1"/>
        <pt x="2281" y="676" on="0"/>
        <pt x="2361" y="676" on="1"/>
        <pt x="2399" y="676" on="0"/>
        <pt x="2436" y="640" on="1"/>
        <pt x="2622" y="458" on="0"/>
      </contour>
      <contour>
        <pt x="2223" y="-283" on="1"/>
        <pt x="2223" y="-314" on="0"/>
        <pt x="2156" y="-380" on="0"/>
        <pt x="2125" y="-380" on="1"/>
        <pt x="2081" y="-380" on="0"/>
        <pt x="2012" y="-329" on="1"/>
        <pt x="2008" y="-332" on="0"/>
        <pt x="1954" y="-378" on="1"/>
        <pt x="1914" y="-411" on="0"/>
        <pt x="1899" y="-411" on="1"/>
        <pt x="1872" y="-411" on="0"/>
        <pt x="1781" y="-326" on="0"/>
        <pt x="1781" y="-308" on="1"/>
        <pt x="1781" y="-270" on="0"/>
        <pt x="1821" y="-231" on="1"/>
        <pt x="1856" y="-195" on="0"/>
        <pt x="1874" y="-195" on="1"/>
        <pt x="1885" y="-195" on="0"/>
        <pt x="1982" y="-257" on="1"/>
        <pt x="1988" y="-253" on="0"/>
        <pt x="2037" y="-208" on="1"/>
        <pt x="2074" y="-175" on="0"/>
        <pt x="2089" y="-175" on="1"/>
        <pt x="2114" y="-175" on="0"/>
        <pt x="2223" y="-262" on="0"/>
      </contour>
      <contour>
        <pt x="2396" y="433" on="1"/>
        <pt x="2398" y="452" on="0"/>
        <pt x="2375" y="478" on="1"/>
        <pt x="2349" y="507" on="0"/>
        <pt x="2318" y="512" on="1"/>
        <pt x="2281" y="475" on="0"/>
        <pt x="2285" y="453" on="1"/>
        <pt x="2328" y="410" on="0"/>
        <pt x="2356" y="410" on="1"/>
        <pt x="2373" y="410" on="0"/>
      </contour>
    </TTGlyph>
    <TTGlyph name="uniFB53" xMin="85" yMin="-204" xMax="2188" yMax="1827">
      <contour>
        <pt x="2075" y="1796" on="1"/>
        <pt x="2075" y="1755" on="0"/>
        <pt x="1866" y="1633" on="1"/>
        <pt x="1722" y="1550" on="0"/>
        <pt x="1577" y="1468" on="1"/>
        <pt x="1552" y="1493" on="0"/>
        <pt x="1552" y="1503" on="1"/>
        <pt x="1552" y="1574" on="0"/>
        <pt x="1655" y="1629" on="1"/>
        <pt x="1732" y="1667" on="0"/>
        <pt x="1810" y="1706" on="1"/>
        <pt x="1892" y="1763" on="0"/>
        <pt x="2061" y="1827" on="1"/>
        <pt x="2075" y="1812" on="0"/>
      </contour>
      <contour>
        <pt x="1501" y="1093" on="1"/>
        <pt x="1501" y="1081" on="0"/>
        <pt x="1490" y="1050" on="0"/>
        <pt x="1490" y="1040" on="1"/>
        <pt x="1488" y="1039" on="0"/>
        <pt x="1487" y="1037" on="1"/>
        <pt x="1478" y="1026" on="0"/>
        <pt x="1460" y="1026" on="1"/>
        <pt x="1447" y="1026" on="0"/>
        <pt x="1380" y="1067" on="0"/>
        <pt x="1367" y="1067" on="1"/>
        <pt x="1356" y="1067" on="0"/>
        <pt x="1295" y="1013" on="1"/>
        <pt x="1224" y="947" on="0"/>
        <pt x="1190" y="927" on="1"/>
        <pt x="1087" y="864" on="0"/>
        <pt x="962" y="811" on="1"/>
        <pt x="906" y="825" on="1"/>
        <pt x="936" y="853" on="0"/>
        <pt x="1080" y="952" on="1"/>
        <pt x="1196" y="1032" on="0"/>
        <pt x="1255" y="1103" on="1"/>
        <pt x="1228" y="1130" on="0"/>
        <pt x="1201" y="1156" on="1"/>
        <pt x="1172" y="1188" on="0"/>
        <pt x="1172" y="1221" on="1"/>
        <pt x="1172" y="1266" on="0"/>
        <pt x="1222" y="1343" on="1"/>
        <pt x="1278" y="1426" on="0"/>
        <pt x="1326" y="1426" on="1"/>
        <pt x="1346" y="1426" on="0"/>
        <pt x="1374" y="1408" on="1"/>
        <pt x="1405" y="1388" on="0"/>
        <pt x="1415" y="1362" on="1"/>
        <pt x="1423" y="1339" on="0"/>
        <pt x="1422" y="1277" on="1"/>
        <pt x="1421" y="1183" on="0"/>
        <pt x="1420" y="1188" on="1"/>
        <pt x="1501" y="1132" on="0"/>
      </contour>
      <contour>
        <pt x="947" y="1334" on="1"/>
        <pt x="947" y="1266" on="0"/>
        <pt x="804" y="1191" on="1"/>
        <pt x="694" y="1133" on="0"/>
        <pt x="622" y="1119" on="1"/>
        <pt x="617" y="1124" on="0"/>
        <pt x="593" y="1137" on="0"/>
        <pt x="588" y="1143" on="1"/>
        <pt x="589" y="1173" on="0"/>
        <pt x="646" y="1199" on="1"/>
        <pt x="720" y="1233" on="0"/>
        <pt x="741" y="1257" on="1"/>
        <pt x="717" y="1283" on="0"/>
        <pt x="675" y="1283" on="1"/>
        <pt x="635" y="1283" on="0"/>
        <pt x="609" y="1266" on="1"/>
        <pt x="553" y="1228" on="0"/>
        <pt x="540" y="1221" on="1"/>
        <pt x="526" y="1223" on="0"/>
        <pt x="526" y="1247" on="1"/>
        <pt x="526" y="1307" on="0"/>
        <pt x="601" y="1355" on="1"/>
        <pt x="663" y="1396" on="0"/>
        <pt x="705" y="1396" on="1"/>
        <pt x="714" y="1396" on="0"/>
        <pt x="934" y="1365" on="1"/>
        <pt x="947" y="1352" on="0"/>
      </contour>
      <contour>
        <pt x="2188" y="247" on="1"/>
        <pt x="2188" y="181" on="0"/>
        <pt x="2159" y="106" on="1"/>
        <pt x="2119" y="1" on="0"/>
        <pt x="2049" y="11" on="1"/>
        <pt x="1721" y="62" on="1"/>
        <pt x="1450" y="8" on="0"/>
        <pt x="1414" y="4" on="1"/>
        <pt x="1386" y="1" on="0"/>
        <pt x="1219" y="1" on="1"/>
        <pt x="1207" y="1" on="0"/>
        <pt x="1105" y="11" on="0"/>
        <pt x="1090" y="11" on="1"/>
        <pt x="1048" y="11" on="0"/>
        <pt x="1037" y="-6" on="1"/>
        <pt x="1012" y="-42" on="0"/>
        <pt x="1005" y="-48" on="1"/>
        <pt x="992" y="-49" on="0"/>
        <pt x="953" y="-55" on="1"/>
        <pt x="920" y="-61" on="0"/>
        <pt x="906" y="-61" on="1"/>
        <pt x="893" y="-61" on="0"/>
        <pt x="739" y="-9" on="0"/>
        <pt x="726" y="-9" on="1"/>
        <pt x="717" y="-9" on="0"/>
        <pt x="648" y="-67" on="1"/>
        <pt x="571" y="-131" on="0"/>
        <pt x="522" y="-150" on="1"/>
        <pt x="462" y="-174" on="0"/>
        <pt x="318" y="-191" on="1"/>
        <pt x="208" y="-204" on="0"/>
        <pt x="167" y="-204" on="1"/>
        <pt x="133" y="-204" on="0"/>
        <pt x="85" y="-181" on="1"/>
        <pt x="101" y="-144" on="0"/>
        <pt x="160" y="-126" on="1"/>
        <pt x="269" y="-101" on="0"/>
        <pt x="488" y="-34" on="1"/>
        <pt x="527" y="-20" on="0"/>
        <pt x="566" y="-5" on="1"/>
        <pt x="614" y="16" on="0"/>
        <pt x="636" y="49" on="1"/>
        <pt x="645" y="65" on="0"/>
        <pt x="647" y="123" on="1"/>
        <pt x="649" y="188" on="0"/>
        <pt x="663" y="223" on="1"/>
        <pt x="679" y="265" on="0"/>
        <pt x="736" y="310" on="1"/>
        <pt x="798" y="360" on="0"/>
        <pt x="844" y="360" on="1"/>
        <pt x="868" y="360" on="0"/>
        <pt x="943" y="288" on="1"/>
        <pt x="1024" y="209" on="0"/>
        <pt x="1056" y="197" on="1"/>
        <pt x="1182" y="154" on="0"/>
        <pt x="1337" y="154" on="1"/>
        <pt x="1444" y="154" on="1"/>
        <pt x="1538" y="154" on="0"/>
        <pt x="1538" y="211" on="1"/>
        <pt x="1538" y="217" on="0"/>
        <pt x="1533" y="257" on="1"/>
        <pt x="1530" y="287" on="0"/>
        <pt x="1534" y="304" on="1"/>
        <pt x="1546" y="358" on="0"/>
        <pt x="1586" y="459" on="1"/>
        <pt x="1589" y="467" on="0"/>
        <pt x="1685" y="568" on="1"/>
        <pt x="1777" y="665" on="0"/>
        <pt x="1777" y="682" on="1"/>
        <pt x="1777" y="757" on="0"/>
        <pt x="1743" y="1031" on="1"/>
        <pt x="1741" y="1045" on="0"/>
        <pt x="1728" y="1076" on="1"/>
        <pt x="1716" y="1105" on="0"/>
        <pt x="1716" y="1119" on="1"/>
        <pt x="1716" y="1179" on="0"/>
        <pt x="1750" y="1249" on="1"/>
        <pt x="1755" y="1260" on="0"/>
        <pt x="1812" y="1313" on="1"/>
        <pt x="1843" y="1307" on="0"/>
        <pt x="1848" y="1262" on="1"/>
        <pt x="1850" y="1225" on="0"/>
        <pt x="1851" y="1188" on="1"/>
        <pt x="1868" y="1170" on="0"/>
        <pt x="1900" y="1153" on="1"/>
        <pt x="1949" y="1130" on="0"/>
        <pt x="1951" y="1128" on="1"/>
        <pt x="1951" y="1072" on="0"/>
        <pt x="1927" y="1029" on="1"/>
        <pt x="1901" y="1006" on="0"/>
        <pt x="1862" y="967" on="1"/>
        <pt x="1861" y="965" on="0"/>
        <pt x="1850" y="959" on="0"/>
        <pt x="1850" y="945" on="1"/>
        <pt x="1850" y="691" on="0"/>
        <pt x="1903" y="593" on="1"/>
        <pt x="1916" y="569" on="0"/>
        <pt x="2013" y="495" on="1"/>
        <pt x="2121" y="413" on="0"/>
        <pt x="2152" y="378" on="1"/>
        <pt x="2188" y="339" on="0"/>
      </contour>
      <contour>
        <pt x="1347" y="1235" on="1"/>
        <pt x="1347" y="1280" on="0"/>
        <pt x="1300" y="1303" on="1"/>
        <pt x="1276" y="1276" on="0"/>
        <pt x="1286" y="1234" on="1"/>
        <pt x="1328" y="1213" on="0"/>
      </contour>
      <contour>
        <pt x="2094" y="165" on="1"/>
        <pt x="2094" y="224" on="1"/>
        <pt x="2005" y="296" on="0"/>
        <pt x="1924" y="328" on="1"/>
        <pt x="1913" y="289" on="0"/>
        <pt x="1891" y="219" on="1"/>
        <pt x="1959" y="203" on="0"/>
      </contour>
      <contour>
        <pt x="1818" y="279" on="1"/>
        <pt x="1819" y="288" on="0"/>
        <pt x="1819" y="297" on="1"/>
        <pt x="1819" y="347" on="0"/>
        <pt x="1798" y="392" on="1"/>
        <pt x="1774" y="442" on="0"/>
        <pt x="1741" y="442" on="1"/>
        <pt x="1700" y="442" on="0"/>
        <pt x="1660" y="380" on="1"/>
        <pt x="1624" y="326" on="0"/>
        <pt x="1624" y="289" on="1"/>
        <pt x="1698" y="237" on="0"/>
        <pt x="1747" y="237" on="1"/>
        <pt x="1776" y="237" on="0"/>
      </contour>
      <contour>
        <pt x="853" y="142" on="1"/>
        <pt x="816" y="208" on="0"/>
        <pt x="788" y="237" on="1"/>
        <pt x="762" y="213" on="1"/>
        <pt x="761" y="193" on="0"/>
        <pt x="824" y="138" on="0"/>
      </contour>
    </TTGlyph>
    <TTGlyph name="uniFB54" xMin="362" yMin="-444" xMax="3943" yMax="1730">
      <contour>
        <pt x="3921" y="1620" on="1"/>
        <pt x="3858" y="1569" on="0"/>
        <pt x="3687" y="1484" on="1"/>
        <pt x="3463" y="1373" on="0"/>
        <pt x="3375" y="1321" on="1"/>
        <pt x="3369" y="1321" on="0"/>
        <pt x="3344" y="1332" on="0"/>
        <pt x="3338" y="1332" on="1"/>
        <pt x="3338" y="1365" on="1"/>
        <pt x="3337" y="1414" on="0"/>
        <pt x="3423" y="1460" on="1"/>
        <pt x="3836" y="1680" on="0"/>
        <pt x="3877" y="1679" on="1"/>
        <pt x="3921" y="1679" on="1"/>
      </contour>
      <contour>
        <pt x="3902" y="1002" on="1"/>
        <pt x="3902" y="972" on="0"/>
        <pt x="3858" y="935" on="1"/>
        <pt x="3819" y="899" on="0"/>
        <pt x="3799" y="899" on="1"/>
        <pt x="3785" y="899" on="0"/>
        <pt x="3682" y="951" on="1"/>
        <pt x="3599" y="869" on="0"/>
        <pt x="3578" y="869" on="1"/>
        <pt x="3551" y="869" on="0"/>
        <pt x="3450" y="944" on="1"/>
        <pt x="3456" y="965" on="0"/>
        <pt x="3487" y="1015" on="1"/>
        <pt x="3525" y="1074" on="0"/>
        <pt x="3548" y="1074" on="1"/>
        <pt x="3559" y="1074" on="0"/>
        <pt x="3642" y="1033" on="0"/>
        <pt x="3655" y="1033" on="1"/>
        <pt x="3667" y="1033" on="0"/>
        <pt x="3745" y="1105" on="0"/>
        <pt x="3758" y="1105" on="1"/>
        <pt x="3790" y="1105" on="0"/>
        <pt x="3902" y="1022" on="0"/>
      </contour>
      <contour>
        <pt x="3235" y="1643" on="1"/>
        <pt x="3235" y="1599" on="0"/>
        <pt x="3114" y="1525" on="1"/>
        <pt x="3045" y="1488" on="0"/>
        <pt x="2976" y="1451" on="1"/>
        <pt x="2832" y="1370" on="0"/>
        <pt x="2544" y="1198" on="1"/>
        <pt x="2509" y="1198" on="1"/>
        <pt x="2486" y="1221" on="0"/>
        <pt x="2486" y="1233" on="1"/>
        <pt x="2486" y="1272" on="0"/>
        <pt x="2521" y="1295" on="1"/>
        <pt x="2653" y="1378" on="0"/>
        <pt x="3187" y="1669" on="1"/>
        <pt x="3223" y="1669" on="1"/>
        <pt x="3235" y="1667" on="0"/>
      </contour>
      <contour>
        <pt x="3943" y="305" on="1"/>
        <pt x="3943" y="233" on="0"/>
        <pt x="3887" y="143" on="1"/>
        <pt x="3857" y="93" on="0"/>
        <pt x="3796" y="71" on="1"/>
        <pt x="3676" y="27" on="0"/>
        <pt x="3630" y="27" on="1"/>
        <pt x="3556" y="27" on="0"/>
        <pt x="3308" y="130" on="0"/>
        <pt x="3296" y="130" on="1"/>
        <pt x="3284" y="130" on="0"/>
        <pt x="3234" y="113" on="1"/>
        <pt x="3178" y="95" on="0"/>
        <pt x="3159" y="92" on="1"/>
        <pt x="3010" y="60" on="0"/>
        <pt x="2779" y="20" on="1"/>
        <pt x="2435" y="-13" on="1"/>
        <pt x="2368" y="-13" on="0"/>
        <pt x="2242" y="25" on="1"/>
        <pt x="2137" y="57" on="0"/>
        <pt x="2089" y="82" on="1"/>
        <pt x="2033" y="110" on="0"/>
        <pt x="1991" y="210" on="1"/>
        <pt x="1958" y="290" on="0"/>
        <pt x="1949" y="370" on="1"/>
        <pt x="1937" y="412" on="0"/>
        <pt x="1924" y="494" on="1"/>
        <pt x="1918" y="641" on="0"/>
        <pt x="1887" y="976" on="1"/>
        <pt x="1886" y="989" on="0"/>
        <pt x="1860" y="1066" on="0"/>
        <pt x="1860" y="1079" on="1"/>
        <pt x="1860" y="1121" on="0"/>
        <pt x="1915" y="1176" on="1"/>
        <pt x="1930" y="1172" on="0"/>
        <pt x="1976" y="1128" on="0"/>
        <pt x="1979" y="1111" on="1"/>
        <pt x="1995" y="1025" on="0"/>
        <pt x="2025" y="617" on="1"/>
        <pt x="2042" y="376" on="0"/>
        <pt x="2124" y="283" on="1"/>
        <pt x="2233" y="161" on="0"/>
        <pt x="2527" y="161" on="1"/>
        <pt x="2539" y="161" on="0"/>
        <pt x="2767" y="181" on="0"/>
        <pt x="2779" y="181" on="1"/>
        <pt x="2848" y="181" on="0"/>
        <pt x="3006" y="215" on="1"/>
        <pt x="3143" y="244" on="0"/>
        <pt x="3184" y="261" on="1"/>
        <pt x="3159" y="333" on="0"/>
        <pt x="3030" y="316" on="1"/>
        <pt x="3030" y="349" on="1"/>
        <pt x="3030" y="366" on="0"/>
        <pt x="3096" y="446" on="0"/>
        <pt x="3124" y="464" on="1"/>
        <pt x="3181" y="500" on="0"/>
        <pt x="3276" y="500" on="1"/>
        <pt x="3361" y="500" on="0"/>
        <pt x="3437" y="463" on="1"/>
        <pt x="3532" y="417" on="0"/>
        <pt x="3532" y="340" on="1"/>
        <pt x="3532" y="284" on="0"/>
        <pt x="3481" y="247" on="1"/>
        <pt x="3523" y="211" on="0"/>
        <pt x="3561" y="204" on="1"/>
        <pt x="3572" y="202" on="0"/>
        <pt x="3645" y="202" on="1"/>
        <pt x="3771" y="202" on="0"/>
        <pt x="3830" y="249" on="1"/>
        <pt x="3830" y="297" on="0"/>
        <pt x="3696" y="475" on="0"/>
        <pt x="3696" y="473" on="1"/>
        <pt x="3696" y="504" on="0"/>
        <pt x="3740" y="591" on="1"/>
        <pt x="3785" y="591" on="1"/>
        <pt x="3859" y="527" on="0"/>
        <pt x="3903" y="441" on="1"/>
        <pt x="3943" y="364" on="0"/>
      </contour>
      <contour>
        <pt x="1686" y="1695" on="1"/>
        <pt x="1686" y="1655" on="0"/>
        <pt x="1587" y="1593" on="1"/>
        <pt x="1522" y="1558" on="0"/>
        <pt x="1457" y="1522" on="1"/>
        <pt x="1373" y="1473" on="0"/>
        <pt x="1207" y="1382" on="1"/>
        <pt x="1193" y="1384" on="0"/>
        <pt x="1193" y="1407" on="1"/>
        <pt x="1193" y="1466" on="0"/>
        <pt x="1226" y="1490" on="1"/>
        <pt x="1300" y="1544" on="0"/>
        <pt x="1425" y="1615" on="1"/>
        <pt x="1597" y="1711" on="0"/>
        <pt x="1628" y="1730" on="1"/>
        <pt x="1673" y="1730" on="1"/>
        <pt x="1686" y="1717" on="0"/>
      </contour>
      <contour>
        <pt x="1234" y="1099" on="1"/>
        <pt x="1234" y="1083" on="0"/>
        <pt x="1135" y="985" on="0"/>
        <pt x="1098" y="964" on="1"/>
        <pt x="1003" y="910" on="0"/>
        <pt x="942" y="910" on="1"/>
        <pt x="909" y="910" on="0"/>
        <pt x="896" y="923" on="1"/>
        <pt x="900" y="958" on="0"/>
        <pt x="948" y="986" on="1"/>
        <pt x="1017" y="1027" on="0"/>
        <pt x="1019" y="1029" on="1"/>
        <pt x="1012" y="1053" on="0"/>
        <pt x="972" y="1053" on="1"/>
        <pt x="956" y="1053" on="0"/>
        <pt x="860" y="981" on="1"/>
        <pt x="845" y="994" on="0"/>
        <pt x="835" y="994" on="1"/>
        <pt x="835" y="1026" on="1"/>
        <pt x="834" y="1050" on="0"/>
        <pt x="890" y="1102" on="1"/>
        <pt x="944" y="1150" on="0"/>
        <pt x="962" y="1152" on="1"/>
        <pt x="1002" y="1156" on="0"/>
        <pt x="1029" y="1156" on="1"/>
        <pt x="1234" y="1156" on="0"/>
      </contour>
      <contour>
        <pt x="639" y="1489" on="1"/>
        <pt x="639" y="1425" on="0"/>
        <pt x="584" y="1364" on="1"/>
        <pt x="527" y="1300" on="0"/>
        <pt x="459" y="1300" on="1"/>
        <pt x="362" y="1300" on="0"/>
        <pt x="362" y="1387" on="1"/>
        <pt x="362" y="1437" on="0"/>
        <pt x="416" y="1521" on="1"/>
        <pt x="478" y="1618" on="0"/>
        <pt x="541" y="1618" on="1"/>
        <pt x="587" y="1618" on="0"/>
        <pt x="617" y="1565" on="1"/>
        <pt x="639" y="1524" on="0"/>
      </contour>
      <contour>
        <pt x="1634" y="289" on="1"/>
        <pt x="1634" y="147" on="0"/>
        <pt x="1598" y="102" on="1"/>
        <pt x="1574" y="70" on="0"/>
        <pt x="1491" y="45" on="1"/>
        <pt x="1358" y="5" on="0"/>
        <pt x="1354" y="3" on="1"/>
        <pt x="1335" y="-4" on="0"/>
        <pt x="1291" y="-92" on="1"/>
        <pt x="1275" y="-123" on="0"/>
        <pt x="1260" y="-144" on="1"/>
        <pt x="1180" y="-253" on="0"/>
        <pt x="1144" y="-292" on="1"/>
        <pt x="1052" y="-394" on="0"/>
        <pt x="984" y="-411" on="1"/>
        <pt x="848" y="-444" on="0"/>
        <pt x="777" y="-444" on="1"/>
        <pt x="750" y="-444" on="0"/>
        <pt x="537" y="-391" on="1"/>
        <pt x="537" y="-385" on="0"/>
        <pt x="549" y="-348" on="0"/>
        <pt x="549" y="-343" on="1"/>
        <pt x="588" y="-348" on="0"/>
        <pt x="632" y="-348" on="1"/>
        <pt x="791" y="-348" on="0"/>
        <pt x="939" y="-276" on="1"/>
        <pt x="1107" y="-192" on="0"/>
        <pt x="1203" y="-37" on="1"/>
        <pt x="1205" y="1" on="0"/>
        <pt x="1148" y="2" on="1"/>
        <pt x="1106" y="1" on="0"/>
        <pt x="1064" y="0" on="1"/>
        <pt x="1005" y="11" on="0"/>
        <pt x="964" y="65" on="1"/>
        <pt x="926" y="112" on="0"/>
        <pt x="926" y="161" on="1"/>
        <pt x="926" y="223" on="0"/>
        <pt x="980" y="315" on="1"/>
        <pt x="1039" y="417" on="0"/>
        <pt x="1101" y="417" on="1"/>
        <pt x="1171" y="417" on="0"/>
        <pt x="1232" y="318" on="1"/>
        <pt x="1322" y="172" on="0"/>
        <pt x="1323" y="170" on="1"/>
        <pt x="1375" y="175" on="0"/>
        <pt x="1428" y="180" on="1"/>
        <pt x="1486" y="191" on="0"/>
        <pt x="1532" y="229" on="1"/>
        <pt x="1528" y="352" on="0"/>
        <pt x="1488" y="560" on="1"/>
        <pt x="1420" y="927" on="0"/>
        <pt x="1415" y="955" on="1"/>
        <pt x="1415" y="959" on="0"/>
        <pt x="1381" y="1004" on="1"/>
        <pt x="1367" y="1023" on="0"/>
        <pt x="1367" y="1069" on="1"/>
        <pt x="1367" y="1105" on="0"/>
        <pt x="1397" y="1174" on="1"/>
        <pt x="1429" y="1253" on="0"/>
        <pt x="1465" y="1269" on="1"/>
        <pt x="1486" y="1257" on="0"/>
        <pt x="1499" y="1194" on="1"/>
        <pt x="1514" y="1125" on="0"/>
        <pt x="1523" y="1113" on="1"/>
        <pt x="1529" y="1106" on="0"/>
        <pt x="1570" y="1083" on="1"/>
        <pt x="1603" y="1064" on="0"/>
        <pt x="1603" y="1049" on="1"/>
        <pt x="1603" y="1048" on="0"/>
        <pt x="1542" y="878" on="1"/>
      </contour>
      <contour>
        <pt x="629" y="310" on="1"/>
        <pt x="629" y="291" on="0"/>
        <pt x="612" y="209" on="1"/>
        <pt x="591" y="111" on="0"/>
        <pt x="574" y="89" on="1"/>
        <pt x="533" y="89" on="0"/>
        <pt x="528" y="134" on="1"/>
        <pt x="503" y="392" on="0"/>
        <pt x="444" y="904" on="1"/>
        <pt x="423" y="1059" on="0"/>
        <pt x="423" y="1038" on="1"/>
        <pt x="423" y="1133" on="0"/>
        <pt x="491" y="1176" on="1"/>
        <pt x="526" y="1126" on="0"/>
        <pt x="532" y="1059" on="1"/>
        <pt x="546" y="918" on="0"/>
        <pt x="590" y="602" on="1"/>
        <pt x="629" y="318" on="0"/>
      </contour>
      <contour>
        <pt x="546" y="1448" on="1"/>
        <pt x="546" y="1481" on="0"/>
        <pt x="500" y="1505" on="1"/>
        <pt x="488" y="1493" on="0"/>
        <pt x="457" y="1452" on="0"/>
        <pt x="455" y="1448" on="1"/>
        <pt x="461" y="1436" on="0"/>
        <pt x="478" y="1413" on="1"/>
        <pt x="513" y="1413" on="1"/>
        <pt x="546" y="1447" on="0"/>
      </contour>
      <contour>
        <pt x="1140" y="173" on="1"/>
        <pt x="1130" y="197" on="0"/>
        <pt x="1098" y="242" on="1"/>
        <pt x="1062" y="242" on="1"/>
        <pt x="1050" y="194" on="1"/>
        <pt x="1075" y="189" on="0"/>
      </contour>
    </TTGlyph>
    <TTGlyph name="uniFB55" xMin="308" yMin="-466" xMax="1980" yMax="1698">
      <contour>
        <pt x="1283" y="1658" on="1"/>
        <pt x="1283" y="1616" on="0"/>
        <pt x="1239" y="1589" on="1"/>
        <pt x="1090" y="1501" on="0"/>
        <pt x="786" y="1300" on="1"/>
        <pt x="729" y="1300" on="1"/>
        <pt x="729" y="1368" on="1"/>
        <pt x="920" y="1509" on="0"/>
        <pt x="1203" y="1684" on="1"/>
        <pt x="1226" y="1698" on="0"/>
        <pt x="1259" y="1698" on="1"/>
        <pt x="1283" y="1674" on="0"/>
      </contour>
      <contour>
        <pt x="1683" y="350" on="1"/>
        <pt x="1683" y="174" on="0"/>
        <pt x="1628" y="119" on="1"/>
        <pt x="1619" y="119" on="0"/>
        <pt x="1593" y="153" on="1"/>
        <pt x="1592" y="202" on="0"/>
        <pt x="1535" y="739" on="1"/>
        <pt x="1531" y="774" on="0"/>
        <pt x="1514" y="899" on="1"/>
        <pt x="1498" y="1008" on="0"/>
        <pt x="1498" y="1022" on="1"/>
        <pt x="1498" y="1058" on="0"/>
        <pt x="1552" y="1164" on="1"/>
        <pt x="1588" y="1164" on="1"/>
      </contour>
      <contour>
        <pt x="1874" y="-107" on="1"/>
        <pt x="1883" y="-122" on="0"/>
        <pt x="1883" y="-135" on="1"/>
        <pt x="1883" y="-172" on="0"/>
        <pt x="1812" y="-194" on="1"/>
        <pt x="1756" y="-208" on="0"/>
        <pt x="1700" y="-223" on="1"/>
        <pt x="1636" y="-247" on="0"/>
        <pt x="1511" y="-291" on="1"/>
        <pt x="1498" y="-289" on="0"/>
        <pt x="1498" y="-266" on="1"/>
        <pt x="1498" y="-253" on="0"/>
        <pt x="1515" y="-230" on="1"/>
        <pt x="1537" y="-199" on="0"/>
        <pt x="1539" y="-194" on="1"/>
        <pt x="1520" y="-178" on="0"/>
        <pt x="1501" y="-161" on="1"/>
        <pt x="1477" y="-140" on="0"/>
        <pt x="1477" y="-122" on="1"/>
        <pt x="1477" y="-69" on="0"/>
        <pt x="1552" y="-4" on="1"/>
        <pt x="1622" y="57" on="0"/>
        <pt x="1662" y="57" on="1"/>
        <pt x="1755" y="57" on="0"/>
        <pt x="1755" y="-19" on="1"/>
        <pt x="1755" y="-38" on="0"/>
        <pt x="1708" y="-76" on="0"/>
        <pt x="1688" y="-76" on="1"/>
        <pt x="1679" y="-76" on="0"/>
        <pt x="1617" y="-45" on="1"/>
        <pt x="1590" y="-71" on="1"/>
        <pt x="1638" y="-111" on="0"/>
        <pt x="1665" y="-117" on="1"/>
        <pt x="1665" y="-117" on="0"/>
        <pt x="1728" y="-117" on="1"/>
        <pt x="1787" y="-117" on="0"/>
      </contour>
      <contour>
        <pt x="1980" y="-276" on="1"/>
        <pt x="1980" y="-310" on="0"/>
        <pt x="1946" y="-329" on="1"/>
        <pt x="1889" y="-345" on="0"/>
        <pt x="1772" y="-387" on="1"/>
        <pt x="1704" y="-411" on="0"/>
        <pt x="1564" y="-466" on="1"/>
        <pt x="1549" y="-451" on="0"/>
        <pt x="1549" y="-434" on="1"/>
        <pt x="1549" y="-370" on="0"/>
        <pt x="1747" y="-302" on="1"/>
        <pt x="1855" y="-264" on="0"/>
        <pt x="1968" y="-241" on="1"/>
        <pt x="1968" y="-244" on="0"/>
        <pt x="1980" y="-261" on="0"/>
      </contour>
      <contour>
        <pt x="1324" y="37" on="1"/>
        <pt x="1324" y="-120" on="0"/>
        <pt x="1044" y="-225" on="1"/>
        <pt x="838" y="-302" on="0"/>
        <pt x="708" y="-302" on="1"/>
        <pt x="560" y="-302" on="0"/>
        <pt x="450" y="-237" on="1"/>
        <pt x="308" y="-154" on="0"/>
        <pt x="308" y="6" on="1"/>
        <pt x="308" y="66" on="0"/>
        <pt x="373" y="177" on="1"/>
        <pt x="440" y="293" on="0"/>
        <pt x="492" y="302" on="1"/>
        <pt x="492" y="256" on="1"/>
        <pt x="492" y="243" on="0"/>
        <pt x="420" y="101" on="0"/>
        <pt x="420" y="88" on="1"/>
        <pt x="420" y="-23" on="0"/>
        <pt x="541" y="-93" on="1"/>
        <pt x="636" y="-148" on="0"/>
        <pt x="728" y="-148" on="1"/>
        <pt x="795" y="-148" on="1"/>
        <pt x="853" y="-148" on="0"/>
        <pt x="995" y="-99" on="1"/>
        <pt x="1148" y="-48" on="0"/>
        <pt x="1170" y="-10" on="1"/>
        <pt x="1131" y="25" on="0"/>
        <pt x="1022" y="39" on="1"/>
        <pt x="906" y="54" on="0"/>
        <pt x="841" y="102" on="1"/>
        <pt x="863" y="189" on="0"/>
        <pt x="968" y="220" on="1"/>
        <pt x="1081" y="254" on="0"/>
        <pt x="1108" y="319" on="1"/>
        <pt x="995" y="1114" on="1"/>
        <pt x="1000" y="1163" on="0"/>
        <pt x="1018" y="1216" on="1"/>
        <pt x="1047" y="1298" on="0"/>
        <pt x="1088" y="1298" on="1"/>
        <pt x="1118" y="1298" on="0"/>
        <pt x="1126" y="1246" on="1"/>
        <pt x="1128" y="1215" on="0"/>
        <pt x="1130" y="1183" on="1"/>
        <pt x="1148" y="1163" on="0"/>
        <pt x="1200" y="1143" on="1"/>
        <pt x="1200" y="1087" on="1"/>
        <pt x="1200" y="1076" on="0"/>
        <pt x="1176" y="1040" on="1"/>
        <pt x="1146" y="995" on="0"/>
        <pt x="1141" y="984" on="1"/>
        <pt x="1139" y="979" on="0"/>
        <pt x="1139" y="940" on="1"/>
        <pt x="1211" y="355" on="1"/>
        <pt x="1211" y="300" on="0"/>
        <pt x="1149" y="197" on="1"/>
        <pt x="1184" y="184" on="0"/>
        <pt x="1248" y="156" on="1"/>
        <pt x="1275" y="143" on="0"/>
        <pt x="1301" y="95" on="1"/>
        <pt x="1324" y="53" on="0"/>
      </contour>
      <contour>
        <pt x="780" y="509" on="1"/>
        <pt x="780" y="437" on="0"/>
        <pt x="747" y="367" on="1"/>
        <pt x="741" y="366" on="0"/>
        <pt x="723" y="355" on="1"/>
        <pt x="700" y="378" on="0"/>
        <pt x="694" y="439" on="1"/>
        <pt x="686" y="516" on="0"/>
        <pt x="684" y="523" on="1"/>
        <pt x="676" y="544" on="0"/>
        <pt x="617" y="636" on="1"/>
        <pt x="564" y="717" on="0"/>
        <pt x="564" y="745" on="1"/>
        <pt x="564" y="782" on="0"/>
        <pt x="599" y="817" on="1"/>
        <pt x="684" y="778" on="0"/>
        <pt x="736" y="677" on="1"/>
        <pt x="780" y="591" on="0"/>
      </contour>
    </TTGlyph>
    <TTGlyph name="uniFB56" xMin="102" yMin="-5" xMax="1220" yMax="1512">
      <contour>
        <pt x="1159" y="1400" on="1"/>
        <pt x="1159" y="1360" on="0"/>
        <pt x="1051" y="1291" on="1"/>
        <pt x="990" y="1257" on="0"/>
        <pt x="930" y="1222" on="1"/>
        <pt x="831" y="1162" on="0"/>
        <pt x="640" y="1041" on="1"/>
        <pt x="615" y="1066" on="0"/>
        <pt x="615" y="1076" on="1"/>
        <pt x="615" y="1120" on="0"/>
        <pt x="639" y="1142" on="1"/>
        <pt x="693" y="1191" on="0"/>
        <pt x="966" y="1354" on="1"/>
        <pt x="1013" y="1376" on="0"/>
        <pt x="1101" y="1430" on="1"/>
        <pt x="1146" y="1430" on="1"/>
        <pt x="1159" y="1417" on="0"/>
      </contour>
      <contour>
        <pt x="717" y="1482" on="1"/>
        <pt x="717" y="1404" on="0"/>
        <pt x="540" y="1338" on="1"/>
        <pt x="404" y="1287" on="0"/>
        <pt x="358" y="1287" on="1"/>
        <pt x="347" y="1287" on="0"/>
        <pt x="241" y="1318" on="0"/>
        <pt x="230" y="1318" on="1"/>
        <pt x="217" y="1318" on="0"/>
        <pt x="179" y="1280" on="1"/>
        <pt x="135" y="1235" on="0"/>
        <pt x="116" y="1226" on="1"/>
        <pt x="102" y="1227" on="0"/>
        <pt x="102" y="1251" on="1"/>
        <pt x="102" y="1289" on="0"/>
        <pt x="215" y="1441" on="0"/>
        <pt x="245" y="1441" on="1"/>
        <pt x="254" y="1441" on="0"/>
        <pt x="369" y="1400" on="0"/>
        <pt x="390" y="1400" on="1"/>
        <pt x="530" y="1400" on="0"/>
        <pt x="670" y="1512" on="1"/>
        <pt x="704" y="1512" on="1"/>
        <pt x="717" y="1499" on="0"/>
      </contour>
      <contour>
        <pt x="1220" y="220" on="1"/>
        <pt x="1220" y="152" on="0"/>
        <pt x="1158" y="56" on="0"/>
        <pt x="1113" y="56" on="1"/>
        <pt x="1069" y="56" on="0"/>
        <pt x="997" y="79" on="1"/>
        <pt x="907" y="108" on="0"/>
        <pt x="875" y="148" on="1"/>
        <pt x="857" y="142" on="0"/>
        <pt x="838" y="99" on="1"/>
        <pt x="817" y="52" on="0"/>
        <pt x="788" y="29" on="1"/>
        <pt x="742" y="-5" on="0"/>
        <pt x="599" y="-5" on="1"/>
        <pt x="442" y="-5" on="0"/>
        <pt x="411" y="125" on="1"/>
        <pt x="396" y="256" on="0"/>
        <pt x="381" y="388" on="1"/>
        <pt x="384" y="410" on="0"/>
        <pt x="385" y="451" on="1"/>
        <pt x="380" y="578" on="0"/>
        <pt x="358" y="850" on="1"/>
        <pt x="338" y="1103" on="0"/>
        <pt x="338" y="1108" on="1"/>
        <pt x="338" y="1151" on="0"/>
        <pt x="394" y="1226" on="1"/>
        <pt x="445" y="1176" on="0"/>
        <pt x="458" y="1046" on="1"/>
        <pt x="463" y="949" on="0"/>
        <pt x="467" y="851" on="1"/>
        <pt x="475" y="682" on="0"/>
        <pt x="498" y="349" on="1"/>
        <pt x="498" y="301" on="0"/>
        <pt x="514" y="217" on="1"/>
        <pt x="525" y="193" on="0"/>
        <pt x="566" y="170" on="1"/>
        <pt x="606" y="148" on="0"/>
        <pt x="630" y="148" on="1"/>
        <pt x="738" y="148" on="0"/>
        <pt x="793" y="197" on="1"/>
        <pt x="831" y="230" on="0"/>
        <pt x="895" y="347" on="1"/>
        <pt x="928" y="386" on="0"/>
        <pt x="988" y="460" on="1"/>
        <pt x="1024" y="507" on="0"/>
        <pt x="1071" y="507" on="1"/>
        <pt x="1119" y="507" on="0"/>
        <pt x="1134" y="473" on="1"/>
        <pt x="1220" y="283" on="0"/>
      </contour>
      <contour>
        <pt x="1066" y="265" on="1"/>
        <pt x="1066" y="266" on="0"/>
        <pt x="1033" y="333" on="1"/>
        <pt x="997" y="333" on="1"/>
        <pt x="974" y="302" on="1"/>
        <pt x="979" y="288" on="0"/>
        <pt x="1051" y="241" on="1"/>
        <pt x="1061" y="250" on="0"/>
      </contour>
    </TTGlyph>
    <TTGlyph name="uniFB57" xMin="405" yMin="-448" xMax="2519" yMax="1849">
      <contour>
        <pt x="2519" y="1824" on="1"/>
        <pt x="2519" y="1774" on="0"/>
        <pt x="2309" y="1647" on="1"/>
        <pt x="2126" y="1537" on="0"/>
        <pt x="2051" y="1511" on="1"/>
        <pt x="2036" y="1525" on="0"/>
        <pt x="2036" y="1542" on="1"/>
        <pt x="2036" y="1602" on="0"/>
        <pt x="2121" y="1652" on="1"/>
        <pt x="2183" y="1685" on="0"/>
        <pt x="2243" y="1718" on="1"/>
        <pt x="2290" y="1752" on="0"/>
        <pt x="2461" y="1849" on="1"/>
        <pt x="2506" y="1849" on="1"/>
        <pt x="2519" y="1847" on="0"/>
      </contour>
      <contour>
        <pt x="2508" y="1277" on="1"/>
        <pt x="2481" y="1245" on="0"/>
        <pt x="2419" y="1228" on="1"/>
        <pt x="2370" y="1214" on="0"/>
        <pt x="2320" y="1199" on="1"/>
        <pt x="2283" y="1176" on="0"/>
        <pt x="2204" y="1142" on="1"/>
        <pt x="2186" y="1172" on="0"/>
        <pt x="2192" y="1208" on="1"/>
        <pt x="2189" y="1217" on="0"/>
        <pt x="2166" y="1253" on="1"/>
        <pt x="2149" y="1280" on="0"/>
        <pt x="2149" y="1295" on="1"/>
        <pt x="2149" y="1334" on="0"/>
        <pt x="2285" y="1480" on="0"/>
        <pt x="2328" y="1480" on="1"/>
        <pt x="2352" y="1480" on="0"/>
        <pt x="2383" y="1456" on="1"/>
        <pt x="2416" y="1430" on="0"/>
        <pt x="2416" y="1403" on="1"/>
        <pt x="2416" y="1384" on="0"/>
        <pt x="2369" y="1336" on="0"/>
        <pt x="2349" y="1336" on="1"/>
        <pt x="2351" y="1336" on="0"/>
        <pt x="2288" y="1367" on="1"/>
        <pt x="2280" y="1364" on="0"/>
        <pt x="2262" y="1351" on="1"/>
        <pt x="2262" y="1331" on="1"/>
        <pt x="2301" y="1295" on="0"/>
        <pt x="2324" y="1295" on="1"/>
        <pt x="2290" y="1295" on="0"/>
        <pt x="2496" y="1325" on="1"/>
        <pt x="2496" y="1320" on="0"/>
        <pt x="2508" y="1283" on="0"/>
      </contour>
      <contour>
        <pt x="1831" y="1773" on="1"/>
        <pt x="1807" y="1723" on="0"/>
        <pt x="1654" y="1625" on="1"/>
        <pt x="1400" y="1463" on="0"/>
        <pt x="1397" y="1461" on="1"/>
        <pt x="1340" y="1461" on="1"/>
        <pt x="1340" y="1515" on="1"/>
        <pt x="1339" y="1547" on="0"/>
        <pt x="1531" y="1663" on="1"/>
        <pt x="1647" y="1730" on="0"/>
        <pt x="1763" y="1798" on="1"/>
        <pt x="1807" y="1798" on="1"/>
      </contour>
      <contour>
        <pt x="2478" y="233" on="1"/>
        <pt x="2478" y="65" on="0"/>
        <pt x="2424" y="-7" on="1"/>
        <pt x="2419" y="-7" on="0"/>
        <pt x="2392" y="4" on="0"/>
        <pt x="2387" y="4" on="1"/>
        <pt x="2390" y="169" on="0"/>
        <pt x="2382" y="253" on="1"/>
        <pt x="2368" y="394" on="0"/>
        <pt x="2318" y="697" on="1"/>
        <pt x="2272" y="978" on="0"/>
        <pt x="2272" y="982" on="1"/>
        <pt x="2272" y="1031" on="0"/>
        <pt x="2277" y="1045" on="1"/>
        <pt x="2288" y="1083" on="0"/>
        <pt x="2338" y="1152" on="1"/>
        <pt x="2368" y="1123" on="0"/>
        <pt x="2371" y="1096" on="1"/>
        <pt x="2478" y="279" on="0"/>
      </contour>
      <contour>
        <pt x="2108" y="777" on="1"/>
        <pt x="2108" y="743" on="0"/>
        <pt x="2074" y="710" on="1"/>
        <pt x="2043" y="680" on="0"/>
        <pt x="2016" y="680" on="1"/>
        <pt x="1969" y="680" on="0"/>
        <pt x="1933" y="716" on="1"/>
        <pt x="1903" y="745" on="0"/>
        <pt x="1903" y="762" on="1"/>
        <pt x="1903" y="797" on="0"/>
        <pt x="1967" y="864" on="0"/>
        <pt x="1995" y="864" on="1"/>
        <pt x="2023" y="864" on="0"/>
        <pt x="2108" y="802" on="0"/>
      </contour>
      <contour>
        <pt x="1215" y="1706" on="1"/>
        <pt x="1215" y="1668" on="0"/>
        <pt x="1019" y="1543" on="1"/>
        <pt x="869" y="1451" on="0"/>
        <pt x="720" y="1357" on="1"/>
        <pt x="715" y="1357" on="0"/>
        <pt x="688" y="1369" on="0"/>
        <pt x="683" y="1369" on="1"/>
        <pt x="683" y="1436" on="1"/>
        <pt x="767" y="1502" on="0"/>
        <pt x="1168" y="1736" on="1"/>
        <pt x="1202" y="1736" on="1"/>
        <pt x="1215" y="1723" on="0"/>
      </contour>
      <contour>
        <pt x="1646" y="623" on="1"/>
        <pt x="1646" y="591" on="0"/>
        <pt x="1606" y="551" on="1"/>
        <pt x="1569" y="515" on="0"/>
        <pt x="1554" y="515" on="1"/>
        <pt x="1507" y="515" on="0"/>
        <pt x="1467" y="556" on="1"/>
        <pt x="1431" y="591" on="0"/>
        <pt x="1431" y="618" on="1"/>
        <pt x="1431" y="644" on="0"/>
        <pt x="1467" y="678" on="1"/>
        <pt x="1502" y="710" on="0"/>
        <pt x="1523" y="710" on="1"/>
        <pt x="1558" y="710" on="0"/>
        <pt x="1603" y="677" on="1"/>
        <pt x="1646" y="644" on="0"/>
      </contour>
      <contour>
        <pt x="2129" y="259" on="1"/>
        <pt x="2129" y="121" on="0"/>
        <pt x="2093" y="86" on="1"/>
        <pt x="2052" y="48" on="0"/>
        <pt x="1963" y="30" on="1"/>
        <pt x="1859" y="11" on="0"/>
        <pt x="1820" y="-10" on="0"/>
        <pt x="1797" y="-75" on="0"/>
        <pt x="1786" y="-107" on="1"/>
        <pt x="1701" y="-315" on="0"/>
        <pt x="1541" y="-404" on="1"/>
        <pt x="1462" y="-448" on="0"/>
        <pt x="1318" y="-448" on="1"/>
        <pt x="1270" y="-448" on="0"/>
        <pt x="1082" y="-403" on="0"/>
        <pt x="1052" y="-384" on="1"/>
        <pt x="1055" y="-335" on="0"/>
        <pt x="1092" y="-335" on="1"/>
        <pt x="1105" y="-335" on="0"/>
        <pt x="1208" y="-356" on="0"/>
        <pt x="1221" y="-356" on="1"/>
        <pt x="1313" y="-356" on="0"/>
        <pt x="1462" y="-270" on="1"/>
        <pt x="1622" y="-177" on="0"/>
        <pt x="1680" y="-72" on="1"/>
        <pt x="1692" y="-55" on="0"/>
        <pt x="1703" y="-40" on="1"/>
        <pt x="1718" y="-18" on="0"/>
        <pt x="1718" y="-2" on="1"/>
        <pt x="1718" y="16" on="0"/>
        <pt x="1711" y="20" on="1"/>
        <pt x="1680" y="38" on="0"/>
        <pt x="1656" y="83" on="1"/>
        <pt x="1636" y="119" on="0"/>
        <pt x="1636" y="136" on="1"/>
        <pt x="1636" y="184" on="0"/>
        <pt x="1681" y="229" on="1"/>
        <pt x="1821" y="177" on="0"/>
        <pt x="1847" y="177" on="1"/>
        <pt x="1857" y="177" on="0"/>
        <pt x="1970" y="198" on="0"/>
        <pt x="1999" y="200" on="1"/>
        <pt x="2016" y="211" on="0"/>
        <pt x="2016" y="244" on="1"/>
        <pt x="2016" y="256" on="0"/>
        <pt x="1954" y="369" on="0"/>
        <pt x="1954" y="383" on="1"/>
        <pt x="1954" y="443" on="0"/>
        <pt x="1989" y="495" on="1"/>
        <pt x="2129" y="444" on="0"/>
      </contour>
      <contour>
        <pt x="1215" y="229" on="1"/>
        <pt x="1215" y="120" on="0"/>
        <pt x="1191" y="37" on="1"/>
        <pt x="1162" y="-59" on="0"/>
        <pt x="1001" y="-131" on="1"/>
        <pt x="863" y="-192" on="0"/>
        <pt x="749" y="-192" on="1"/>
        <pt x="656" y="-192" on="0"/>
        <pt x="584" y="-179" on="1"/>
        <pt x="516" y="-167" on="0"/>
        <pt x="457" y="-65" on="1"/>
        <pt x="405" y="25" on="0"/>
        <pt x="405" y="90" on="1"/>
        <pt x="405" y="145" on="0"/>
        <pt x="463" y="252" on="1"/>
        <pt x="502" y="324" on="0"/>
        <pt x="531" y="361" on="1"/>
        <pt x="536" y="361" on="0"/>
        <pt x="563" y="350" on="0"/>
        <pt x="568" y="350" on="1"/>
        <pt x="568" y="304" on="1"/>
        <pt x="569" y="295" on="0"/>
        <pt x="518" y="175" on="0"/>
        <pt x="518" y="161" on="1"/>
        <pt x="518" y="66" on="0"/>
        <pt x="605" y="13" on="1"/>
        <pt x="673" y="-27" on="0"/>
        <pt x="759" y="-27" on="1"/>
        <pt x="843" y="-27" on="0"/>
        <pt x="960" y="7" on="1"/>
        <pt x="1097" y="48" on="0"/>
        <pt x="1119" y="102" on="1"/>
        <pt x="1123" y="111" on="0"/>
        <pt x="1123" y="172" on="1"/>
        <pt x="1123" y="175" on="0"/>
        <pt x="1087" y="382" on="1"/>
        <pt x="1046" y="606" on="0"/>
        <pt x="1033" y="726" on="1"/>
        <pt x="1026" y="824" on="0"/>
        <pt x="996" y="1022" on="1"/>
        <pt x="996" y="1027" on="0"/>
        <pt x="975" y="1056" on="1"/>
        <pt x="959" y="1080" on="0"/>
        <pt x="959" y="1121" on="1"/>
        <pt x="959" y="1189" on="0"/>
        <pt x="1033" y="1316" on="1"/>
        <pt x="1064" y="1316" on="0"/>
        <pt x="1078" y="1292" on="1"/>
        <pt x="1081" y="1181" on="0"/>
        <pt x="1139" y="1149" on="1"/>
        <pt x="1114" y="921" on="0"/>
        <pt x="1115" y="911" on="1"/>
        <pt x="1125" y="775" on="0"/>
        <pt x="1171" y="494" on="1"/>
        <pt x="1215" y="228" on="0"/>
      </contour>
    </TTGlyph>
    <TTGlyph name="uniFB58" xMin="269" yMin="-33" xMax="2044" yMax="1578">
      <contour>
        <pt x="2044" y="1403" on="1"/>
        <pt x="2044" y="1314" on="0"/>
        <pt x="1941" y="1255" on="1"/>
        <pt x="1860" y="1208" on="0"/>
        <pt x="1798" y="1208" on="1"/>
        <pt x="1786" y="1208" on="0"/>
        <pt x="1743" y="1218" on="0"/>
        <pt x="1731" y="1218" on="1"/>
        <pt x="1716" y="1218" on="0"/>
        <pt x="1694" y="1202" on="1"/>
        <pt x="1662" y="1179" on="0"/>
        <pt x="1659" y="1177" on="1"/>
        <pt x="1652" y="1179" on="0"/>
        <pt x="1634" y="1191" on="1"/>
        <pt x="1651" y="1262" on="0"/>
        <pt x="1689" y="1299" on="1"/>
        <pt x="1717" y="1312" on="0"/>
        <pt x="1769" y="1343" on="1"/>
        <pt x="1794" y="1362" on="0"/>
        <pt x="1825" y="1406" on="1"/>
        <pt x="1859" y="1457" on="0"/>
        <pt x="1871" y="1470" on="1"/>
        <pt x="1897" y="1495" on="0"/>
        <pt x="1947" y="1495" on="1"/>
        <pt x="1989" y="1495" on="0"/>
        <pt x="2017" y="1464" on="1"/>
        <pt x="2044" y="1436" on="0"/>
      </contour>
      <contour>
        <pt x="1459" y="1542" on="1"/>
        <pt x="1459" y="1501" on="0"/>
        <pt x="1425" y="1488" on="1"/>
        <pt x="941" y="1311" on="0"/>
        <pt x="895" y="1311" on="1"/>
        <pt x="869" y="1311" on="0"/>
        <pt x="844" y="1333" on="1"/>
        <pt x="844" y="1381" on="1"/>
        <pt x="932" y="1434" on="0"/>
        <pt x="1227" y="1518" on="1"/>
        <pt x="1244" y="1523" on="0"/>
        <pt x="1312" y="1552" on="1"/>
        <pt x="1369" y="1578" on="0"/>
        <pt x="1384" y="1577" on="1"/>
        <pt x="1436" y="1577" on="1"/>
        <pt x="1459" y="1553" on="0"/>
      </contour>
      <contour>
        <pt x="1921" y="342" on="1"/>
        <pt x="1921" y="338" on="0"/>
        <pt x="1921" y="114" on="1"/>
        <pt x="1898" y="70" on="0"/>
        <pt x="1853" y="39" on="1"/>
        <pt x="1716" y="957" on="1"/>
        <pt x="1725" y="997" on="0"/>
        <pt x="1735" y="1036" on="1"/>
        <pt x="1751" y="1083" on="0"/>
        <pt x="1805" y="1115" on="1"/>
      </contour>
      <contour>
        <pt x="1346" y="1265" on="1"/>
        <pt x="1346" y="1169" on="0"/>
        <pt x="1263" y="1099" on="1"/>
        <pt x="1224" y="1093" on="0"/>
        <pt x="1148" y="1072" on="1"/>
        <pt x="1136" y="1066" on="0"/>
        <pt x="1097" y="1042" on="1"/>
        <pt x="1069" y="1023" on="0"/>
        <pt x="1054" y="1023" on="1"/>
        <pt x="987" y="1023" on="0"/>
        <pt x="987" y="1116" on="1"/>
        <pt x="987" y="1124" on="0"/>
        <pt x="1010" y="1199" on="0"/>
        <pt x="1010" y="1227" on="1"/>
        <pt x="1012" y="1227" on="0"/>
        <pt x="1055" y="1238" on="0"/>
        <pt x="1067" y="1238" on="1"/>
        <pt x="1082" y="1208" on="0"/>
        <pt x="1079" y="1165" on="1"/>
        <pt x="1071" y="1157" on="0"/>
        <pt x="1095" y="1157" on="1"/>
        <pt x="1119" y="1157" on="0"/>
        <pt x="1144" y="1215" on="1"/>
        <pt x="1159" y="1253" on="0"/>
        <pt x="1174" y="1289" on="1"/>
        <pt x="1209" y="1291" on="0"/>
        <pt x="1217" y="1259" on="1"/>
        <pt x="1230" y="1209" on="0"/>
        <pt x="1231" y="1208" on="1"/>
        <pt x="1250" y="1208" on="0"/>
        <pt x="1261" y="1226" on="1"/>
        <pt x="1269" y="1257" on="0"/>
        <pt x="1298" y="1321" on="1"/>
        <pt x="1333" y="1321" on="1"/>
        <pt x="1346" y="1307" on="0"/>
      </contour>
      <contour>
        <pt x="782" y="1075" on="1"/>
        <pt x="782" y="1062" on="0"/>
        <pt x="770" y="1024" on="0"/>
        <pt x="770" y="1015" on="1"/>
        <pt x="767" y="1015" on="0"/>
        <pt x="756" y="1003" on="0"/>
        <pt x="741" y="1003" on="1"/>
        <pt x="729" y="1003" on="0"/>
        <pt x="656" y="1044" on="0"/>
        <pt x="643" y="1044" on="1"/>
        <pt x="645" y="1044" on="0"/>
        <pt x="352" y="809" on="0"/>
        <pt x="335" y="809" on="1"/>
        <pt x="280" y="809" on="1"/>
        <pt x="280" y="813" on="0"/>
        <pt x="269" y="824" on="0"/>
        <pt x="269" y="839" on="1"/>
        <pt x="269" y="857" on="0"/>
        <pt x="333" y="906" on="1"/>
        <pt x="397" y="948" on="0"/>
        <pt x="462" y="990" on="1"/>
        <pt x="530" y="1039" on="0"/>
        <pt x="547" y="1099" on="1"/>
        <pt x="484" y="1149" on="0"/>
        <pt x="475" y="1176" on="1"/>
        <pt x="475" y="1178" on="0"/>
        <pt x="475" y="1229" on="1"/>
        <pt x="475" y="1288" on="0"/>
        <pt x="514" y="1347" on="1"/>
        <pt x="560" y="1413" on="0"/>
        <pt x="623" y="1413" on="1"/>
        <pt x="627" y="1413" on="0"/>
        <pt x="667" y="1398" on="1"/>
        <pt x="710" y="1338" on="0"/>
        <pt x="710" y="1279" on="1"/>
        <pt x="710" y="1242" on="0"/>
        <pt x="692" y="1212" on="1"/>
        <pt x="688" y="1198" on="0"/>
        <pt x="692" y="1185" on="1"/>
        <pt x="782" y="1086" on="0"/>
      </contour>
      <contour>
        <pt x="1593" y="218" on="1"/>
        <pt x="1593" y="201" on="0"/>
        <pt x="1548" y="52" on="1"/>
        <pt x="1537" y="17" on="0"/>
        <pt x="1496" y="11" on="1"/>
        <pt x="1421" y="-2" on="0"/>
        <pt x="1403" y="-2" on="1"/>
        <pt x="1359" y="-2" on="0"/>
        <pt x="1285" y="26" on="1"/>
        <pt x="1194" y="62" on="0"/>
        <pt x="1176" y="111" on="1"/>
        <pt x="1133" y="64" on="0"/>
        <pt x="1046" y="-9" on="1"/>
        <pt x="1005" y="-33" on="0"/>
        <pt x="931" y="-33" on="1"/>
        <pt x="842" y="-33" on="0"/>
        <pt x="793" y="33" on="1"/>
        <pt x="758" y="79" on="0"/>
        <pt x="724" y="193" on="1"/>
        <pt x="612" y="90" on="0"/>
        <pt x="484" y="90" on="1"/>
        <pt x="425" y="90" on="0"/>
        <pt x="331" y="143" on="1"/>
        <pt x="326" y="253" on="0"/>
        <pt x="471" y="355" on="1"/>
        <pt x="586" y="424" on="0"/>
        <pt x="702" y="492" on="1"/>
        <pt x="720" y="504" on="0"/>
        <pt x="743" y="555" on="1"/>
        <pt x="775" y="627" on="0"/>
        <pt x="786" y="644" on="1"/>
        <pt x="801" y="632" on="0"/>
        <pt x="811" y="632" on="1"/>
        <pt x="823" y="537" on="0"/>
        <pt x="823" y="387" on="1"/>
        <pt x="823" y="131" on="0"/>
        <pt x="972" y="131" on="1"/>
        <pt x="1026" y="131" on="0"/>
        <pt x="1085" y="183" on="1"/>
        <pt x="1141" y="232" on="0"/>
        <pt x="1141" y="270" on="1"/>
        <pt x="1141" y="282" on="0"/>
        <pt x="1090" y="626" on="0"/>
        <pt x="1090" y="639" on="1"/>
        <pt x="1090" y="690" on="0"/>
        <pt x="1133" y="776" on="1"/>
        <pt x="1170" y="776" on="1"/>
        <pt x="1178" y="725" on="0"/>
        <pt x="1195" y="629" on="1"/>
        <pt x="1214" y="483" on="0"/>
        <pt x="1232" y="335" on="1"/>
        <pt x="1276" y="172" on="0"/>
        <pt x="1428" y="172" on="1"/>
        <pt x="1463" y="172" on="0"/>
        <pt x="1480" y="184" on="0"/>
        <pt x="1480" y="213" on="1"/>
        <pt x="1480" y="222" on="0"/>
        <pt x="1440" y="323" on="1"/>
        <pt x="1398" y="432" on="0"/>
        <pt x="1390" y="473" on="1"/>
        <pt x="1357" y="646" on="0"/>
        <pt x="1357" y="664" on="1"/>
        <pt x="1357" y="722" on="0"/>
        <pt x="1413" y="798" on="1"/>
        <pt x="1445" y="773" on="0"/>
        <pt x="1461" y="694" on="1"/>
        <pt x="1472" y="637" on="0"/>
        <pt x="1482" y="579" on="1"/>
        <pt x="1521" y="478" on="0"/>
        <pt x="1560" y="378" on="1"/>
        <pt x="1593" y="292" on="0"/>
      </contour>
      <contour>
        <pt x="1931" y="1369" on="1"/>
        <pt x="1919" y="1380" on="0"/>
        <pt x="1906" y="1383" on="1"/>
        <pt x="1861" y="1360" on="0"/>
        <pt x="1861" y="1332" on="1"/>
        <pt x="1898" y="1332" on="1"/>
        <pt x="1931" y="1364" on="0"/>
      </contour>
      <contour>
        <pt x="628" y="1244" on="1"/>
        <pt x="611" y="1279" on="0"/>
        <pt x="579" y="1279" on="1"/>
        <pt x="568" y="1230" on="1"/>
        <pt x="580" y="1230" on="0"/>
        <pt x="602" y="1208" on="1"/>
        <pt x="610" y="1221" on="0"/>
      </contour>
      <contour>
        <pt x="731" y="356" on="1"/>
        <pt x="731" y="387" on="0"/>
        <pt x="694" y="387" on="1"/>
        <pt x="606" y="349" on="0"/>
        <pt x="484" y="268" on="1"/>
        <pt x="654" y="254" on="1"/>
        <pt x="680" y="256" on="0"/>
        <pt x="706" y="295" on="1"/>
        <pt x="731" y="330" on="0"/>
      </contour>
    </TTGlyph>
    <TTGlyph name="uniFB59" xMin="337" yMin="-557" xMax="2677" yMax="1598">
      <contour>
        <pt x="2646" y="1516" on="1"/>
        <pt x="2646" y="1472" on="0"/>
        <pt x="2535" y="1402" on="1"/>
        <pt x="2476" y="1371" on="0"/>
        <pt x="2418" y="1338" on="1"/>
        <pt x="2303" y="1267" on="0"/>
        <pt x="2076" y="1115" on="1"/>
        <pt x="2068" y="1120" on="0"/>
        <pt x="2051" y="1130" on="0"/>
        <pt x="2051" y="1146" on="1"/>
        <pt x="2051" y="1208" on="0"/>
        <pt x="2075" y="1227" on="1"/>
        <pt x="2181" y="1307" on="0"/>
        <pt x="2588" y="1546" on="1"/>
        <pt x="2632" y="1546" on="1"/>
        <pt x="2646" y="1533" on="0"/>
      </contour>
      <contour>
        <pt x="2677" y="253" on="1"/>
        <pt x="2677" y="44" on="0"/>
        <pt x="2439" y="-183" on="1"/>
        <pt x="2413" y="-208" on="0"/>
        <pt x="2337" y="-234" on="1"/>
        <pt x="2260" y="-259" on="0"/>
        <pt x="2205" y="-259" on="1"/>
        <pt x="2101" y="-259" on="0"/>
        <pt x="1908" y="-217" on="1"/>
        <pt x="1908" y="-178" on="1"/>
        <pt x="1939" y="-179" on="0"/>
        <pt x="2002" y="-178" on="1"/>
        <pt x="2078" y="-177" on="0"/>
        <pt x="2075" y="-177" on="1"/>
        <pt x="2197" y="-177" on="0"/>
        <pt x="2360" y="-58" on="1"/>
        <pt x="2531" y="66" on="0"/>
        <pt x="2574" y="206" on="1"/>
        <pt x="2558" y="223" on="1"/>
        <pt x="2486" y="141" on="0"/>
        <pt x="2430" y="141" on="1"/>
        <pt x="2356" y="141" on="0"/>
        <pt x="2316" y="213" on="1"/>
        <pt x="2287" y="268" on="0"/>
        <pt x="2287" y="330" on="1"/>
        <pt x="2287" y="390" on="0"/>
        <pt x="2327" y="475" on="1"/>
        <pt x="2377" y="582" on="0"/>
        <pt x="2446" y="582" on="1"/>
        <pt x="2523" y="582" on="0"/>
        <pt x="2605" y="437" on="1"/>
        <pt x="2677" y="312" on="0"/>
      </contour>
      <contour>
        <pt x="1332" y="1550" on="1"/>
        <pt x="1332" y="1524" on="0"/>
        <pt x="1100" y="1382" on="1"/>
        <pt x="876" y="1246" on="0"/>
        <pt x="762" y="1198" on="1"/>
        <pt x="747" y="1212" on="0"/>
        <pt x="747" y="1244" on="1"/>
        <pt x="747" y="1289" on="0"/>
        <pt x="791" y="1316" on="1"/>
        <pt x="1250" y="1598" on="0"/>
        <pt x="1287" y="1597" on="1"/>
        <pt x="1332" y="1597" on="1"/>
      </contour>
      <contour>
        <pt x="1712" y="238" on="1"/>
        <pt x="1712" y="66" on="0"/>
        <pt x="1655" y="38" on="1"/>
        <pt x="1643" y="50" on="0"/>
        <pt x="1622" y="72" on="1"/>
        <pt x="1622" y="184" on="0"/>
        <pt x="1595" y="392" on="1"/>
        <pt x="1582" y="490" on="0"/>
        <pt x="1541" y="757" on="1"/>
        <pt x="1507" y="985" on="0"/>
        <pt x="1507" y="997" on="1"/>
        <pt x="1507" y="1038" on="0"/>
        <pt x="1550" y="1125" on="1"/>
        <pt x="1598" y="1125" on="1"/>
      </contour>
      <contour>
        <pt x="1815" y="-253" on="1"/>
        <pt x="1794" y="-296" on="0"/>
        <pt x="1726" y="-310" on="1"/>
        <pt x="1625" y="-330" on="0"/>
        <pt x="1617" y="-335" on="1"/>
        <pt x="1581" y="-353" on="0"/>
        <pt x="1501" y="-393" on="1"/>
        <pt x="1477" y="-368" on="1"/>
        <pt x="1477" y="-366" on="0"/>
        <pt x="1496" y="-334" on="0"/>
        <pt x="1496" y="-321" on="1"/>
        <pt x="1496" y="-308" on="0"/>
        <pt x="1455" y="-257" on="0"/>
        <pt x="1455" y="-244" on="1"/>
        <pt x="1455" y="-203" on="0"/>
        <pt x="1590" y="-75" on="0"/>
        <pt x="1630" y="-75" on="1"/>
        <pt x="1656" y="-75" on="0"/>
        <pt x="1722" y="-131" on="0"/>
        <pt x="1722" y="-151" on="1"/>
        <pt x="1722" y="-190" on="0"/>
        <pt x="1665" y="-218" on="1"/>
        <pt x="1649" y="-208" on="0"/>
        <pt x="1612" y="-176" on="1"/>
        <pt x="1587" y="-176" on="1"/>
        <pt x="1587" y="-184" on="0"/>
        <pt x="1568" y="-203" on="1"/>
        <pt x="1594" y="-228" on="0"/>
        <pt x="1661" y="-228" on="1"/>
        <pt x="1789" y="-228" on="0"/>
        <pt x="1791" y="-229" on="1"/>
      </contour>
      <contour>
        <pt x="1394" y="48" on="1"/>
        <pt x="1394" y="-46" on="0"/>
        <pt x="1348" y="-104" on="1"/>
        <pt x="1282" y="-185" on="0"/>
        <pt x="1072" y="-261" on="1"/>
        <pt x="876" y="-331" on="0"/>
        <pt x="752" y="-331" on="1"/>
        <pt x="661" y="-331" on="1"/>
        <pt x="650" y="-331" on="0"/>
        <pt x="607" y="-316" on="1"/>
        <pt x="548" y="-296" on="0"/>
        <pt x="516" y="-287" on="1"/>
        <pt x="462" y="-273" on="0"/>
        <pt x="398" y="-167" on="1"/>
        <pt x="337" y="-65" on="0"/>
        <pt x="337" y="2" on="1"/>
        <pt x="337" y="52" on="0"/>
        <pt x="400" y="170" on="1"/>
        <pt x="458" y="279" on="0"/>
        <pt x="494" y="314" on="1"/>
        <pt x="531" y="314" on="1"/>
        <pt x="531" y="257" on="1"/>
        <pt x="532" y="245" on="0"/>
        <pt x="508" y="209" on="1"/>
        <pt x="481" y="168" on="0"/>
        <pt x="477" y="154" on="1"/>
        <pt x="460" y="102" on="0"/>
        <pt x="460" y="69" on="1"/>
        <pt x="460" y="-1" on="0"/>
        <pt x="520" y="-65" on="1"/>
        <pt x="574" y="-123" on="0"/>
        <pt x="652" y="-154" on="1"/>
        <pt x="684" y="-167" on="0"/>
        <pt x="788" y="-167" on="1"/>
        <pt x="1060" y="-167" on="0"/>
        <pt x="1250" y="-18" on="1"/>
        <pt x="1209" y="42" on="0"/>
        <pt x="1097" y="44" on="1"/>
        <pt x="974" y="47" on="0"/>
        <pt x="933" y="82" on="1"/>
        <pt x="933" y="124" on="1"/>
        <pt x="932" y="170" on="0"/>
        <pt x="996" y="208" on="1"/>
        <pt x="1055" y="231" on="0"/>
        <pt x="1159" y="290" on="1"/>
        <pt x="1137" y="505" on="0"/>
        <pt x="1072" y="935" on="1"/>
        <pt x="1069" y="949" on="0"/>
        <pt x="1046" y="995" on="1"/>
        <pt x="1024" y="1036" on="0"/>
        <pt x="1024" y="1049" on="1"/>
        <pt x="1024" y="1085" on="0"/>
        <pt x="1079" y="1194" on="1"/>
        <pt x="1083" y="1203" on="0"/>
        <pt x="1133" y="1228" on="1"/>
        <pt x="1154" y="1203" on="0"/>
        <pt x="1161" y="1166" on="1"/>
        <pt x="1165" y="1134" on="0"/>
        <pt x="1170" y="1103" on="1"/>
        <pt x="1200" y="1087" on="0"/>
        <pt x="1260" y="1052" on="1"/>
        <pt x="1240" y="983" on="0"/>
        <pt x="1199" y="843" on="1"/>
        <pt x="1260" y="367" on="1"/>
        <pt x="1264" y="357" on="0"/>
        <pt x="1264" y="342" on="1"/>
        <pt x="1264" y="285" on="0"/>
        <pt x="1219" y="197" on="1"/>
        <pt x="1227" y="182" on="0"/>
        <pt x="1305" y="157" on="1"/>
        <pt x="1378" y="135" on="0"/>
        <pt x="1390" y="85" on="1"/>
        <pt x="1394" y="75" on="0"/>
      </contour>
      <contour>
        <pt x="1979" y="-346" on="1"/>
        <pt x="1979" y="-363" on="0"/>
        <pt x="1934" y="-412" on="0"/>
        <pt x="1914" y="-421" on="1"/>
        <pt x="1784" y="-462" on="0"/>
        <pt x="1521" y="-557" on="1"/>
        <pt x="1507" y="-555" on="0"/>
        <pt x="1507" y="-531" on="1"/>
        <pt x="1507" y="-479" on="0"/>
        <pt x="1551" y="-458" on="1"/>
        <pt x="1854" y="-320" on="0"/>
        <pt x="1913" y="-321" on="1"/>
        <pt x="1966" y="-321" on="1"/>
        <pt x="1979" y="-322" on="0"/>
      </contour>
      <contour>
        <pt x="2491" y="374" on="1"/>
        <pt x="2448" y="417" on="0"/>
        <pt x="2423" y="417" on="1"/>
        <pt x="2419" y="411" on="0"/>
        <pt x="2402" y="391" on="1"/>
        <pt x="2389" y="376" on="0"/>
        <pt x="2389" y="361" on="1"/>
        <pt x="2389" y="349" on="0"/>
        <pt x="2413" y="325" on="1"/>
        <pt x="2468" y="325" on="1"/>
        <pt x="2491" y="349" on="0"/>
      </contour>
    </TTGlyph>
    <TTGlyph name="uniFB5A" xMin="438" yMin="-537" xMax="4378" yMax="1719">
      <contour>
        <pt x="4378" y="1554" on="1"/>
        <pt x="4378" y="1461" on="0"/>
        <pt x="4280" y="1390" on="1"/>
        <pt x="4196" y="1329" on="0"/>
        <pt x="4122" y="1329" on="1"/>
        <pt x="4110" y="1329" on="0"/>
        <pt x="4066" y="1339" on="0"/>
        <pt x="4055" y="1339" on="1"/>
        <pt x="4047" y="1339" on="0"/>
        <pt x="4006" y="1298" on="1"/>
        <pt x="3959" y="1298" on="1"/>
        <pt x="3956" y="1321" on="0"/>
        <pt x="4012" y="1420" on="0"/>
        <pt x="4042" y="1437" on="1"/>
        <pt x="4065" y="1445" on="0"/>
        <pt x="4103" y="1464" on="1"/>
        <pt x="4123" y="1477" on="0"/>
        <pt x="4181" y="1575" on="1"/>
        <pt x="4230" y="1657" on="0"/>
        <pt x="4275" y="1657" on="1"/>
        <pt x="4322" y="1657" on="0"/>
        <pt x="4354" y="1612" on="1"/>
        <pt x="4378" y="1579" on="0"/>
      </contour>
      <contour>
        <pt x="4286" y="251" on="1"/>
        <pt x="4286" y="147" on="0"/>
        <pt x="4242" y="88" on="1"/>
        <pt x="4205" y="84" on="0"/>
        <pt x="4196" y="122" on="1"/>
        <pt x="4160" y="332" on="0"/>
        <pt x="4083" y="759" on="1"/>
        <pt x="4039" y="988" on="0"/>
        <pt x="4039" y="1036" on="1"/>
        <pt x="4039" y="1058" on="0"/>
        <pt x="4067" y="1113" on="1"/>
        <pt x="4099" y="1176" on="0"/>
        <pt x="4129" y="1185" on="1"/>
      </contour>
      <contour>
        <pt x="3465" y="1695" on="1"/>
        <pt x="3465" y="1650" on="0"/>
        <pt x="3449" y="1638" on="1"/>
        <pt x="3362" y="1568" on="0"/>
        <pt x="3218" y="1479" on="1"/>
        <pt x="3093" y="1404" on="0"/>
        <pt x="2969" y="1330" on="1"/>
        <pt x="2932" y="1330" on="1"/>
        <pt x="2932" y="1334" on="0"/>
        <pt x="2921" y="1350" on="0"/>
        <pt x="2921" y="1365" on="1"/>
        <pt x="2921" y="1428" on="0"/>
        <pt x="2997" y="1472" on="1"/>
        <pt x="3058" y="1504" on="0"/>
        <pt x="3118" y="1535" on="1"/>
        <pt x="3242" y="1627" on="0"/>
        <pt x="3430" y="1719" on="1"/>
        <pt x="3435" y="1713" on="0"/>
        <pt x="3459" y="1700" on="0"/>
      </contour>
      <contour>
        <pt x="3393" y="1185" on="1"/>
        <pt x="3393" y="1148" on="0"/>
        <pt x="3358" y="1088" on="1"/>
        <pt x="3325" y="1034" on="0"/>
        <pt x="3299" y="1014" on="1"/>
        <pt x="3271" y="1007" on="0"/>
        <pt x="3216" y="987" on="1"/>
        <pt x="3139" y="949" on="0"/>
        <pt x="3127" y="949" on="1"/>
        <pt x="3045" y="949" on="0"/>
        <pt x="3045" y="1031" on="1"/>
        <pt x="3045" y="1089" on="0"/>
        <pt x="3100" y="1144" on="1"/>
        <pt x="3109" y="1140" on="0"/>
        <pt x="3154" y="1072" on="1"/>
        <pt x="3180" y="1076" on="0"/>
        <pt x="3221" y="1194" on="1"/>
        <pt x="3258" y="1194" on="1"/>
        <pt x="3268" y="1169" on="0"/>
        <pt x="3288" y="1122" on="1"/>
        <pt x="3296" y="1122" on="0"/>
        <pt x="3308" y="1140" on="1"/>
        <pt x="3313" y="1225" on="0"/>
        <pt x="3358" y="1247" on="1"/>
        <pt x="3393" y="1229" on="0"/>
      </contour>
      <contour>
        <pt x="3865" y="292" on="1"/>
        <pt x="3849" y="120" on="0"/>
        <pt x="3771" y="70" on="1"/>
        <pt x="3757" y="61" on="0"/>
        <pt x="3585" y="22" on="1"/>
        <pt x="3560" y="10" on="0"/>
        <pt x="3549" y="-22" on="1"/>
        <pt x="3410" y="-435" on="0"/>
        <pt x="3132" y="-435" on="1"/>
        <pt x="3085" y="-435" on="0"/>
        <pt x="2842" y="-402" on="1"/>
        <pt x="2825" y="-391" on="0"/>
        <pt x="2798" y="-370" on="1"/>
        <pt x="2818" y="-323" on="0"/>
        <pt x="2875" y="-323" on="1"/>
        <pt x="2886" y="-323" on="0"/>
        <pt x="2969" y="-333" on="0"/>
        <pt x="2982" y="-333" on="1"/>
        <pt x="3127" y="-333" on="0"/>
        <pt x="3294" y="-220" on="1"/>
        <pt x="3465" y="-103" on="0"/>
        <pt x="3465" y="10" on="1"/>
        <pt x="3465" y="24" on="0"/>
        <pt x="3450" y="39" on="1"/>
        <pt x="3439" y="50" on="0"/>
        <pt x="3427" y="61" on="1"/>
        <pt x="3393" y="108" on="0"/>
        <pt x="3393" y="159" on="1"/>
        <pt x="3393" y="231" on="0"/>
        <pt x="3449" y="231" on="1"/>
        <pt x="3462" y="231" on="0"/>
        <pt x="3580" y="200" on="0"/>
        <pt x="3594" y="200" on="1"/>
        <pt x="3660" y="200" on="0"/>
        <pt x="3673" y="203" on="1"/>
        <pt x="3713" y="212" on="0"/>
        <pt x="3763" y="257" on="1"/>
        <pt x="3756" y="339" on="0"/>
        <pt x="3718" y="564" on="1"/>
        <pt x="3698" y="698" on="0"/>
        <pt x="3646" y="963" on="1"/>
        <pt x="3644" y="974" on="0"/>
        <pt x="3620" y="1017" on="1"/>
        <pt x="3598" y="1055" on="0"/>
        <pt x="3598" y="1077" on="1"/>
        <pt x="3598" y="1126" on="0"/>
        <pt x="3683" y="1266" on="1"/>
        <pt x="3720" y="1266" on="1"/>
        <pt x="3741" y="1203" on="0"/>
        <pt x="3743" y="1152" on="1"/>
        <pt x="3779" y="1136" on="0"/>
        <pt x="3834" y="1102" on="1"/>
        <pt x="3838" y="1092" on="0"/>
        <pt x="3838" y="1079" on="1"/>
        <pt x="3838" y="1049" on="0"/>
        <pt x="3805" y="987" on="1"/>
        <pt x="3767" y="918" on="0"/>
        <pt x="3762" y="898" on="1"/>
      </contour>
      <contour>
        <pt x="2592" y="1288" on="1"/>
        <pt x="2592" y="1269" on="0"/>
        <pt x="2560" y="1226" on="0"/>
        <pt x="2542" y="1226" on="1"/>
        <pt x="2529" y="1226" on="0"/>
        <pt x="2462" y="1277" on="0"/>
        <pt x="2449" y="1277" on="1"/>
        <pt x="2455" y="1277" on="0"/>
        <pt x="2121" y="990" on="0"/>
        <pt x="2084" y="990" on="1"/>
        <pt x="2041" y="990" on="1"/>
        <pt x="2038" y="1000" on="0"/>
        <pt x="2029" y="1016" on="1"/>
        <pt x="2336" y="1289" on="0"/>
        <pt x="2336" y="1308" on="1"/>
        <pt x="2336" y="1329" on="0"/>
        <pt x="2268" y="1384" on="1"/>
        <pt x="2265" y="1395" on="0"/>
        <pt x="2265" y="1426" on="1"/>
        <pt x="2265" y="1487" on="0"/>
        <pt x="2311" y="1560" on="1"/>
        <pt x="2360" y="1637" on="0"/>
        <pt x="2408" y="1637" on="1"/>
        <pt x="2466" y="1637" on="0"/>
        <pt x="2484" y="1529" on="1"/>
        <pt x="2488" y="1468" on="0"/>
        <pt x="2493" y="1407" on="1"/>
        <pt x="2522" y="1382" on="0"/>
        <pt x="2552" y="1357" on="1"/>
        <pt x="2592" y="1317" on="0"/>
      </contour>
      <contour>
        <pt x="2982" y="288" on="1"/>
        <pt x="2982" y="229" on="0"/>
        <pt x="2957" y="166" on="1"/>
        <pt x="2925" y="87" on="0"/>
        <pt x="2875" y="87" on="1"/>
        <pt x="2787" y="87" on="1"/>
        <pt x="2773" y="87" on="0"/>
        <pt x="2674" y="138" on="0"/>
        <pt x="2665" y="138" on="1"/>
        <pt x="2651" y="138" on="0"/>
        <pt x="2638" y="125" on="1"/>
        <pt x="2619" y="105" on="0"/>
        <pt x="2611" y="101" on="1"/>
        <pt x="2514" y="46" on="0"/>
        <pt x="2434" y="46" on="1"/>
        <pt x="2373" y="46" on="0"/>
        <pt x="2288" y="107" on="0"/>
        <pt x="2280" y="107" on="1"/>
        <pt x="2269" y="107" on="0"/>
        <pt x="2244" y="91" on="1"/>
        <pt x="2218" y="72" on="0"/>
        <pt x="2201" y="67" on="0"/>
        <pt x="2130" y="58" on="1"/>
        <pt x="2081" y="52" on="0"/>
        <pt x="2058" y="33" on="1"/>
        <pt x="2031" y="13" on="0"/>
        <pt x="1963" y="-145" on="1"/>
        <pt x="1935" y="-211" on="0"/>
        <pt x="1835" y="-307" on="1"/>
        <pt x="1726" y="-411" on="0"/>
        <pt x="1655" y="-423" on="1"/>
        <pt x="1578" y="-435" on="0"/>
        <pt x="1536" y="-435" on="1"/>
        <pt x="1489" y="-435" on="0"/>
        <pt x="1378" y="-413" on="1"/>
        <pt x="1279" y="-394" on="0"/>
        <pt x="1250" y="-382" on="1"/>
        <pt x="1250" y="-345" on="1"/>
        <pt x="1295" y="-323" on="0"/>
        <pt x="1310" y="-323" on="1"/>
        <pt x="1323" y="-323" on="0"/>
        <pt x="1379" y="-344" on="0"/>
        <pt x="1392" y="-344" on="1"/>
        <pt x="1534" y="-344" on="0"/>
        <pt x="1692" y="-244" on="1"/>
        <pt x="1856" y="-140" on="0"/>
        <pt x="1916" y="0" on="1"/>
        <pt x="1902" y="16" on="0"/>
        <pt x="1864" y="16" on="1"/>
        <pt x="1850" y="16" on="0"/>
        <pt x="1800" y="5" on="0"/>
        <pt x="1787" y="5" on="1"/>
        <pt x="1598" y="5" on="0"/>
        <pt x="1598" y="154" on="1"/>
        <pt x="1598" y="216" on="0"/>
        <pt x="1642" y="317" on="1"/>
        <pt x="1700" y="446" on="0"/>
        <pt x="1777" y="446" on="1"/>
        <pt x="1856" y="446" on="0"/>
        <pt x="1908" y="357" on="1"/>
        <pt x="1998" y="207" on="0"/>
        <pt x="2005" y="200" on="1"/>
        <pt x="1994" y="200" on="0"/>
        <pt x="2135" y="216" on="1"/>
        <pt x="2182" y="222" on="0"/>
        <pt x="2189" y="224" on="1"/>
        <pt x="2225" y="232" on="0"/>
        <pt x="2245" y="252" on="1"/>
        <pt x="2262" y="269" on="0"/>
        <pt x="2282" y="315" on="1"/>
        <pt x="2305" y="365" on="0"/>
        <pt x="2319" y="384" on="1"/>
        <pt x="2367" y="381" on="0"/>
        <pt x="2367" y="315" on="1"/>
        <pt x="2367" y="267" on="0"/>
        <pt x="2347" y="227" on="1"/>
        <pt x="2389" y="200" on="0"/>
        <pt x="2444" y="200" on="1"/>
        <pt x="2470" y="200" on="0"/>
        <pt x="2531" y="220" on="1"/>
        <pt x="2600" y="241" on="0"/>
        <pt x="2611" y="259" on="1"/>
        <pt x="2618" y="272" on="0"/>
        <pt x="2642" y="364" on="1"/>
        <pt x="2660" y="433" on="0"/>
        <pt x="2700" y="456" on="1"/>
        <pt x="2737" y="451" on="0"/>
        <pt x="2743" y="406" on="1"/>
        <pt x="2743" y="368" on="0"/>
        <pt x="2744" y="330" on="1"/>
        <pt x="2747" y="297" on="0"/>
        <pt x="2765" y="284" on="1"/>
        <pt x="2793" y="278" on="0"/>
        <pt x="2853" y="261" on="1"/>
        <pt x="2865" y="274" on="0"/>
        <pt x="2865" y="293" on="1"/>
        <pt x="2865" y="306" on="0"/>
        <pt x="2850" y="365" on="0"/>
        <pt x="2850" y="379" on="1"/>
        <pt x="2850" y="424" on="0"/>
        <pt x="2905" y="508" on="1"/>
        <pt x="2930" y="486" on="0"/>
        <pt x="2958" y="395" on="1"/>
        <pt x="2982" y="315" on="0"/>
      </contour>
      <contour>
        <pt x="1259" y="236" on="1"/>
        <pt x="1256" y="172" on="0"/>
        <pt x="1234" y="70" on="1"/>
        <pt x="1183" y="-33" on="0"/>
        <pt x="1029" y="-106" on="1"/>
        <pt x="897" y="-169" on="0"/>
        <pt x="798" y="-169" on="1"/>
        <pt x="653" y="-169" on="0"/>
        <pt x="554" y="-98" on="1"/>
        <pt x="438" y="-15" on="0"/>
        <pt x="438" y="134" on="1"/>
        <pt x="438" y="174" on="0"/>
        <pt x="486" y="269" on="1"/>
        <pt x="526" y="351" on="0"/>
        <pt x="554" y="384" on="1"/>
        <pt x="592" y="384" on="0"/>
        <pt x="592" y="349" on="1"/>
        <pt x="592" y="336" on="0"/>
        <pt x="551" y="213" on="0"/>
        <pt x="551" y="200" on="1"/>
        <pt x="551" y="103" on="0"/>
        <pt x="662" y="42" on="1"/>
        <pt x="746" y="-4" on="0"/>
        <pt x="812" y="-4" on="1"/>
        <pt x="881" y="-4" on="0"/>
        <pt x="1002" y="41" on="1"/>
        <pt x="1127" y="89" on="0"/>
        <pt x="1156" y="134" on="1"/>
        <pt x="1159" y="173" on="0"/>
        <pt x="1138" y="317" on="1"/>
        <pt x="1107" y="523" on="0"/>
        <pt x="1050" y="964" on="1"/>
        <pt x="1047" y="987" on="0"/>
        <pt x="1025" y="1052" on="1"/>
        <pt x="1002" y="1113" on="0"/>
        <pt x="1002" y="1129" on="1"/>
        <pt x="1002" y="1171" on="0"/>
        <pt x="1031" y="1235" on="1"/>
        <pt x="1062" y="1306" on="0"/>
        <pt x="1098" y="1329" on="1"/>
        <pt x="1117" y="1329" on="0"/>
        <pt x="1132" y="1304" on="1"/>
        <pt x="1126" y="1198" on="0"/>
        <pt x="1238" y="1143" on="1"/>
        <pt x="1238" y="1079" on="0"/>
        <pt x="1214" y="1034" on="1"/>
        <pt x="1197" y="1018" on="0"/>
        <pt x="1169" y="982" on="1"/>
        <pt x="1166" y="980" on="0"/>
        <pt x="1166" y="934" on="1"/>
      </contour>
      <contour>
        <pt x="1084" y="-261" on="1"/>
        <pt x="1084" y="-302" on="0"/>
        <pt x="871" y="-408" on="1"/>
        <pt x="690" y="-498" on="0"/>
        <pt x="574" y="-537" on="1"/>
        <pt x="574" y="-534" on="0"/>
        <pt x="561" y="-517" on="0"/>
        <pt x="561" y="-502" on="1"/>
        <pt x="561" y="-457" on="0"/>
        <pt x="662" y="-401" on="1"/>
        <pt x="726" y="-371" on="0"/>
        <pt x="790" y="-341" on="1"/>
        <pt x="879" y="-296" on="0"/>
        <pt x="1060" y="-221" on="1"/>
        <pt x="1084" y="-244" on="0"/>
      </contour>
      <contour>
        <pt x="4274" y="1522" on="1"/>
        <pt x="4264" y="1522" on="0"/>
        <pt x="4250" y="1534" on="1"/>
        <pt x="4196" y="1498" on="0"/>
        <pt x="4196" y="1452" on="1"/>
        <pt x="4231" y="1468" on="0"/>
        <pt x="4244" y="1477" on="1"/>
        <pt x="4271" y="1496" on="0"/>
      </contour>
      <contour>
        <pt x="2407" y="1443" on="1"/>
        <pt x="2407" y="1461" on="0"/>
        <pt x="2397" y="1499" on="0"/>
        <pt x="2397" y="1502" on="1"/>
        <pt x="2370" y="1502" on="0"/>
        <pt x="2347" y="1479" on="1"/>
        <pt x="2364" y="1443" on="0"/>
      </contour>
      <contour>
        <pt x="1833" y="193" on="1"/>
        <pt x="1781" y="272" on="0"/>
        <pt x="1762" y="272" on="1"/>
        <pt x="1745" y="272" on="0"/>
        <pt x="1722" y="248" on="1"/>
        <pt x="1722" y="202" on="1"/>
        <pt x="1795" y="178" on="0"/>
      </contour>
    </TTGlyph>
    <TTGlyph name="uniFB5B" xMin="249" yMin="-416" xMax="3563" yMax="1789">
      <contour>
        <pt x="3471" y="1061" on="1"/>
        <pt x="3471" y="1031" on="0"/>
        <pt x="3427" y="992" on="1"/>
        <pt x="3390" y="958" on="0"/>
        <pt x="3378" y="958" on="1"/>
        <pt x="3365" y="958" on="0"/>
        <pt x="3273" y="1009" on="0"/>
        <pt x="3260" y="1009" on="1"/>
        <pt x="3252" y="1009" on="0"/>
        <pt x="3178" y="927" on="0"/>
        <pt x="3142" y="927" on="1"/>
        <pt x="3115" y="927" on="0"/>
        <pt x="3030" y="980" on="1"/>
        <pt x="3029" y="1031" on="0"/>
        <pt x="3062" y="1078" on="1"/>
        <pt x="3092" y="1122" on="0"/>
        <pt x="3122" y="1122" on="1"/>
        <pt x="3133" y="1122" on="0"/>
        <pt x="3211" y="1081" on="0"/>
        <pt x="3224" y="1081" on="1"/>
        <pt x="3237" y="1081" on="0"/>
        <pt x="3324" y="1163" on="0"/>
        <pt x="3337" y="1163" on="1"/>
        <pt x="3364" y="1163" on="0"/>
        <pt x="3471" y="1086" on="0"/>
      </contour>
      <contour>
        <pt x="3358" y="1599" on="1"/>
        <pt x="3358" y="1618" on="0"/>
        <pt x="3342" y="1547" on="1"/>
        <pt x="2806" y="1260" on="0"/>
        <pt x="2502" y="1092" on="1"/>
        <pt x="2468" y="1092" on="1"/>
        <pt x="2455" y="1105" on="0"/>
        <pt x="2455" y="1127" on="1"/>
        <pt x="2455" y="1193" on="0"/>
        <pt x="2794" y="1369" on="1"/>
        <pt x="3052" y="1502" on="0"/>
        <pt x="3310" y="1635" on="1"/>
        <pt x="3345" y="1635" on="1"/>
        <pt x="3358" y="1621" on="0"/>
      </contour>
      <contour>
        <pt x="3563" y="347" on="1"/>
        <pt x="3563" y="171" on="0"/>
        <pt x="3499" y="140" on="1"/>
        <pt x="3368" y="78" on="0"/>
        <pt x="3251" y="57" on="1"/>
        <pt x="3164" y="40" on="0"/>
        <pt x="2994" y="16" on="1"/>
        <pt x="2413" y="-27" on="0"/>
        <pt x="2470" y="-27" on="1"/>
        <pt x="2301" y="-27" on="1"/>
        <pt x="2288" y="-27" on="0"/>
        <pt x="2215" y="-18" on="1"/>
        <pt x="2127" y="-6" on="0"/>
        <pt x="2100" y="-4" on="1"/>
        <pt x="2067" y="0" on="0"/>
        <pt x="1976" y="38" on="1"/>
        <pt x="1914" y="63" on="0"/>
        <pt x="1867" y="151" on="1"/>
        <pt x="1827" y="224" on="0"/>
        <pt x="1821" y="285" on="1"/>
        <pt x="1812" y="390" on="0"/>
        <pt x="1774" y="922" on="1"/>
        <pt x="1773" y="941" on="0"/>
        <pt x="1726" y="1040" on="0"/>
        <pt x="1726" y="1050" on="1"/>
        <pt x="1726" y="1076" on="0"/>
        <pt x="1746" y="1119" on="1"/>
        <pt x="1769" y="1173" on="0"/>
        <pt x="1798" y="1173" on="1"/>
        <pt x="1875" y="1173" on="0"/>
        <pt x="1893" y="800" on="1"/>
        <pt x="1896" y="747" on="0"/>
        <pt x="1911" y="599" on="1"/>
        <pt x="1923" y="473" on="0"/>
        <pt x="1923" y="399" on="1"/>
        <pt x="1923" y="256" on="0"/>
        <pt x="2091" y="186" on="1"/>
        <pt x="2210" y="137" on="0"/>
        <pt x="2358" y="137" on="1"/>
        <pt x="2367" y="137" on="0"/>
        <pt x="2847" y="157" on="0"/>
        <pt x="2860" y="157" on="1"/>
        <pt x="2940" y="157" on="0"/>
        <pt x="3175" y="199" on="1"/>
        <pt x="3471" y="251" on="0"/>
        <pt x="3471" y="306" on="1"/>
        <pt x="3471" y="328" on="0"/>
        <pt x="3434" y="383" on="1"/>
        <pt x="3324" y="301" on="0"/>
        <pt x="3296" y="301" on="1"/>
        <pt x="3231" y="301" on="0"/>
        <pt x="3182" y="376" on="1"/>
        <pt x="3142" y="437" on="0"/>
        <pt x="3142" y="486" on="1"/>
        <pt x="3142" y="560" on="0"/>
        <pt x="3186" y="648" on="1"/>
        <pt x="3238" y="753" on="0"/>
        <pt x="3311" y="753" on="1"/>
        <pt x="3455" y="753" on="0"/>
        <pt x="3559" y="442" on="1"/>
        <pt x="3563" y="429" on="0"/>
      </contour>
      <contour>
        <pt x="1419" y="1440" on="1"/>
        <pt x="1419" y="1436" on="0"/>
        <pt x="1385" y="1369" on="1"/>
        <pt x="1353" y="1369" on="1"/>
        <pt x="1341" y="1369" on="0"/>
        <pt x="1290" y="1420" on="1"/>
        <pt x="1228" y="1354" on="0"/>
        <pt x="1099" y="1239" on="1"/>
        <pt x="1007" y="1171" on="0"/>
        <pt x="858" y="1122" on="1"/>
        <pt x="845" y="1135" on="1"/>
        <pt x="845" y="1172" on="1"/>
        <pt x="990" y="1262" on="0"/>
        <pt x="1193" y="1447" on="1"/>
        <pt x="1193" y="1454" on="0"/>
        <pt x="1189" y="1463" on="1"/>
        <pt x="1176" y="1480" on="0"/>
        <pt x="1123" y="1514" on="1"/>
        <pt x="1100" y="1529" on="0"/>
        <pt x="1100" y="1589" on="1"/>
        <pt x="1100" y="1638" on="0"/>
        <pt x="1136" y="1705" on="1"/>
        <pt x="1181" y="1789" on="0"/>
        <pt x="1244" y="1789" on="1"/>
        <pt x="1341" y="1789" on="0"/>
        <pt x="1341" y="1656" on="1"/>
        <pt x="1341" y="1634" on="0"/>
        <pt x="1335" y="1565" on="0"/>
        <pt x="1335" y="1556" on="1"/>
        <pt x="1335" y="1544" on="0"/>
        <pt x="1338" y="1541" on="1"/>
        <pt x="1338" y="1541" on="0"/>
        <pt x="1386" y="1490" on="1"/>
        <pt x="1419" y="1457" on="0"/>
      </contour>
      <contour>
        <pt x="505" y="1451" on="1"/>
        <pt x="505" y="1367" on="0"/>
        <pt x="399" y="1245" on="0"/>
        <pt x="331" y="1245" on="1"/>
        <pt x="249" y="1245" on="0"/>
        <pt x="249" y="1363" on="1"/>
        <pt x="249" y="1413" on="0"/>
        <pt x="285" y="1499" on="1"/>
        <pt x="328" y="1604" on="0"/>
        <pt x="383" y="1604" on="1"/>
        <pt x="505" y="1604" on="0"/>
      </contour>
      <contour>
        <pt x="1511" y="297" on="1"/>
        <pt x="1511" y="251" on="0"/>
        <pt x="1493" y="190" on="1"/>
        <pt x="1467" y="106" on="0"/>
        <pt x="1425" y="88" on="1"/>
        <pt x="1357" y="77" on="0"/>
        <pt x="1211" y="21" on="1"/>
        <pt x="1195" y="12" on="0"/>
        <pt x="1126" y="-116" on="1"/>
        <pt x="1096" y="-174" on="0"/>
        <pt x="935" y="-336" on="0"/>
        <pt x="872" y="-372" on="1"/>
        <pt x="795" y="-416" on="0"/>
        <pt x="690" y="-416" on="1"/>
        <pt x="601" y="-416" on="0"/>
        <pt x="500" y="-388" on="1"/>
        <pt x="397" y="-357" on="0"/>
        <pt x="361" y="-319" on="1"/>
        <pt x="369" y="-306" on="0"/>
        <pt x="387" y="-287" on="1"/>
        <pt x="496" y="-303" on="0"/>
        <pt x="562" y="-303" on="1"/>
        <pt x="671" y="-303" on="0"/>
        <pt x="813" y="-234" on="1"/>
        <pt x="987" y="-149" on="0"/>
        <pt x="1080" y="-9" on="1"/>
        <pt x="1080" y="0" on="0"/>
        <pt x="1063" y="11" on="1"/>
        <pt x="993" y="7" on="0"/>
        <pt x="926" y="29" on="1"/>
        <pt x="842" y="58" on="0"/>
        <pt x="816" y="120" on="1"/>
        <pt x="813" y="127" on="0"/>
        <pt x="813" y="193" on="1"/>
        <pt x="813" y="276" on="0"/>
        <pt x="857" y="351" on="1"/>
        <pt x="913" y="445" on="0"/>
        <pt x="1008" y="445" on="1"/>
        <pt x="1059" y="445" on="0"/>
        <pt x="1116" y="346" on="1"/>
        <pt x="1157" y="272" on="0"/>
        <pt x="1164" y="237" on="1"/>
        <pt x="1173" y="225" on="0"/>
        <pt x="1199" y="198" on="1"/>
        <pt x="1297" y="215" on="0"/>
        <pt x="1398" y="256" on="1"/>
        <pt x="1387" y="455" on="0"/>
        <pt x="1312" y="829" on="1"/>
        <pt x="1307" y="852" on="0"/>
        <pt x="1280" y="925" on="1"/>
        <pt x="1254" y="991" on="0"/>
        <pt x="1254" y="1004" on="1"/>
        <pt x="1254" y="1097" on="0"/>
        <pt x="1352" y="1194" on="1"/>
        <pt x="1379" y="1171" on="0"/>
        <pt x="1387" y="1121" on="1"/>
        <pt x="1393" y="1079" on="0"/>
        <pt x="1400" y="1037" on="1"/>
        <pt x="1425" y="1017" on="0"/>
        <pt x="1466" y="976" on="1"/>
        <pt x="1475" y="940" on="0"/>
        <pt x="1466" y="900" on="1"/>
        <pt x="1465" y="894" on="0"/>
        <pt x="1441" y="852" on="0"/>
        <pt x="1442" y="840" on="1"/>
        <pt x="1447" y="736" on="0"/>
        <pt x="1479" y="512" on="1"/>
        <pt x="1511" y="297" on="0"/>
      </contour>
      <contour>
        <pt x="505" y="265" on="1"/>
        <pt x="505" y="225" on="0"/>
        <pt x="482" y="145" on="1"/>
        <pt x="457" y="59" on="0"/>
        <pt x="431" y="25" on="1"/>
        <pt x="425" y="25" on="0"/>
        <pt x="399" y="36" on="0"/>
        <pt x="394" y="36" on="1"/>
        <pt x="396" y="220" on="0"/>
        <pt x="388" y="285" on="1"/>
        <pt x="374" y="405" on="0"/>
        <pt x="328" y="707" on="1"/>
        <pt x="290" y="967" on="0"/>
        <pt x="290" y="978" on="1"/>
        <pt x="290" y="1036" on="0"/>
        <pt x="355" y="1122" on="1"/>
        <pt x="376" y="1110" on="0"/>
        <pt x="399" y="1076" on="1"/>
        <pt x="505" y="354" on="0"/>
      </contour>
      <contour>
        <pt x="3357" y="510" on="1"/>
        <pt x="3357" y="544" on="0"/>
        <pt x="3314" y="588" on="1"/>
        <pt x="3281" y="588" on="1"/>
        <pt x="3255" y="589" on="0"/>
        <pt x="3255" y="547" on="1"/>
        <pt x="3255" y="528" on="0"/>
        <pt x="3292" y="486" on="0"/>
        <pt x="3311" y="486" on="1"/>
        <pt x="3333" y="486" on="0"/>
      </contour>
      <contour>
        <pt x="1253" y="1643" on="1"/>
        <pt x="1206" y="1655" on="1"/>
        <pt x="1196" y="1636" on="0"/>
        <pt x="1195" y="1619" on="1"/>
        <pt x="1212" y="1606" on="0"/>
        <pt x="1240" y="1584" on="1"/>
      </contour>
      <contour>
        <pt x="423" y="1415" on="1"/>
        <pt x="423" y="1433" on="0"/>
        <pt x="371" y="1481" on="0"/>
        <pt x="355" y="1481" on="1"/>
        <pt x="320" y="1447" on="0"/>
        <pt x="320" y="1420" on="1"/>
        <pt x="320" y="1396" on="0"/>
        <pt x="355" y="1358" on="1"/>
        <pt x="423" y="1390" on="0"/>
      </contour>
      <contour>
        <pt x="1007" y="200" on="1"/>
        <pt x="1007" y="218" on="0"/>
        <pt x="986" y="266" on="0"/>
        <pt x="986" y="270" on="1"/>
        <pt x="949" y="270" on="1"/>
        <pt x="938" y="247" on="0"/>
        <pt x="938" y="211" on="1"/>
        <pt x="939" y="211" on="0"/>
        <pt x="982" y="200" on="0"/>
      </contour>
    </TTGlyph>
</ttFont>
